<?xml version="1.0" encoding="UTF-8"?>
<!DOCTYPE svg PUBLIC "-//W3C//DTD SVG 1.1//EN" "http://www.w3.org/Graphics/SVG/1.1/DTD/svg11.dtd">
<!-- Creator: CorelDRAW -->
<svg xmlns="http://www.w3.org/2000/svg" xml:space="preserve" width="61.8869mm" height="26.6993mm" version="1.1" style="shape-rendering:geometricPrecision; text-rendering:geometricPrecision; image-rendering:optimizeQuality; fill-rule:evenodd; clip-rule:evenodd"
viewBox="0 0 35488.9 15310.6"
 xmlns:xlink="http://www.w3.org/1999/xlink"
 xmlns:xodm="http://www.corel.com/coreldraw/odm/2003">
 <defs>
  <style type="text/css">
   <![CDATA[
    .fil0 {fill:#9C9C9C;fill-rule:nonzero}
   ]]>
  </style>
 </defs>
 <g id="Capa_x0020_1">
  <metadata id="CorelCorpID_0Corel-Layer"/>
  <path class="fil0" d="M35488.9 5473.6c0,518.5 -69.1,1014.7 -209.4,1486.4 -42.7,142.3 -103.7,213.5 -178.9,213.5 -56.9,0 -178.9,-79.3 -370,-237.9 -95.6,-79.3 -120,-193.1 -71.2,-339.5 113.8,-362 170.8,-652.7 170.8,-870.3 0,-75.2 -16.3,-113.9 -48.8,-113.9 -46.7,0 -124,71.2 -231.8,215.6 -827.5,1075.6 -1447.7,2285.4 -1858.4,3623.3 -130.1,424.9 -241.9,638.4 -333.5,638.4 -36.6,0 -193.1,-69.1 -471.7,-209.4 -136.3,-67.1 -181,-199.3 -138.3,-394.5 313.1,-1376.5 648.6,-2537.5 1008.5,-3485 -294.9,311.1 -481.9,522.5 -561.2,638.4 -30.5,46.8 -75.2,71.2 -130.2,71.2 -67.1,0 -101.7,-30.5 -101.7,-89.5 0,-34.6 16.3,-75.2 46.8,-117.9 195.2,-233.9 455.4,-589.7 780.8,-1069.5 99.6,-172.8 199.2,-260.2 298.9,-260.2 71.2,0 215.5,54.9 433.1,166.7 124,63 144.4,148.5 61,256.2 -87.5,115.9 -252.1,522.5 -494.1,1222 -231.8,679.1 -390.4,1209.8 -477.9,1596.1 542.9,-1203.7 1159,-2265.1 1848.3,-3186.1 132.2,-174.8 237.9,-262.3 317.2,-262.3 71.2,0 168.8,48.8 292.8,146.4 168.8,20.4 272.4,44.7 317.2,77.2 67.1,46.8 101.7,142.3 101.7,284.7z"/>
  <path class="fil0" d="M31268.4 6130.4c-8.1,353.8 -93.5,823.5 -256.2,1407 -258.2,923.1 -624.3,1636.8 -1096,2147.2 -252.1,270.4 -528.7,404.6 -835.7,404.6 -120,0 -272.4,-26.4 -459.5,-77.2 -372.1,-24.4 -677.1,-140.3 -910.9,-351.8 -254.2,-229.8 -374.1,-524.6 -357.8,-886.5 16.2,-420.9 160.6,-1006.5 435.1,-1760.8 300.9,-821.4 616.1,-1413.1 941.4,-1773 154.5,-174.9 282.7,-262.3 382.3,-262.3 134.2,0 353.8,136.2 654.7,410.7 83.4,-40.7 254.2,-113.8 512.4,-221.6 132.1,-44.7 231.8,-67.1 298.9,-67.1 154.5,0 327.3,144.4 518.5,435.1 124,178.9 181,378.2 172.8,595.8zm-687.2 176.9c26.4,-266.4 40.7,-435.1 40.7,-506.3 0,-166.8 -50.9,-250.1 -154.5,-250.1 -38.7,0 -91.5,8.1 -154.5,24.4l-921.1 374.1c-107.8,42.7 -168.8,65.1 -185,65.1 -30.5,0 -63.1,-38.7 -93.5,-113.9 -229.8,282.7 -445.3,691.3 -642.5,1224.1 -154.5,416.8 -262.3,790.9 -321.2,1120.3 -42.7,223.7 -65.1,425 -65.1,608 0,612 189.1,910.9 565.2,894.6 150.5,-4.1 313.2,-63 486,-178.9 333.5,-225.7 644.6,-679.1 933.2,-1358.2 278.6,-640.5 447.3,-1274.9 512.4,-1903.2z"/>
  <path class="fil0" d="M29915.7 683.2c46.8,36.6 71.2,75.2 71.2,117.9 0,75.2 -46.7,113.9 -142.3,113.9 -36.6,0 -73.2,-10.2 -113.8,-28.4 -185.1,-87.5 -325.3,-130.2 -416.8,-130.2 -244,0 -516.4,242 -813.3,725.9 -1091.8,1783.2 -1886.9,4156.1 -2385,7122.6 101.7,-99.6 241.9,-256.2 416.8,-465.6 101.6,-124 178.9,-185 225.7,-185 107.8,0 118,61 30.5,185 -382.3,526.7 -634.3,1096 -758.4,1705.9 -46.8,146.4 -107.8,219.6 -179,219.6 -34.5,0 -79.3,-18.3 -130.1,-52.9 -199.3,-136.2 -311.1,-215.5 -335.5,-237.9 -79.3,-75.2 -120,-176.9 -120,-303 0,-67.1 10.2,-146.4 30.5,-237.9 170.8,-915 313.1,-1598.1 424.9,-2045.5 -390.4,559.2 -831.6,1116.3 -1321.6,1673.4 -492.1,557.1 -849.9,908.9 -1073.6,1055.3 -170.8,115.9 -296.9,172.8 -382.3,172.8 -71.2,0 -181,-56.9 -327.4,-172.8 -258.2,-158.6 -388.3,-343.6 -388.3,-553.1 0,-36.6 4.1,-75.2 12.2,-120 83.3,-589.6 349.7,-1274.8 797,-2055.6 447.3,-778.7 961.7,-1435.5 1537.1,-1966.2 189.1,-174.8 355.8,-260.2 502.2,-256.2 156.6,8.1 433.1,197.2 831.6,569.3 34.6,32.5 52.9,67.1 52.9,103.7 0,63 -42.7,95.5 -126,95.5 -26.4,0 -56.9,-8.1 -89.5,-24.4 -278.6,-118 -504.3,-115.9 -679.1,12.2 -374.1,278.5 -786.9,760.4 -1236.2,1447.7 -520.5,795 -827.5,1508.7 -919.1,2145.1 -20.3,150.5 20.4,225.7 120,225.7 132.2,0 292.8,-93.5 483.9,-280.6 443.3,-433.1 919.1,-976 1429.4,-1632.7 522.5,-679.1 856,-1191.5 1004.4,-1537.2 83.4,-191.1 148.5,-374.1 195.2,-549 412.8,-1461.9 872.3,-2710.3 1378.6,-3747.4 396.5,-809.2 744.2,-1354.1 1045.1,-1632.7 111.8,-107.8 217.6,-160.6 321.2,-160.6 109.8,0 252.1,65.1 427,195.2 197.3,162.7 398.5,325.3 599.8,488z"/>
  <path class="fil0" d="M21959.5 7809.8c-237.9,359.9 -547,884.5 -927.2,1571.8 -71.2,178.9 -140.3,355.8 -209.4,534.7 -54.9,124 -128.1,185 -219.6,185 -71.2,0 -176.9,-30.5 -315.2,-89.5 -154.5,-63 -231.8,-126 -231.8,-191.1 0,-26.4 26.4,-87.4 77.2,-183 258.2,-524.6 490,-1177.3 693.4,-1958 217.6,-819.4 311.1,-1447.7 280.6,-1878.8 -8.1,-174.8 -48.8,-262.2 -120,-262.2 -50.8,0 -130.1,48.7 -231.8,148.4 -1002.4,976 -1868.6,2281.3 -2598.5,3916.1 -91.5,201.3 -199.3,303 -321.3,303 -87.4,0 -233.8,-48.8 -435.1,-148.5 -81.4,-36.6 -122,-69.1 -126.1,-101.7 0,-16.2 22.4,-71.2 65.1,-166.7 229.7,-502.2 457.5,-1140.7 683.1,-1913.3 242,-837.7 380.3,-1490.4 410.8,-1958.1 8.1,-142.3 4.1,-213.5 -12.2,-213.5 -4.1,0 -59,52.9 -166.7,158.6 -107.8,105.7 -256.2,241.9 -447.3,410.7 -36.6,34.6 -75.2,52.9 -120,52.9 -54.9,0 -83.4,-22.4 -83.4,-65 0,-32.6 20.4,-67.1 59,-107.8 170.8,-217.6 394.4,-487.9 673,-811.3 59,-67.1 120,-101.7 183,-101.7 95.5,0 178.9,69.2 250.1,207.4 321.2,95.5 471.7,241.9 451.4,441.2 -42.7,437.1 -266.4,1224 -669,2362.7 266.4,-512.4 652.7,-1085.8 1161,-1718.1 508.4,-634.4 884.5,-1008.5 1130.6,-1124.4 124,-54.9 211.4,-83.4 262.3,-83.4 50.8,0 134.2,44.7 250.1,134.2 329.4,116 494.1,305 494.1,571.4 0,278.6 -67.1,723.9 -201.3,1339.9 -107.8,508.4 -207.4,902.8 -298.9,1183.4 115.9,-146.4 262.3,-337.5 439.2,-571.3 30.5,-38.7 63,-59 93.5,-59 59,0 89.5,38.6 89.5,113.8 0,22.4 -4.1,46.8 -12.2,71.2z"/>
  <path class="fil0" d="M16971.8 8234.8c-967.9,1236.2 -1647,1854.4 -2041.4,1854.4 -187.1,0 -422.9,-130.2 -709.6,-388.4 -298.9,-140.3 -447.3,-327.3 -447.3,-561.2 0,-44.7 4.1,-89.5 12.2,-138.3 71.2,-544.9 217.6,-1148.8 439.2,-1809.6 -146.4,-75.2 -219.6,-148.4 -219.6,-215.5 0,-54.9 40.7,-83.4 124,-83.4 65,0 130.1,18.3 197.2,54.9 351.8,-791 668.9,-1354.1 949.6,-1687.6 183,-221.6 345.6,-331.5 492,-331.5 67.1,0 233.9,56.9 500.2,172.8 -20.4,-120 14.2,-189.1 101.6,-209.4 4.1,0 97.6,0 280.6,0 172.8,0 258.2,30.5 258.2,89.5 0,12.2 -6.1,44.7 -18.4,101.7 -12.2,54.9 -18.3,107.8 -18.3,154.5 0,142.3 2.1,319.2 6.1,530.7 4.1,209.4 6.1,351.8 6.1,422.9 0,492.1 -134.2,835.7 -404.6,1030.9 -246,178.9 -524.6,268.4 -833.6,268.4 -162.7,0 -431.1,-44.7 -809.2,-132.1 -67.1,122 -142.3,361.9 -225.7,719.8 -111.8,451.4 -162.7,851.9 -154.5,1201.7 4.1,205.4 69.2,309 197.3,309 46.7,0 107.8,-12.2 185,-36.6 459.6,-160.6 1102.1,-656.8 1923.5,-1484.3 52.9,-50.8 103.7,-77.2 154.5,-77.2 75.2,0 113.9,36.6 113.9,107.8 0,42.7 -20.4,89.5 -59,136.3zm-697.4 -2635.2c0,-154.5 -34.6,-231.8 -101.7,-231.8 -42.7,0 -107.8,32.5 -191.1,95.6 -390.4,313.1 -731.9,864.1 -1026.8,1648.9 79.3,12.2 217.6,24.4 416.8,36.6 321.2,12.2 561.2,-61 719.8,-219.6 117.9,-120 183,-317.2 195.2,-589.6 -8.1,201.3 -12.2,-44.7 -12.2,-740.1z"/>
  <path class="fil0" d="M16306.9 689.3c50.9,40.7 77.3,81.3 77.3,124 0,75.2 -44.7,113.9 -136.3,113.9 -40.7,0 -81.3,-12.2 -126,-34.6 -183,-91.5 -319.2,-136.3 -410.7,-136.3 -250.1,0 -524.6,242 -823.5,725.9 -1079.6,1758.8 -1848.2,4030 -2305.7,6815.6 -12.2,77.2 -32.5,176.9 -59,305 91.5,-95.5 225.7,-250.1 404.6,-463.6 103.7,-124 178.9,-185 227.7,-185 103.7,0 109.8,61 22.4,185 -380.3,542.9 -634.4,1110.2 -756.4,1705.9 -44.7,146.4 -99.7,219.6 -166.8,219.6 -32.5,0 -75.2,-18.3 -126,-52.9 -203.3,-136.2 -319.2,-215.5 -345.7,-237.9 -79.3,-79.3 -120,-183 -120,-311.1 0,-63 10.2,-140.3 30.5,-231.8 459.5,-2527.4 1055.3,-4680.6 1781.2,-6457.7 549,-1342 1039,-2210.2 1472.1,-2606.7 120,-111.8 239.9,-164.7 357.8,-160.6 107.8,4 248.1,71.2 418.8,201.3 193.2,158.6 388.4,319.2 583.5,481.9z"/>
  <path class="fil0" d="M11095.6 6258.4c-48.8,671 -225.7,1392.8 -530.7,2163.4 -286.7,717.7 -569.3,1209.8 -847.9,1472.1 -158.6,146.4 -319.2,219.6 -483.9,219.6 -183,0 -486,-148.4 -910.9,-443.3 -83.4,-56.9 -126.1,-113.8 -126.1,-174.8 0,-75.2 52.9,-113.8 160.7,-113.8 44.7,0 107.8,14.2 191.1,42.7 83.4,28.5 152.5,42.7 203.3,42.7 290.8,0 551,-185.1 780.8,-555.1 195.2,-317.2 380.2,-744.2 555.1,-1281 211.4,-666.9 303,-1242.3 274.5,-1722.2 -10.2,-229.8 -89.5,-345.7 -231.8,-345.7 -126,0 -282.6,87.5 -465.6,262.3 -1287,1232.2 -2193.9,2704.3 -2718.5,4418.3 -298.9,973.9 -496.1,1874.7 -595.8,2706.3 -4.1,28.4 -56.9,717.7 -160.6,2067.9 -16.2,195.2 -65,292.8 -144.3,292.8 -83.4,0 -231.8,-97.6 -447.3,-292.8 -154.5,-142.3 -213.5,-317.2 -178.9,-524.6 174.8,-1978.4 652.7,-4180.4 1435.5,-6608.2 616.1,-1899.1 1104.1,-3129.2 1466,-3694.5 213.5,-329.4 404.6,-490 571.4,-481.9 166.7,4.1 485.9,152.5 953.6,445.3 63,38.7 95.6,81.3 95.6,124 0,59 -46.8,89.5 -142.3,89.5 -24.4,0 -65.1,-4.1 -120,-12.2 -54.9,-8.1 -97.6,-12.2 -124,-12.2 -250.1,0 -510.4,211.4 -780.8,636.4 -158.6,241.9 -359.9,646.6 -601.8,1217.9 -241.9,571.3 -416.8,1041 -524.6,1409 585.6,-951.5 1264.7,-1768.9 2039.4,-2450.1 120,-103.7 227.8,-154.5 323.3,-154.5 42.7,0 152.5,59 327.4,178.9 540.8,191.1 793,549 758.4,1077.6z"/>
  <path class="fil0" d="M5514.2 8120.9c0,717.8 -363.9,1295.2 -1093.9,1730.3 -211.4,329.4 -481.9,494.1 -815.3,494.1 -591.7,-8.1 -1248.5,-272.4 -1974.3,-791 -624.2,-445.3 -1053.3,-874.3 -1291.1,-1287 -225.7,-384.3 -339.5,-626.3 -339.5,-725.9 0,-122 89.5,-262.3 266.3,-416.8 164.7,-146.4 296.9,-219.6 390.4,-219.6 91.5,0 136.3,59 136.3,178.9 0,50.8 -10.2,113.9 -30.5,189.1 211.5,569.3 654.7,1100 1333.8,1592.1 679.1,490.1 1293.2,736.1 1844.2,736.1 487.9,-4.1 731.9,-337.5 731.9,-1000.4 0,-364 -282.6,-1093.9 -847.9,-2187.8 -565.2,-1091.8 -847.8,-1874.7 -847.8,-2348.4 0,-309 87.4,-585.6 260.2,-827.5 146.4,-201.3 402.6,-441.2 768.6,-719.8 67.1,-50.8 134.2,-77.2 201.3,-77.2 107.8,0 160.7,44.7 160.7,136.2 0,63.1 -34.6,130.2 -105.7,197.3 -303,288.7 -455.5,642.5 -455.5,1059.3 0,463.6 284.7,1228.1 854,2295.6 569.3,1065.5 854,1730.3 854,1992.6z"/>
  <path class="fil0" d="M7301.5 2657.5c-154.5,544.9 -366,1016.6 -634.3,1417.2 -120,179 -233.9,268.4 -341.6,268.4 -103.7,0 -284.7,-85.4 -544.9,-256.2 -79.3,-52.9 -120,-105.7 -120,-160.6 0,-83.4 71.2,-144.3 211.5,-178.9 105.7,-32.6 223.6,-213.5 357.8,-542.9 124,-315.2 187.1,-561.2 187.1,-740.1 0,-187.1 -73.2,-280.6 -221.6,-280.6 -52.9,0 -118,8.1 -197.3,24.4 -156.6,24.4 -492,132.1 -1008.5,323.3 -59,20.4 -113.8,30.5 -160.6,30.5 -120,0 -180.9,-40.7 -180.9,-120 0,-75.2 61,-144.3 185,-203.3 447.3,-223.7 886.5,-410.8 1321.6,-563.2 140.3,-50.9 239.9,-77.2 298.9,-77.2 91.5,0 211.4,126 357.8,380.2 223.6,69.2 361.9,118 412.8,150.5 87.4,50.8 132.2,130.1 132.2,237.9 0,75.2 -18.4,172.8 -54.9,290.8z"/>
  <path class="fil0" d="M7701.3 13478.2l262.5 62.7c-51.2,223.3 -128.3,394.2 -230.9,512.1 -102.3,118.4 -222.6,177.4 -360.4,177.4 -154.9,0 -276.1,-73.4 -363.3,-220.5 -87.2,-147.2 -130.9,-360.8 -130.9,-640.8 0,-227 29.2,-434.6 87.8,-623.1 58.5,-188.5 139.5,-332.9 243.5,-432.7 103.8,-99.8 216.7,-150 338.8,-150 137.5,0 248.3,58 333.2,173.6 84.9,116.1 134.5,273.5 149.6,473.6l-250.1 38.1c-13.9,-116.5 -40.5,-200.6 -79.8,-253.1 -39.3,-52.5 -91.6,-78.4 -157.2,-78.4 -71.9,0 -138.9,34.3 -201.3,103.5 -62.3,69.2 -112.1,177.4 -149.3,324.6 -37.6,146.7 -56.1,293.4 -56.1,440.2 0,160.2 24.2,284.1 72.7,371.4 48.5,87.3 109.1,130.9 181.2,130.9 67.4,0 128.9,-34.3 184.8,-103.5 56.1,-68.8 97.8,-170.9 125.3,-306z"/>
  <path id="_1" class="fil0" d="M8412.9 13152.3l-243 -32.1c27.8,-128.1 76.3,-227.9 145.4,-299.9 69.2,-72 160.5,-108.2 274.6,-108.2 118.5,0 206.3,37.6 262.8,112.4 56.7,75.2 85.2,166.7 85.2,274.9 0,43.6 -2.4,90.1 -7.5,138.8 -5,49.2 -22.1,178.3 -51.7,387.2 -24.5,172.7 -36.6,293.9 -36.6,363 0,61.8 7.1,130 21,205.7l-242.7 0c-9.5,-52.5 -15.4,-107.2 -17.8,-163.4 -36.4,63.6 -78.3,112.8 -125.6,147.7 -47.3,34.8 -95.2,52 -143.1,52 -76.3,0 -139.2,-39.5 -188.9,-118.4 -49.7,-79 -74.5,-180.2 -74.5,-304.1 0,-138.4 27.2,-249.3 81.9,-332 54.7,-83.1 152.3,-133.2 292.7,-150.4 118.5,-15.8 197.7,-34.3 237.6,-56.2 10.4,-54.8 15.7,-98.4 15.7,-130.9 0,-42.3 -10.7,-77.1 -32.2,-105.4 -21.3,-28.3 -53.2,-42.3 -95.5,-42.3 -44.4,0 -79.5,13.9 -105.3,42.3 -25.7,27.9 -43.4,67.8 -52.6,119.3zm236.8 364.9c-15,6.5 -34.9,12.6 -59.7,18.1 -124.8,23.7 -206.4,58.5 -244.5,104.5 -27.2,33.4 -40.8,78 -40.8,133.7 0,46.4 10.4,85 31.4,117 20.7,31.5 48.2,47.4 82.2,47.4 37.5,0 73,-14.4 106.1,-43.6 33.4,-28.8 58.3,-65.9 74.5,-111.5 16.5,-45.5 31,-116.5 43.7,-213.1l7.1 -52.5z"/>
  <path id="_2" class="fil0" d="M9016.3 13792.1l241.2 -60.3c21.3,80.3 47.8,136.9 79.5,170.4 31.7,33 74.5,49.7 129.2,49.7 56.4,0 101.7,-20 135.4,-60.4 23.6,-27.4 35.5,-61.3 35.5,-100.3 0,-27 -5.9,-50.6 -18.1,-71.5 -12.7,-20 -47,-44.6 -102.9,-73.8 -149.6,-78 -242.1,-140.2 -277.9,-185.7 -55.9,-70.6 -83.7,-163.4 -83.7,-278.1 0,-114.7 27.2,-213.6 81.3,-296.7 75.4,-115.6 187.4,-173.2 335.8,-173.2 118.2,0 207.5,34.4 267.9,102.6 60.6,68.2 98.7,160.6 115,277.2l-228.8 63.1c-12.1,-52.9 -31.7,-92.9 -58.5,-119.3 -37,-35.8 -81,-53.4 -132.8,-53.4 -51.8,0 -89,13.5 -111.8,40.8 -22.8,27.4 -33.9,59 -33.9,94.3 0,36.6 11.5,66.4 34.5,90.1 14.2,14.9 60.6,40.4 138.7,76.6 120.9,55.7 201.6,110 242.4,163.9 57.6,75.6 86.4,166.6 86.4,273 0,137.5 -36.6,256.8 -110,358 -73,100.8 -176.2,151.4 -309.5,151.4 -132.8,0 -235.1,-38.5 -307.5,-115.1 -72.4,-76.6 -121.5,-184.4 -147.5,-323.2z"/>
  <path id="_3" class="fil0" d="M10385.9 13152.3l-243 -32.1c27.8,-128.1 76.3,-227.9 145.4,-299.9 69.2,-72 160.6,-108.2 274.7,-108.2 118.5,0 206.3,37.6 262.8,112.4 56.7,75.2 85.1,166.7 85.1,274.9 0,43.6 -2.4,90.1 -7.4,138.8 -5,49.2 -22.1,178.3 -51.7,387.2 -24.5,172.7 -36.6,293.9 -36.6,363 0,61.8 7.1,130 21,205.7l-242.7 0c-9.5,-52.5 -15.4,-107.2 -17.8,-163.4 -36.4,63.6 -78.3,112.8 -125.6,147.7 -47.3,34.8 -95.2,52 -143.1,52 -76.3,0 -139.2,-39.5 -188.9,-118.4 -49.7,-79 -74.5,-180.2 -74.5,-304.1 0,-138.4 27.2,-249.3 81.9,-332 54.7,-83.1 152.3,-133.2 292.7,-150.4 118.5,-15.8 197.7,-34.3 237.6,-56.2 10.4,-54.8 15.7,-98.4 15.7,-130.9 0,-42.3 -10.6,-77.1 -32.2,-105.4 -21.3,-28.3 -53.3,-42.3 -95.5,-42.3 -44.4,0 -79.5,13.9 -105.3,42.3 -25.7,27.9 -43.5,67.8 -52.6,119.3zm236.8 364.9c-15.1,6.5 -34.9,12.6 -59.7,18.1 -124.8,23.7 -206.4,58.5 -244.5,104.5 -27.2,33.4 -40.8,78 -40.8,133.7 0,46.4 10.3,85 31.3,117 20.7,31.5 48.2,47.4 82.2,47.4 37.5,0 73,-14.4 106.1,-43.6 33.4,-28.8 58.3,-65.9 74.5,-111.5 16.6,-45.5 31.1,-116.5 43.8,-213.1l7.1 -52.5z"/>
  <polygon id="_4" class="fil0" points="12390.2,13302.7 11897.4,13302.7 11778.6,14194.2 11517.5,14194.2 11783.5,12199.6 12044.3,12199.6 11941.7,12968.5 12434.8,12968.5 12537.4,12199.6 12798.1,12199.6 12532.3,14194.2 12271.3,14194.2 "/>
  <path id="_5" class="fil0" d="M12832.1 13594.3c0,-268.8 47.9,-482.8 144,-642.6 96.1,-159.7 222.3,-239.6 378.7,-239.6 135.4,0 241.2,59 317.5,176.9 76,118 114.1,276.3 114.1,475.9 0,234.5 -47.6,437.9 -142.8,608.7 -95.1,171.3 -222.6,256.8 -382.2,256.8 -86.6,0 -163.5,-27.4 -230.3,-81.7 -66.8,-54.8 -116.8,-132.4 -149.6,-232.2 -32.9,-100.3 -49.4,-207.5 -49.4,-322.2zm707.7 -280.9c0,-93.4 -17.1,-168.1 -51.4,-224.3 -34.3,-56.2 -78.4,-84.5 -132.4,-84.5 -53.6,0 -101.1,26.5 -142.5,79 -41.4,52.5 -73.6,129.1 -96.7,228.9 -23.1,100.3 -34.6,192.7 -34.6,276.7 0,104.5 17.7,187.1 53.5,248.4 35.7,61.3 80.7,91.9 134.8,91.9 68,0 124.7,-46.4 170.8,-138.8 65.7,-130.5 98.5,-289.7 98.5,-477.3z"/>
  <path id="_6" class="fil0" d="M13865.6 14272.2l262.8 59.9c0,41.7 4.5,73.3 13,94.2 8.6,21.4 22.5,39.5 41.7,54.8 19.2,14.9 45.5,22.2 78.7,22.2 55.9,0 100.8,-16.2 134.5,-49.2 25.1,-25.5 45.8,-66.4 61.8,-123 9.7,-35.3 22.4,-112.9 37.8,-232.2l8.9 -67.8c-90.5,112.3 -184.2,168.5 -280.9,168.5 -90.1,0 -164,-50.1 -221.7,-150 -57.6,-99.8 -86.6,-246.5 -86.6,-439.3 0,-169.9 19.5,-325.9 58.8,-467.5 39.3,-141.6 94.6,-248.9 165.8,-321.8 70.9,-72.9 143.6,-109.1 217.6,-109.1 60.9,0 116.8,25.6 167.6,76.6 50.5,51.6 89.9,123.1 118.2,215.4l32.2 -255.8 233.8 0 -146.6 1208.6c-26.6,192.7 -49.1,330.1 -67.4,412.8 -18.4,82.2 -39.3,147.6 -63,196.3 -23.3,49.3 -53.2,90.1 -89.3,123.1 -36.1,33 -78.3,56.7 -127.4,71.1 -49,14.4 -102,21.8 -159.3,21.8 -129.8,0 -227.9,-34.8 -294.1,-104.4 -66.2,-70.1 -99.7,-186.2 -99.7,-348.3 0,-17.1 0.9,-36.2 2.7,-57.1zm292.9 -701.1c0,110.5 15.7,194.6 47,252.1 31.3,58 70.6,86.8 118,86.8 44.3,0 87.2,-26 128.9,-78 41.7,-52 73.6,-125.4 95.8,-221 22.1,-95.7 33.4,-188.1 33.4,-277.7 0,-102.6 -18.3,-185.7 -54.4,-248.4 -36.4,-62.7 -78.3,-94.3 -125.9,-94.3 -44.6,0 -85.4,27.9 -122.7,83.1 -37.2,55.7 -68,141.1 -92.2,257.2 -18.6,89.2 -27.8,169 -27.8,240z"/>
  <path id="_7" class="fil0" d="M15312.9 13152.3l-243 -32.1c27.8,-128.1 76.3,-227.9 145.4,-299.9 69.2,-72 160.5,-108.2 274.6,-108.2 118.5,0 206.3,37.6 262.8,112.4 56.7,75.2 85.1,166.7 85.1,274.9 0,43.6 -2.4,90.1 -7.4,138.8 -5,49.2 -22.1,178.3 -51.7,387.2 -24.5,172.7 -36.6,293.9 -36.6,363 0,61.8 7.1,130 21,205.7l-242.7 0c-9.5,-52.5 -15.4,-107.2 -17.8,-163.4 -36.4,63.6 -78.3,112.8 -125.6,147.7 -47.3,34.8 -95.1,52 -143.1,52 -76.3,0 -139.2,-39.5 -188.9,-118.4 -49.7,-79 -74.5,-180.2 -74.5,-304.1 0,-138.4 27.2,-249.3 81.9,-332 54.7,-83.1 152.3,-133.2 292.7,-150.4 118.5,-15.8 197.7,-34.3 237.6,-56.2 10.4,-54.8 15.7,-98.4 15.7,-130.9 0,-42.3 -10.6,-77.1 -32.2,-105.4 -21.3,-28.3 -53.3,-42.3 -95.5,-42.3 -44.4,0 -79.5,13.9 -105.3,42.3 -25.7,27.9 -43.4,67.8 -52.6,119.3zm236.8 364.9c-15.1,6.5 -34.9,12.6 -59.7,18.1 -124.8,23.7 -206.4,58.5 -244.5,104.5 -27.2,33.4 -40.8,78 -40.8,133.7 0,46.4 10.3,85 31.4,117 20.7,31.5 48.2,47.4 82.2,47.4 37.5,0 73,-14.4 106.1,-43.6 33.4,-28.8 58.3,-65.9 74.5,-111.5 16.6,-45.5 31.1,-116.5 43.8,-213.1l7.1 -52.5z"/>
  <path id="_8" class="fil0" d="M16126.8 12748.4l233.6 0 -35.2 272.1c85.7,-205.7 178.6,-308.3 278.8,-308.3 35.4,0 73.6,13.9 114.1,42.3l-95.8 319.5c-22.5,-12.6 -46.7,-19 -72.1,-19 -42.8,0 -86.3,25.5 -130.7,76.6 -44.3,51 -78.9,118.8 -103.7,204.3 -25.1,85 -49.7,220.1 -73.9,404.9l-59.4 453.6 -248.3 0 192.7 -1445.8z"/>
  <path id="_9" class="fil0" d="M17314 12748.4l235.6 0 -18.6 147.2c50.2,-65.5 97.5,-112.9 141.6,-141.2 43.8,-28.3 91.1,-42.3 141.3,-42.3 96.7,0 174.4,52.5 233.3,157 58.8,104.9 88.1,260.9 88.1,468.5 0,260.9 -50.9,481.9 -152.5,662 -86.9,153.7 -190.1,230.8 -309.3,230.8 -122.7,0 -215.2,-77.1 -277.8,-231.3l-97.8 746.6 -248 0 264.2 -1997.4zm149 829.3c0,114.2 17.7,202.9 52.9,265.6 35.5,63.1 76.8,94.7 124.8,94.7 41.3,0 81.3,-23.7 119.7,-70.6 38.4,-47.4 70.4,-125.4 95.5,-234.9 25.4,-109.1 38.2,-210.8 38.2,-304.1 0,-108.7 -16.6,-192.2 -50,-250.3 -33.1,-58 -75.4,-87.3 -126.5,-87.3 -47.9,0 -91.4,26.5 -130.7,79.9 -39.3,53.4 -69.8,131.9 -91.4,235.4 -21.6,103.6 -32.5,194.1 -32.5,271.6z"/>
  <path id="_10" class="fil0" d="M18565.9 13152.3l-243 -32.1c27.8,-128.1 76.3,-227.9 145.4,-299.9 69.2,-72 160.5,-108.2 274.6,-108.2 118.5,0 206.3,37.6 262.8,112.4 56.7,75.2 85.1,166.7 85.1,274.9 0,43.6 -2.4,90.1 -7.4,138.8 -5,49.2 -22.1,178.3 -51.7,387.2 -24.5,172.7 -36.6,293.9 -36.6,363 0,61.8 7.1,130 21,205.7l-242.7 0c-9.5,-52.5 -15.4,-107.2 -17.8,-163.4 -36.4,63.6 -78.3,112.8 -125.6,147.7 -47.3,34.8 -95.1,52 -143.1,52 -76.3,0 -139.2,-39.5 -188.9,-118.4 -49.7,-79 -74.5,-180.2 -74.5,-304.1 0,-138.4 27.2,-249.3 81.9,-332 54.7,-83.1 152.3,-133.2 292.7,-150.4 118.5,-15.8 197.7,-34.3 237.6,-56.2 10.4,-54.8 15.7,-98.4 15.7,-130.9 0,-42.3 -10.6,-77.1 -32.2,-105.4 -21.3,-28.3 -53.3,-42.3 -95.5,-42.3 -44.4,0 -79.5,13.9 -105.3,42.3 -25.7,27.9 -43.4,67.8 -52.6,119.3zm236.8 364.9c-15.1,6.5 -34.9,12.6 -59.7,18.1 -124.8,23.7 -206.4,58.5 -244.5,104.5 -27.2,33.4 -40.8,78 -40.8,133.7 0,46.4 10.3,85 31.4,117 20.7,31.5 48.2,47.4 82.2,47.4 37.5,0 73,-14.4 106.1,-43.6 33.4,-28.8 58.3,-65.9 74.5,-111.5 16.6,-45.5 31.1,-116.5 43.8,-213.1l7.1 -52.5z"/>
  <path id="_11" class="fil0" d="M19379.8 12748.4l233.6 0 -35.2 272.1c85.7,-205.7 178.6,-308.3 278.8,-308.3 35.4,0 73.6,13.9 114.1,42.3l-95.8 319.5c-22.5,-12.6 -46.7,-19 -72.1,-19 -42.8,0 -86.3,25.5 -130.7,76.6 -44.3,51 -78.9,118.8 -103.7,204.3 -25.1,85 -49.7,220.1 -73.9,404.9l-59.4 453.6 -248.3 0 192.7 -1445.8z"/>
  <path id="_12" class="fil0" d="M20242.7 13152.3l-243 -32.1c27.8,-128.1 76.3,-227.9 145.4,-299.9 69.2,-72 160.5,-108.2 274.6,-108.2 118.5,0 206.3,37.6 262.8,112.4 56.7,75.2 85.2,166.7 85.2,274.9 0,43.6 -2.4,90.1 -7.5,138.8 -5,49.2 -22.1,178.3 -51.7,387.2 -24.5,172.7 -36.6,293.9 -36.6,363 0,61.8 7.1,130 21,205.7l-242.7 0c-9.5,-52.5 -15.4,-107.2 -17.7,-163.4 -36.4,63.6 -78.4,112.8 -125.6,147.7 -47.3,34.8 -95.2,52 -143.1,52 -76.3,0 -139.2,-39.5 -188.9,-118.4 -49.7,-79 -74.5,-180.2 -74.5,-304.1 0,-138.4 27.2,-249.3 81.9,-332 54.7,-83.1 152.3,-133.2 292.7,-150.4 118.5,-15.8 197.8,-34.3 237.6,-56.2 10.4,-54.8 15.7,-98.4 15.7,-130.9 0,-42.3 -10.7,-77.1 -32.2,-105.4 -21.3,-28.3 -53.2,-42.3 -95.5,-42.3 -44.4,0 -79.5,13.9 -105.3,42.3 -25.7,27.9 -43.4,67.8 -52.6,119.3zm236.8 364.9c-15,6.5 -34.9,12.6 -59.7,18.1 -124.8,23.7 -206.4,58.5 -244.5,104.5 -27.2,33.4 -40.8,78 -40.8,133.7 0,46.4 10.4,85 31.4,117 20.7,31.5 48.2,47.4 82.2,47.4 37.5,0 73,-14.4 106.1,-43.6 33.4,-28.8 58.3,-65.9 74.5,-111.5 16.5,-45.5 31,-116.5 43.7,-213.1l7.1 -52.5z"/>
  <polygon id="_13" class="fil0" points="21369,14194.2 21635.1,12199.6 21883.1,12199.6 21617.4,14194.2 "/>
  <path id="_14" class="fil0" d="M22214.8 13152.3l-243 -32.1c27.8,-128.1 76.3,-227.9 145.4,-299.9 69.2,-72 160.5,-108.2 274.6,-108.2 118.5,0 206.3,37.6 262.8,112.4 56.7,75.2 85.1,166.7 85.1,274.9 0,43.6 -2.4,90.1 -7.4,138.8 -5,49.2 -22.1,178.3 -51.7,387.2 -24.5,172.7 -36.6,293.9 -36.6,363 0,61.8 7.1,130 21,205.7l-242.7 0c-9.5,-52.5 -15.4,-107.2 -17.8,-163.4 -36.4,63.6 -78.3,112.8 -125.6,147.7 -47.3,34.8 -95.1,52 -143.1,52 -76.3,0 -139.2,-39.5 -188.9,-118.4 -49.7,-79 -74.5,-180.2 -74.5,-304.1 0,-138.4 27.2,-249.3 81.9,-332 54.7,-83.1 152.3,-133.2 292.7,-150.4 118.5,-15.8 197.7,-34.3 237.6,-56.2 10.4,-54.8 15.7,-98.4 15.7,-130.9 0,-42.3 -10.6,-77.1 -32.2,-105.4 -21.3,-28.3 -53.2,-42.3 -95.5,-42.3 -44.4,0 -79.5,13.9 -105.3,42.3 -25.7,27.9 -43.4,67.8 -52.6,119.3zm236.8 364.9c-15.1,6.5 -34.9,12.6 -59.7,18.1 -124.8,23.7 -206.4,58.5 -244.5,104.5 -27.2,33.4 -40.8,78 -40.8,133.7 0,46.4 10.3,85 31.4,117 20.7,31.5 48.2,47.4 82.2,47.4 37.5,0 73,-14.4 106.1,-43.6 33.4,-28.8 58.3,-65.9 74.5,-111.5 16.6,-45.5 31.1,-116.5 43.8,-213.1l7.1 -52.5z"/>
  <polygon id="_15" class="fil0" points="23897.1,14194.2 23636.1,14194.2 23857.5,12533.8 23484.8,12533.8 23527.3,12199.6 24527.7,12199.6 24485.1,12533.8 24118.6,12533.8 "/>
  <path id="_16" class="fil0" d="M25256.4 13592.5l-624.7 0c-0.6,15.3 -0.9,27.4 -0.9,35.7 0,97 17.7,175.1 52.9,234.5 35.2,59.4 78.3,89.2 128.9,89.2 83.4,0 148.4,-66.9 195.1,-200.6l221.7 58.5c-43.5,140.2 -101.4,245.1 -174.2,315.3 -72.7,70.1 -154,105.4 -244.4,105.4 -123.9,0 -224.7,-61.8 -302.1,-184.8 -77.8,-123.5 -116.5,-286.5 -116.5,-489.8 0,-198.2 34.9,-374.7 104.9,-529.8 95.2,-209.4 231.4,-313.9 408.2,-313.9 112.6,0 202.2,54.8 268.7,164.4 66.5,109.5 99.6,263.2 99.6,460.6 0,94.7 -5.9,179.7 -17.4,255.4zm-209.6 -236.8c0.6,-17.6 0.9,-30.6 0.9,-39.9 0,-108.2 -15.4,-189.4 -46.2,-243.8 -30.5,-54.3 -71.5,-81.3 -123.2,-81.3 -51.4,0 -97.5,30.7 -138.4,92.4 -40.8,61.2 -68.3,152.3 -82.7,272.5l389.6 0z"/>
  <path id="_17" class="fil0" d="M25525.5 12748.4l233.5 0 -35.2 272.1c85.7,-205.7 178.6,-308.3 278.8,-308.3 35.4,0 73.6,13.9 114.1,42.3l-95.8 319.5c-22.5,-12.6 -46.7,-19 -72.1,-19 -42.9,0 -86.4,25.5 -130.7,76.6 -44.3,51 -79,118.8 -103.8,204.3 -25.1,85 -49.7,220.1 -73.9,404.9l-59.4 453.6 -248.3 0 192.7 -1445.8z"/>
  <path id="_18" class="fil0" d="M26659.7 13651l241.2 61.3c-39.9,169 -98.5,297.6 -176.5,385.8 -77.8,88.2 -167.9,132.4 -270.5,132.4 -117.1,0 -209.9,-55.3 -278.5,-165.3 -68.5,-110 -102.8,-261.4 -102.8,-454.6 0,-157.4 20.7,-306.4 62.3,-446.7 41.4,-140.2 104.1,-250.3 187.7,-331 83.7,-80.3 175.3,-120.8 275.3,-120.8 108.4,0 195.1,44.6 259.5,134.2 64.8,89.2 101.2,206.6 109.1,352.4l-235.9 39.9c-5.9,-81.3 -21.6,-141.1 -47.3,-179.2 -25.7,-38.5 -59.2,-57.6 -100.8,-57.6 -47.9,0 -92.8,28.3 -134.2,84.5 -41.7,56.7 -73.6,141.2 -95.8,253.5 -22.1,112.4 -33.4,217.7 -33.4,316.2 0,85.9 13.3,151.8 39.6,198.2 26.6,46.4 59.7,69.7 99.6,69.7 39.6,0 78,-22.8 115,-68.2 36.6,-45.5 65.6,-113.8 86.3,-204.8z"/>
  <path id="_19" class="fil0" d="M27919.7 13592.5l-624.7 0c-0.6,15.3 -0.9,27.4 -0.9,35.7 0,97 17.7,175.1 52.9,234.5 35.2,59.4 78.3,89.2 128.9,89.2 83.4,0 148.4,-66.9 195.1,-200.6l221.7 58.5c-43.5,140.2 -101.4,245.1 -174.2,315.3 -72.7,70.1 -154,105.4 -244.4,105.4 -123.9,0 -224.7,-61.8 -302.1,-184.8 -77.8,-123.5 -116.5,-286.5 -116.5,-489.8 0,-198.2 34.9,-374.7 104.9,-529.8 95.2,-209.4 231.5,-313.9 408.2,-313.9 112.6,0 202.2,54.8 268.7,164.4 66.5,109.5 99.6,263.2 99.6,460.6 0,94.7 -5.9,179.7 -17.4,255.4zm-209.6 -236.8c0.6,-17.6 0.9,-30.6 0.9,-39.9 0,-108.2 -15.4,-189.4 -46.1,-243.8 -30.5,-54.3 -71.6,-81.3 -123.3,-81.3 -51.4,0 -97.5,30.7 -138.4,92.4 -40.8,61.2 -68.3,152.3 -82.7,272.5l389.6 0z"/>
  <path id="_20" class="fil0" d="M28188.7 12748.4l233.5 0 -35.2 272.1c85.7,-205.7 178.6,-308.3 278.8,-308.3 35.4,0 73.6,13.9 114.1,42.3l-95.8 319.5c-22.5,-12.6 -46.7,-19 -72.1,-19 -42.9,0 -86.3,25.5 -130.7,76.6 -44.3,51 -79,118.8 -103.8,204.3 -25.1,85 -49.6,220.1 -73.9,404.9l-59.4 453.6 -248.3 0 192.7 -1445.8z"/>
  <path id="_21" class="fil0" d="M29051.6 13152.3l-243 -32.1c27.8,-128.1 76.3,-227.9 145.4,-299.9 69.2,-72 160.6,-108.2 274.6,-108.2 118.6,0 206.3,37.6 262.8,112.4 56.8,75.2 85.2,166.7 85.2,274.9 0,43.6 -2.4,90.1 -7.4,138.8 -5,49.2 -22.2,178.3 -51.7,387.2 -24.5,172.7 -36.7,293.9 -36.7,363 0,61.8 7.2,130 21,205.7l-242.7 0c-9.4,-52.5 -15.4,-107.2 -17.7,-163.4 -36.4,63.6 -78.3,112.8 -125.6,147.7 -47.3,34.8 -95.2,52 -143.1,52 -76.3,0 -139.2,-39.5 -188.9,-118.4 -49.7,-79 -74.5,-180.2 -74.5,-304.1 0,-138.4 27.2,-249.3 81.9,-332 54.7,-83.1 152.3,-133.2 292.7,-150.4 118.5,-15.8 197.7,-34.3 237.6,-56.2 10.4,-54.8 15.7,-98.4 15.7,-130.9 0,-42.3 -10.6,-77.1 -32.2,-105.4 -21.3,-28.3 -53.3,-42.3 -95.5,-42.3 -44.4,0 -79.5,13.9 -105.3,42.3 -25.7,27.9 -43.5,67.8 -52.6,119.3zm236.7 364.9c-15,6.5 -34.9,12.6 -59.7,18.1 -124.7,23.7 -206.3,58.5 -244.5,104.5 -27.2,33.4 -40.8,78 -40.8,133.7 0,46.4 10.3,85 31.3,117 20.7,31.5 48.2,47.4 82.2,47.4 37.6,0 73.1,-14.4 106.1,-43.6 33.4,-28.8 58.3,-65.9 74.5,-111.5 16.6,-45.5 31,-116.5 43.8,-213.1l7.1 -52.5z"/>
  <polygon id="_22" class="fil0" points="30181.5,14194.2 30447.5,12199.6 31387.6,12199.6 31343.3,12533.8 30663.6,12533.8 30601.3,12985.1 31259.9,12985.1 31215.6,13319.5 30554.9,13319.5 30479.8,13859.9 31217.3,13859.9 31173,14194.2 "/>
  <path id="_23" class="fil0" d="M32212.1 14194.2l-235.6 0 20.7 -154.6c-45,68.2 -89.3,117 -133.1,146.7 -43.4,29.2 -92.5,44.2 -147.5,44.2 -95.2,0 -172.3,-51.1 -231.4,-153.7 -59.1,-102.2 -88.7,-253.5 -88.7,-454.1 0,-232.1 42.3,-441.6 126.6,-629.1 84.2,-187.6 195.7,-281.4 334.3,-281.4 125.4,0 219.3,77.6 282,233.1l103.2 -745.7 248 0 -278.5 1994.6zm-574.4 -586.9c0,103.5 16.9,184.8 50.2,243.3 33.7,58.1 75.1,87.3 124.2,87.3 45.5,0 88.1,-24.1 127.4,-72.9 39.6,-48.7 70.9,-123.5 94.6,-223.8 23.6,-99.8 35.4,-195.9 35.4,-288.3 0,-104.5 -18,-189.5 -54.1,-254 -36.4,-64.5 -78,-97 -125.4,-97 -73.6,0 -134.2,63.6 -181.5,191.3 -47.3,127.6 -70.9,265.6 -70.9,414.1z"/>
  <path id="_24" class="fil0" d="M32797.4 13152.3l-243 -32.1c27.8,-128.1 76.3,-227.9 145.4,-299.9 69.2,-72 160.5,-108.2 274.6,-108.2 118.5,0 206.3,37.6 262.8,112.4 56.7,75.2 85.2,166.7 85.2,274.9 0,43.6 -2.4,90.1 -7.5,138.8 -5,49.2 -22.1,178.3 -51.7,387.2 -24.5,172.7 -36.6,293.9 -36.6,363 0,61.8 7.1,130 21,205.7l-242.7 0c-9.5,-52.5 -15.4,-107.2 -17.7,-163.4 -36.4,63.6 -78.4,112.8 -125.6,147.7 -47.3,34.8 -95.2,52 -143.1,52 -76.3,0 -139.2,-39.5 -188.9,-118.4 -49.7,-79 -74.5,-180.2 -74.5,-304.1 0,-138.4 27.2,-249.3 81.9,-332 54.7,-83.1 152.3,-133.2 292.7,-150.4 118.5,-15.8 197.8,-34.3 237.6,-56.2 10.4,-54.8 15.7,-98.4 15.7,-130.9 0,-42.3 -10.7,-77.1 -32.2,-105.4 -21.3,-28.3 -53.2,-42.3 -95.5,-42.3 -44.4,0 -79.5,13.9 -105.3,42.3 -25.7,27.9 -43.4,67.8 -52.6,119.3zm236.8 364.9c-15,6.5 -34.9,12.6 -59.7,18.1 -124.8,23.7 -206.4,58.5 -244.5,104.5 -27.2,33.4 -40.8,78 -40.8,133.7 0,46.4 10.4,85 31.4,117 20.7,31.5 48.2,47.4 82.2,47.4 37.5,0 73,-14.4 106.1,-43.6 33.4,-28.8 58.3,-65.9 74.5,-111.5 16.5,-45.5 31,-116.5 43.7,-213.1l7.1 -52.5z"/>
  <path id="_25" class="fil0" d="M34282 14194.2l-235.6 0 20.7 -154.6c-45,68.2 -89.3,117 -133,146.7 -43.5,29.2 -92.6,44.2 -147.5,44.2 -95.2,0 -172.3,-51.1 -231.4,-153.7 -59.1,-102.2 -88.7,-253.5 -88.7,-454.1 0,-232.1 42.3,-441.6 126.6,-629.1 84.2,-187.6 195.7,-281.4 334.3,-281.4 125.4,0 219.3,77.6 282,233.1l103.2 -745.7 248 0 -278.5 1994.6zm-574.4 -586.9c0,103.5 16.9,184.8 50.3,243.3 33.7,58.1 75.1,87.3 124.1,87.3 45.5,0 88.1,-24.1 127.4,-72.9 39.6,-48.7 70.9,-123.5 94.6,-223.8 23.6,-99.8 35.4,-195.9 35.4,-288.3 0,-104.5 -18,-189.5 -54.1,-254 -36.4,-64.5 -78,-97 -125.3,-97 -73.6,0 -134.2,63.6 -181.6,191.3 -47.3,127.6 -70.9,265.6 -70.9,414.1z"/>
 </g>
</svg>
