<?xml version="1.0" encoding="UTF-8"?>
<!DOCTYPE svg PUBLIC "-//W3C//DTD SVG 1.1//EN" "http://www.w3.org/Graphics/SVG/1.1/DTD/svg11.dtd">
<!-- Creator: CorelDRAW -->
<svg xmlns="http://www.w3.org/2000/svg" xml:space="preserve" width="61.8869mm" height="26.7271mm" version="1.1" style="shape-rendering:geometricPrecision; text-rendering:geometricPrecision; image-rendering:optimizeQuality; fill-rule:evenodd; clip-rule:evenodd"
viewBox="0 0 30562.4 13199"
 xmlns:xlink="http://www.w3.org/1999/xlink"
 xmlns:xodm="http://www.corel.com/coreldraw/odm/2003">
 <defs>
  <style type="text/css">
   <![CDATA[
    .str0 {stroke:#008DCE;stroke-width:37.6;stroke-miterlimit:22.9256}
    .fil1 {fill:#373535;fill-rule:nonzero}
    .fil0 {fill:#008DCE;fill-rule:nonzero}
   ]]>
  </style>
 </defs>
 <g id="Capa_x0020_1">
  <metadata id="CorelCorpID_0Corel-Layer"/>
  <g id="_2921796234256">
   <path class="fil0" d="M30562.4 4727.5c0,446.5 -59.5,873.8 -180.4,1280 -36.7,122.6 -89.3,183.9 -154.1,183.9 -49,0 -154.1,-68.3 -318.7,-204.9 -82.3,-68.3 -103.3,-166.3 -61.3,-292.4 98,-311.7 147.1,-562.1 147.1,-749.5 0,-64.8 -14,-98.1 -42,-98.1 -40.2,0 -106.8,61.3 -199.6,185.6 -712.7,926.3 -1246.8,1968.2 -1600.4,3120.3 -112.1,365.9 -208.4,549.8 -287.2,549.8 -31.5,0 -166.3,-59.5 -406.2,-180.4 -117.3,-57.8 -155.9,-171.6 -119.1,-339.7 269.6,-1185.4 558.6,-2185.3 868.5,-3001.2 -253.9,267.9 -415,450 -483.3,549.8 -26.3,40.3 -64.8,61.3 -112.1,61.3 -57.8,0 -87.6,-26.2 -87.6,-77 0,-29.8 14,-64.8 40.3,-101.5 168.1,-201.4 392.2,-507.8 672.4,-921.1 85.8,-148.8 171.6,-224.1 257.4,-224.1 61.3,0 185.6,47.3 372.9,143.6 106.8,54.3 124.3,127.9 52.5,220.6 -75.3,99.8 -217.1,450 -425.5,1052.4 -199.6,584.8 -336.2,1041.9 -411.5,1374.5 467.5,-1036.6 998.1,-1950.6 1591.7,-2743.8 113.8,-150.6 204.8,-225.9 273.1,-225.9 61.3,0 145.3,42 252.2,126.1 145.3,17.5 234.6,38.5 273.1,66.5 57.8,40.3 87.6,122.6 87.6,245.1z"/>
   <path class="fil0" d="M26927.8 5293.1c-7,304.7 -80.5,709.2 -220.6,1211.7 -222.4,795 -537.6,1409.6 -943.8,1849.1 -217.1,232.9 -455.3,348.5 -719.7,348.5 -103.3,0 -234.6,-22.8 -395.7,-66.5 -320.5,-21 -583.1,-120.8 -784.5,-302.9 -218.9,-197.9 -322.2,-451.8 -308.2,-763.5 14,-362.4 138.3,-866.7 374.7,-1516.4 259.2,-707.4 530.6,-1216.9 810.7,-1526.9 133.1,-150.6 243.4,-225.9 329.2,-225.9 115.6,0 304.7,117.3 563.8,353.7 71.8,-35 218.9,-98 441.3,-190.9 113.8,-38.5 199.6,-57.8 257.4,-57.8 133,0 281.9,124.3 446.5,374.7 106.8,154.1 155.9,325.7 148.8,513.1zm-591.8 152.4c22.8,-229.4 35,-374.7 35,-436 0,-143.6 -43.8,-215.4 -133.1,-215.4 -33.3,0 -78.8,7 -133.1,21l-793.2 322.2c-92.8,36.8 -145.3,56.1 -159.3,56.1 -26.3,0 -54.3,-33.3 -80.5,-98.1 -197.9,243.4 -383.5,595.4 -553.3,1054.2 -133.1,358.9 -225.9,681.1 -276.7,964.8 -36.8,192.6 -56.1,366 -56.1,523.6 0,527.1 162.9,784.5 486.8,770.4 129.6,-3.5 269.7,-54.3 418.5,-154.1 287.2,-194.4 555.1,-584.9 803.7,-1169.7 239.9,-551.6 385.2,-1097.9 441.3,-1639z"/>
   <path class="fil0" d="M25762.8 602.1c40.3,31.5 61.3,64.8 61.3,101.5 0,64.8 -40.2,98.1 -122.6,98.1 -31.5,0 -63,-8.7 -98,-24.5 -159.4,-75.3 -280.2,-112.1 -359,-112.1 -210.1,0 -444.8,208.4 -700.4,625.1 -940.3,1535.7 -1624.9,3579.1 -2053.9,6133.9 87.6,-85.8 208.4,-220.6 359,-401 87.5,-106.8 154.1,-159.3 194.3,-159.3 92.8,0 101.6,52.5 26.3,159.3 -329.2,453.5 -546.3,943.8 -653.1,1469.1 -40.3,126.1 -92.8,189.1 -154.1,189.1 -29.7,0 -68.2,-15.8 -112.1,-45.5 -171.6,-117.3 -267.9,-185.6 -288.9,-204.8 -68.3,-64.8 -103.3,-152.4 -103.3,-260.9 0,-57.8 8.7,-126.1 26.3,-204.9 147.1,-788 269.6,-1376.3 365.9,-1761.5 -336.2,481.5 -716.2,961.3 -1138.2,1441.1 -423.8,479.8 -731.9,782.7 -924.5,908.8 -147.1,99.8 -255.7,148.8 -329.2,148.8 -61.3,0 -155.9,-49 -281.9,-148.8 -222.4,-136.6 -334.4,-295.9 -334.4,-476.3 0,-31.5 3.5,-64.7 10.5,-103.3 71.8,-507.8 301.1,-1097.9 686.4,-1770.3 385.2,-670.6 828.2,-1236.2 1323.7,-1693.2 162.9,-150.6 306.4,-224.1 432.5,-220.6 134.8,7 373,169.8 716.2,490.3 29.8,28 45.5,57.8 45.5,89.3 0,54.3 -36.7,82.3 -108.5,82.3 -22.8,0 -49,-7 -77,-21 -239.9,-101.6 -434.3,-99.8 -584.9,10.5 -322.2,239.9 -677.7,654.9 -1064.6,1246.7 -448.3,684.7 -712.7,1299.2 -791.5,1847.3 -17.5,129.6 17.5,194.4 103.3,194.4 113.8,0 252.2,-80.5 416.8,-241.6 381.7,-372.9 791.5,-840.5 1231,-1406.1 450,-584.9 737.2,-1026.1 865,-1323.8 71.8,-164.6 127.9,-322.2 168.1,-472.8 355.5,-1259 751.2,-2334.1 1187.2,-3227.2 341.4,-696.9 640.9,-1166.2 900,-1406.1 96.3,-92.8 187.4,-138.3 276.7,-138.3 94.6,0 217.1,56.1 367.7,168.1 169.9,140.1 343.2,280.2 516.6,420.3z"/>
   <path class="fil0" d="M18911.1 6739.4c-204.9,309.9 -471,761.7 -798.5,1353.6 -61.3,154.1 -120.8,306.4 -180.4,460.5 -47.3,106.8 -110.3,159.3 -189.1,159.3 -61.3,0 -152.4,-26.2 -271.4,-77 -133.1,-54.3 -199.6,-108.5 -199.6,-164.6 0,-22.8 22.8,-75.3 66.5,-157.6 222.4,-451.8 422,-1013.9 597.1,-1686.2 187.4,-705.7 267.9,-1246.8 241.6,-1618 -7,-150.6 -42,-225.8 -103.3,-225.8 -43.8,0 -112.1,42 -199.6,127.8 -863.3,840.5 -1609.2,1964.7 -2237.8,3372.4 -78.8,173.4 -171.6,260.9 -276.7,260.9 -75.3,0 -201.3,-42 -374.7,-127.9 -70.1,-31.5 -105.1,-59.5 -108.6,-87.6 0,-14 19.3,-61.3 56.1,-143.6 197.8,-432.5 394,-982.4 588.3,-1647.7 208.4,-721.5 327.5,-1283.5 353.7,-1686.3 7,-122.6 3.5,-183.9 -10.5,-183.9 -3.5,0 -50.8,45.5 -143.6,136.6 -92.8,91.1 -220.6,208.4 -385.2,353.7 -31.5,29.8 -64.8,45.5 -103.3,45.5 -47.3,0 -71.8,-19.3 -71.8,-56 0,-28.1 17.5,-57.8 50.8,-92.8 147.1,-187.4 339.7,-420.2 579.6,-698.6 50.8,-57.8 103.3,-87.6 157.6,-87.6 82.3,0 154.1,59.6 215.4,178.6 276.7,82.3 406.2,208.4 388.8,380 -36.8,376.5 -229.4,1054.1 -576.1,2034.7 229.4,-441.2 562.1,-935 999.8,-1479.6 437.8,-546.3 761.7,-868.5 973.6,-968.3 106.8,-47.3 182.1,-71.8 225.9,-71.8 43.8,0 115.6,38.5 215.4,115.6 283.7,99.9 425.5,262.7 425.5,492.1 0,239.9 -57.8,623.4 -173.3,1153.9 -92.8,437.8 -178.6,777.5 -257.4,1019.1 99.8,-126.1 225.9,-290.7 378.2,-492 26.3,-33.3 54.3,-50.8 80.5,-50.8 50.8,0 77,33.2 77,98 0,19.3 -3.5,40.3 -10.5,61.3z"/>
   <path class="fil0" d="M14615.8 7105.4c-833.5,1064.6 -1418.4,1596.9 -1758,1596.9 -161.1,0 -364.2,-112.1 -611.1,-334.5 -257.4,-120.8 -385.2,-281.9 -385.2,-483.3 0,-38.5 3.5,-77 10.5,-119.1 61.3,-469.2 187.4,-989.3 378.2,-1558.4 -126.1,-64.8 -189.1,-127.8 -189.1,-185.6 0,-47.3 35,-71.8 106.8,-71.8 56,0 112.1,15.8 169.8,47.3 302.9,-681.2 576.1,-1166.2 817.8,-1453.3 157.6,-190.9 297.6,-285.4 423.7,-285.4 57.8,0 201.4,49 430.8,148.8 -17.5,-103.3 12.2,-162.8 87.5,-180.4 3.5,0 84.1,0 241.7,0 148.8,0 222.4,26.3 222.4,77 0,10.5 -5.3,38.5 -15.8,87.6 -10.5,47.3 -15.8,92.8 -15.8,133.1 0,122.6 1.8,274.9 5.3,457 3.5,180.4 5.2,302.9 5.2,364.2 0,423.8 -115.6,719.7 -348.5,887.8 -211.9,154.1 -451.8,231.1 -717.9,231.1 -140.1,0 -371.2,-38.5 -696.9,-113.8 -57.8,105 -122.6,311.7 -194.4,619.9 -96.3,388.7 -140.1,733.7 -133.1,1034.8 3.5,176.8 59.6,266.1 169.9,266.1 40.2,0 92.8,-10.5 159.3,-31.5 395.8,-138.3 949.1,-565.6 1656.5,-1278.3 45.5,-43.8 89.3,-66.5 133,-66.5 64.8,0 98.1,31.5 98.1,92.8 0,36.8 -17.5,77 -50.8,117.3zm-600.6 -2269.4c0,-133.1 -29.8,-199.6 -87.6,-199.6 -36.7,0 -92.8,28 -164.6,82.3 -336.2,269.6 -630.3,744.2 -884.3,1420 68.3,10.5 187.4,21 359,31.6 276.7,10.5 483.3,-52.5 619.9,-189.1 101.5,-103.3 157.6,-273.1 168.1,-507.8 -7,173.3 -10.5,-38.5 -10.5,-637.4z"/>
   <path class="fil0 str0" d="M14043.2 607.3c43.8,35 66.6,70 66.6,106.8 0,64.8 -38.5,98.1 -117.3,98.1 -35,0 -70,-10.5 -108.5,-29.8 -157.6,-78.8 -274.9,-117.3 -353.7,-117.3 -215.4,0 -451.8,208.4 -709.2,625.1 -929.8,1514.7 -1591.7,3470.6 -1985.6,5869.5 -10.5,66.5 -28,152.4 -50.8,262.6 78.8,-82.3 194.3,-215.4 348.5,-399.2 89.3,-106.8 154.1,-159.3 196.1,-159.3 89.3,0 94.6,52.5 19.3,159.3 -327.5,467.5 -546.3,956.1 -651.4,1469.1 -38.5,126.1 -85.8,189.1 -143.6,189.1 -28,0 -64.8,-15.8 -108.5,-45.5 -175.1,-117.3 -274.9,-185.6 -297.7,-204.8 -68.3,-68.3 -103.3,-157.6 -103.3,-267.9 0,-54.3 8.8,-120.8 26.3,-199.6 395.7,-2176.6 908.8,-4030.9 1533.9,-5561.3 472.8,-1155.7 894.7,-1903.4 1267.7,-2244.8 103.3,-96.3 206.6,-141.8 308.2,-138.3 92.8,3.5 213.6,61.3 360.7,173.3 166.4,136.5 334.5,274.9 502.5,415z"/>
   <path class="fil0" d="M9555.3 5403.4c-42,577.8 -194.3,1199.5 -457,1863.1 -246.9,618.1 -490.3,1041.9 -730.2,1267.7 -136.5,126.1 -274.9,189.1 -416.7,189.1 -157.6,0 -418.5,-127.8 -784.5,-381.7 -71.8,-49 -108.6,-98 -108.6,-150.6 0,-64.8 45.5,-98 138.4,-98 38.5,0 92.8,12.2 164.5,36.7 71.8,24.5 131.4,36.8 175.1,36.8 250.4,0 474.5,-159.4 672.4,-478 168.1,-273.1 327.4,-640.9 478,-1103.1 182.1,-574.3 260.9,-1069.9 236.4,-1483.1 -8.7,-197.9 -77,-297.7 -199.6,-297.7 -108.5,0 -243.4,75.3 -401,225.9 -1108.4,1061.1 -1889.3,2328.9 -2341.1,3805 -257.4,838.7 -427.2,1614.5 -513.1,2330.6 -3.5,24.5 -49,618.1 -138.3,1780.8 -14,168.1 -56,252.2 -124.3,252.2 -71.8,0 -199.6,-84.1 -385.2,-252.2 -133.1,-122.6 -183.9,-273.1 -154.1,-451.8 150.6,-1703.8 562.1,-3600.1 1236.2,-5690.8 530.5,-1635.5 950.8,-2694.8 1262.5,-3181.6 183.9,-283.7 348.5,-422 492.1,-415 143.6,3.5 418.5,131.3 821.2,383.5 54.3,33.3 82.3,70 82.3,106.8 0,50.8 -40.3,77 -122.6,77 -21,0 -56.1,-3.5 -103.3,-10.5 -47.3,-7 -84.1,-10.5 -106.8,-10.5 -215.4,0 -439.5,182.1 -672.4,548.1 -136.5,208.4 -309.9,556.8 -518.3,1048.9 -208.4,492 -359,896.5 -451.8,1213.4 504.3,-819.4 1089.1,-1523.4 1756.3,-2109.9 103.3,-89.3 196.2,-133.1 278.4,-133.1 36.8,0 131.3,50.8 281.9,154.1 465.7,164.6 682.9,472.8 653.1,928z"/>
   <path class="fil0" d="M4748.7 7007.3c0,618.1 -313.4,1115.4 -942.1,1490.1 -182.1,283.7 -415,425.5 -702.1,425.5 -509.5,-7 -1075.1,-234.6 -1700.2,-681.2 -537.5,-383.5 -907,-752.9 -1111.9,-1108.4 -194.4,-330.9 -292.4,-539.3 -292.4,-625.1 0,-105.1 77,-225.9 229.3,-359 141.8,-126.1 255.7,-189.1 336.2,-189.1 78.8,0 117.3,50.8 117.3,154.1 0,43.8 -8.7,98.1 -26.3,162.8 182.1,490.3 563.8,947.3 1148.7,1371.1 584.9,422 1113.7,633.9 1588.2,633.9 420.2,-3.5 630.3,-290.7 630.3,-861.5 0,-313.4 -243.4,-942.1 -730.2,-1884.1 -486.8,-940.3 -730.1,-1614.4 -730.1,-2022.4 0,-266.1 75.3,-504.3 224.1,-712.7 126.1,-173.3 346.7,-380 661.9,-619.9 57.8,-43.8 115.6,-66.5 173.3,-66.5 92.8,0 138.4,38.5 138.4,117.3 0,54.3 -29.8,112.1 -91.1,169.9 -260.9,248.6 -392.3,553.3 -392.3,912.3 0,399.2 245.1,1057.6 735.4,1976.9 490.3,917.6 735.4,1490.1 735.4,1716z"/>
   <path class="fil0" d="M6287.9 2302.3c-133.1,469.2 -315.2,875.5 -546.3,1220.4 -103.3,154.1 -201.4,231.2 -294.2,231.2 -89.3,0 -245.1,-73.5 -469.3,-220.6 -68.3,-45.5 -103.3,-91.1 -103.3,-138.3 0,-71.8 61.3,-124.3 182.1,-154.1 91.1,-28.1 192.6,-183.9 308.2,-467.5 106.8,-271.4 161.1,-483.3 161.1,-637.4 0,-161.1 -63,-241.6 -190.8,-241.6 -45.5,0 -101.6,7 -169.9,21 -134.8,21 -423.7,113.8 -868.5,278.4 -50.8,17.5 -98,26.3 -138.3,26.3 -103.3,0 -155.8,-35 -155.8,-103.3 0,-64.8 52.5,-124.3 159.3,-175.1 385.2,-192.6 763.5,-353.7 1138.2,-485.1 120.8,-43.8 206.6,-66.5 257.4,-66.5 78.8,0 182.1,108.5 308.2,327.4 192.6,59.6 311.7,101.6 355.5,129.6 75.3,43.8 113.8,112.1 113.8,204.8 0,64.8 -15.8,148.8 -47.3,250.4z"/>
   <path class="fil1" d="M6632.2 11620.9l226.1 54c-44.1,192.3 -110.5,339.5 -198.8,441.1 -88.1,101.9 -191.7,152.7 -310.3,152.7 -133.4,0 -237.8,-63.2 -312.9,-189.9 -75.1,-126.8 -112.7,-310.7 -112.7,-551.8 0,-195.5 25.2,-374.2 75.6,-536.6 50.4,-162.3 120.2,-286.7 209.7,-372.7 89.4,-85.9 186.6,-129.1 291.8,-129.1 118.4,0 213.8,50 286.9,149.5 73.1,100 115.9,235.5 128.8,407.9l-215.4 32.8c-12,-100.3 -34.9,-172.7 -68.7,-217.9 -33.8,-45.2 -78.9,-67.6 -135.4,-67.6 -61.9,0 -119.7,29.6 -173.4,89.1 -53.7,59.6 -96.5,152.7 -128.5,279.5 -32.3,126.4 -48.3,252.7 -48.3,379.1 0,137.9 20.8,244.7 62.6,319.9 41.7,75.2 93.9,112.7 156.1,112.7 58,0 111,-29.6 159.1,-89.1 48.3,-59.2 84.2,-147.2 107.9,-263.5z"/>
   <path id="_1" class="fil1" d="M7245 11340.2l-209.2 -27.6c23.9,-110.3 65.7,-196.3 125.2,-258.3 59.6,-62 138.2,-93.2 236.5,-93.2 102.1,0 177.7,32.4 226.3,96.8 48.8,64.7 73.3,143.6 73.3,236.7 0,37.6 -2.1,77.6 -6.4,119.6 -4.3,42.4 -19.1,153.5 -44.5,333.5 -21.1,148.7 -31.6,253.1 -31.6,312.7 0,53.2 6.1,112 18.1,177.1l-209 0c-8.1,-45.2 -13.2,-92.3 -15.3,-140.7 -31.3,54.8 -67.5,97.1 -108.2,127.2 -40.7,30 -82,44.8 -123.3,44.8 -65.7,0 -119.9,-34 -162.7,-102 -42.8,-68 -64.2,-155.2 -64.2,-261.9 0,-119.2 23.5,-214.7 70.5,-285.9 47.1,-71.6 131.1,-114.7 252.1,-129.5 102.1,-13.6 170.3,-29.6 204.6,-48.4 8.9,-47.2 13.5,-84.7 13.5,-112.7 0,-36.4 -9.2,-66.4 -27.8,-90.8 -18.3,-24.4 -45.8,-36.4 -82.2,-36.4 -38.2,0 -68.5,12 -90.7,36.4 -22.1,24 -37.4,58.4 -45.3,102.8zm203.9 314.3c-12.9,5.6 -30,10.8 -51.4,15.6 -107.5,20.4 -177.7,50.4 -210.5,90 -23.5,28.8 -35.2,67.2 -35.2,115.1 0,40 8.9,73.2 27,100.8 17.8,27.2 41.5,40.8 70.8,40.8 32.3,0 62.9,-12.4 91.4,-37.6 28.8,-24.8 50.2,-56.8 64.2,-96 14.2,-39.2 26.7,-100.3 37.6,-183.5l6.1 -45.2z"/>
   <path id="_2" class="fil1" d="M7764.6 11891.2l207.8 -52c18.3,69.1 41.2,117.9 68.4,146.7 27.3,28.4 64.2,42.8 111.3,42.8 48.6,0 87.6,-17.2 116.6,-52 20.3,-23.6 30.6,-52.8 30.6,-86.4 0,-23.2 -5.1,-43.6 -15.6,-61.6 -10.9,-17.2 -40.5,-38.4 -88.6,-63.6 -128.8,-67.2 -208.5,-120.7 -239.3,-160 -48.1,-60.8 -72.1,-140.7 -72.1,-239.5 0,-98.8 23.5,-183.9 70,-255.5 64.9,-99.6 161.4,-149.1 289.2,-149.1 101.8,0 178.7,29.6 230.7,88.4 52.2,58.8 85,138.3 99,238.7l-197 54.4c-10.4,-45.6 -27.3,-80 -50.4,-102.8 -31.9,-30.8 -69.8,-46 -114.3,-46 -44.6,0 -76.6,11.6 -96.2,35.2 -19.6,23.6 -29.2,50.8 -29.2,81.2 0,31.6 9.9,57.2 29.7,77.6 12.2,12.8 52.2,34.8 119.4,66 104.2,48 173.6,94.7 208.7,141.1 49.6,65.1 74.4,143.5 74.4,235.1 0,118.4 -31.6,221.1 -94.7,308.3 -62.9,86.8 -151.8,130.4 -266.5,130.4 -114.3,0 -202.4,-33.2 -264.8,-99.2 -62.4,-66 -104.6,-158.8 -127,-278.3z"/>
   <path id="_3" class="fil1" d="M8944.1 11340.2l-209.3 -27.6c24,-110.3 65.7,-196.3 125.2,-258.3 59.6,-62 138.3,-93.2 236.6,-93.2 102.1,0 177.7,32.4 226.3,96.8 48.8,64.7 73.3,143.6 73.3,236.7 0,37.6 -2,77.6 -6.4,119.6 -4.3,42.4 -19.1,153.5 -44.5,333.5 -21.1,148.7 -31.6,253.1 -31.6,312.7 0,53.2 6.1,112 18.1,177.1l-209 0c-8.1,-45.2 -13.2,-92.3 -15.3,-140.7 -31.3,54.8 -67.5,97.1 -108.2,127.2 -40.7,30 -82,44.8 -123.2,44.8 -65.7,0 -119.9,-34 -162.7,-102 -42.8,-68 -64.2,-155.2 -64.2,-261.9 0,-119.2 23.4,-214.7 70.5,-285.9 47.1,-71.6 131.1,-114.7 252.1,-129.5 102.1,-13.6 170.3,-29.6 204.6,-48.4 8.9,-47.2 13.5,-84.7 13.5,-112.7 0,-36.4 -9.1,-66.4 -27.7,-90.8 -18.3,-24.4 -45.9,-36.4 -82.2,-36.4 -38.2,0 -68.5,12 -90.7,36.4 -22.1,24 -37.4,58.4 -45.3,102.8zm203.9 314.3c-13,5.6 -30,10.8 -51.4,15.6 -107.5,20.4 -177.7,50.4 -210.6,90 -23.4,28.8 -35.1,67.2 -35.1,115.1 0,40 8.9,73.2 27,100.8 17.8,27.2 41.5,40.8 70.8,40.8 32.3,0 62.9,-12.4 91.4,-37.6 28.7,-24.8 50.2,-56.8 64.2,-96 14.3,-39.2 26.8,-100.3 37.7,-183.5l6.1 -45.2z"/>
   <polygon id="_4" class="fil1" points="10670.2,11469.8 10245.8,11469.8 10143.5,12237.5 9918.6,12237.5 10147.8,10519.8 10372.3,10519.8 10284,11181.9 10708.6,11181.9 10797,10519.8 11021.5,10519.8 10792.6,12237.5 10567.8,12237.5 "/>
   <path id="_5" class="fil1" d="M11050.8 11720.9c0,-231.5 41.3,-415.8 124,-553.4 82.8,-137.5 191.5,-206.3 326.1,-206.3 116.6,0 207.7,50.8 273.4,152.4 65.4,101.6 98.3,237.9 98.3,409.8 0,201.9 -41,377.1 -123,524.2 -81.9,147.6 -191.7,221.1 -329.1,221.1 -74.6,0 -140.8,-23.6 -198.3,-70.4 -57.5,-47.2 -100.6,-114 -128.8,-200 -28.3,-86.4 -42.6,-178.7 -42.6,-277.5zm609.5 -241.9c0,-80.4 -14.8,-144.7 -44.3,-193.1 -29.5,-48.4 -67.5,-72.8 -114,-72.8 -46.1,0 -87.1,22.8 -122.7,68 -35.7,45.2 -63.4,111.2 -83.3,197.1 -19.9,86.4 -29.8,166 -29.8,238.3 0,90 15.3,161.1 46.1,213.9 30.8,52.8 69.5,79.2 116.1,79.2 58.5,0 107.4,-40 147.1,-119.6 56.5,-112.3 84.8,-249.5 84.8,-411z"/>
   <path id="_6" class="fil1" d="M11940.8 12304.7l226.3 51.6c0,36 3.9,63.2 11.2,81.1 7.4,18.4 19.4,34 35.9,47.2 16.5,12.8 39.2,19.2 67.8,19.2 48.1,0 86.8,-14 115.8,-42.4 21.6,-22 39.5,-57.2 53.2,-105.9 8.4,-30.4 19.3,-97.2 32.5,-200l7.7 -58.4c-77.9,96.7 -158.6,145.1 -241.9,145.1 -77.6,0 -141.2,-43.2 -190.9,-129.1 -49.6,-86 -74.6,-212.3 -74.6,-378.3 0,-146.3 16.8,-280.7 50.7,-402.6 33.8,-121.9 81.5,-214.3 142.8,-277.1 61.1,-62.8 123.7,-94 187.4,-94 52.4,0 100.5,22 144.4,66 43.5,44.4 77.4,106 101.8,185.5l27.8 -220.3 201.3 0 -126.2 1040.8c-22.9,165.9 -42.3,284.3 -58.1,355.5 -15.8,70.8 -33.8,127.1 -54.2,169.1 -20.1,42.4 -45.8,77.6 -76.9,106 -31.1,28.4 -67.5,48.8 -109.7,61.2 -42.2,12.4 -87.8,18.8 -137.2,18.8 -111.8,0 -196.3,-30 -253.3,-89.9 -57,-60.4 -85.8,-160.4 -85.8,-299.9 0,-14.8 0.7,-31.2 2.3,-49.2zm252.3 -603.8c0,95.2 13.5,167.6 40.5,217.1 27,50 60.8,74.8 101.6,74.8 38.2,0 75.1,-22.4 111,-67.2 35.9,-44.8 63.4,-108 82.5,-190.3 19.1,-82.4 28.7,-162 28.7,-239.1 0,-88.4 -15.8,-160 -46.9,-213.9 -31.3,-54 -67.4,-81.2 -108.4,-81.2 -38.4,0 -73.5,24 -105.6,71.6 -32.1,48 -58.5,121.5 -79.4,221.5 -16,76.8 -24,145.5 -24,206.7z"/>
   <path id="_7" class="fil1" d="M13187.2 11340.2l-209.2 -27.6c23.9,-110.3 65.7,-196.3 125.2,-258.3 59.6,-62 138.2,-93.2 236.5,-93.2 102.1,0 177.7,32.4 226.3,96.8 48.8,64.7 73.3,143.6 73.3,236.7 0,37.6 -2,77.6 -6.4,119.6 -4.3,42.4 -19.1,153.5 -44.5,333.5 -21.1,148.7 -31.6,253.1 -31.6,312.7 0,53.2 6.1,112 18.1,177.1l-209 0c-8.1,-45.2 -13.2,-92.3 -15.3,-140.7 -31.3,54.8 -67.5,97.1 -108.2,127.2 -40.7,30 -81.9,44.8 -123.2,44.8 -65.7,0 -119.9,-34 -162.7,-102 -42.8,-68 -64.2,-155.2 -64.2,-261.9 0,-119.2 23.4,-214.7 70.5,-285.9 47.1,-71.6 131.1,-114.7 252.1,-129.5 102.1,-13.6 170.3,-29.6 204.6,-48.4 8.9,-47.2 13.5,-84.7 13.5,-112.7 0,-36.4 -9.1,-66.4 -27.7,-90.8 -18.3,-24.4 -45.9,-36.4 -82.2,-36.4 -38.2,0 -68.5,12 -90.7,36.4 -22.1,24 -37.4,58.4 -45.3,102.8zm203.9 314.3c-13,5.6 -30,10.8 -51.4,15.6 -107.5,20.4 -177.7,50.4 -210.6,90 -23.4,28.8 -35.1,67.2 -35.1,115.1 0,40 8.9,73.2 27,100.8 17.8,27.2 41.5,40.8 70.8,40.8 32.3,0 62.9,-12.4 91.4,-37.6 28.8,-24.8 50.2,-56.8 64.2,-96 14.3,-39.2 26.8,-100.3 37.7,-183.5l6.1 -45.2z"/>
   <path id="_8" class="fil1" d="M13888.1 10992.4l201.1 0 -30.3 234.3c73.8,-177.1 153.8,-265.5 240.1,-265.5 30.5,0 63.4,12 98.2,36.4l-82.5 275.1c-19.4,-10.8 -40.2,-16.4 -62.1,-16.4 -36.9,0 -74.3,22 -112.5,66 -38.1,44 -68,102.3 -89.3,175.9 -21.6,73.2 -42.8,189.5 -63.7,348.7l-51.2 390.6 -213.8 0 166 -1245.1z"/>
   <path id="_9" class="fil1" d="M14910.5 10992.4l202.9 0 -16 126.8c43.3,-56.4 84,-97.2 121.9,-121.6 37.7,-24.4 78.4,-36.4 121.7,-36.4 83.3,0 150.2,45.2 200.9,135.2 50.7,90.4 75.9,224.7 75.9,403.5 0,224.7 -43.8,415 -131.4,570.1 -74.9,132.3 -163.7,198.8 -266.3,198.8 -105.6,0 -185.3,-66.4 -239.3,-199.2l-84.2 643 -213.6 0 227.6 -1720.2zm128.3 714.1c0,98.3 15.3,174.7 45.6,228.7 30.6,54.4 66.2,81.6 107.5,81.6 35.6,0 70,-20.4 103.1,-60.8 33.1,-40.8 60.6,-108 82.2,-202.3 21.9,-94 32.9,-181.5 32.9,-261.9 0,-93.6 -14.3,-165.5 -43.1,-215.5 -28.5,-50 -64.9,-75.2 -108.9,-75.2 -41.2,0 -78.7,22.8 -112.5,68.8 -33.9,46 -60.1,113.6 -78.7,202.7 -18.6,89.2 -28,167.1 -28,233.9z"/>
   <path id="_10" class="fil1" d="M15988.6 11340.2l-209.2 -27.6c23.9,-110.3 65.7,-196.3 125.2,-258.3 59.6,-62 138.2,-93.2 236.5,-93.2 102.1,0 177.7,32.4 226.3,96.8 48.8,64.7 73.3,143.6 73.3,236.7 0,37.6 -2,77.6 -6.4,119.6 -4.3,42.4 -19.1,153.5 -44.5,333.5 -21.1,148.7 -31.6,253.1 -31.6,312.7 0,53.2 6.1,112 18.1,177.1l-209 0c-8.1,-45.2 -13.2,-92.3 -15.3,-140.7 -31.3,54.8 -67.5,97.1 -108.2,127.2 -40.7,30 -81.9,44.8 -123.2,44.8 -65.7,0 -119.9,-34 -162.7,-102 -42.8,-68 -64.2,-155.2 -64.2,-261.9 0,-119.2 23.4,-214.7 70.5,-285.9 47.1,-71.6 131.1,-114.7 252.1,-129.5 102.1,-13.6 170.3,-29.6 204.6,-48.4 8.9,-47.2 13.5,-84.7 13.5,-112.7 0,-36.4 -9.1,-66.4 -27.7,-90.8 -18.3,-24.4 -45.9,-36.4 -82.2,-36.4 -38.2,0 -68.5,12 -90.7,36.4 -22.1,24 -37.4,58.4 -45.3,102.8zm203.9 314.3c-13,5.6 -30,10.8 -51.4,15.6 -107.5,20.4 -177.7,50.4 -210.6,90 -23.4,28.8 -35.1,67.2 -35.1,115.1 0,40 8.9,73.2 27,100.8 17.8,27.2 41.5,40.8 70.8,40.8 32.3,0 62.9,-12.4 91.4,-37.6 28.8,-24.8 50.2,-56.8 64.2,-96 14.3,-39.2 26.8,-100.3 37.7,-183.5l6.1 -45.2z"/>
   <path id="_11" class="fil1" d="M16689.5 10992.4l201.1 0 -30.3 234.3c73.8,-177.1 153.8,-265.5 240.1,-265.5 30.5,0 63.4,12 98.2,36.4l-82.5 275.1c-19.4,-10.8 -40.2,-16.4 -62.1,-16.4 -36.9,0 -74.3,22 -112.5,66 -38.2,44 -68,102.3 -89.3,175.9 -21.6,73.2 -42.8,189.5 -63.7,348.7l-51.2 390.6 -213.8 0 166 -1245.1z"/>
   <path id="_12" class="fil1" d="M17432.6 11340.2l-209.2 -27.6c23.9,-110.3 65.7,-196.3 125.2,-258.3 59.6,-62 138.2,-93.2 236.5,-93.2 102.1,0 177.7,32.4 226.3,96.8 48.8,64.7 73.3,143.6 73.3,236.7 0,37.6 -2.1,77.6 -6.4,119.6 -4.3,42.4 -19.1,153.5 -44.5,333.5 -21.1,148.7 -31.6,253.1 -31.6,312.7 0,53.2 6.1,112 18.1,177.1l-209 0c-8.1,-45.2 -13.2,-92.3 -15.3,-140.7 -31.4,54.8 -67.5,97.1 -108.2,127.2 -40.7,30 -82,44.8 -123.3,44.8 -65.7,0 -119.9,-34 -162.7,-102 -42.8,-68 -64.2,-155.2 -64.2,-261.9 0,-119.2 23.5,-214.7 70.5,-285.9 47.1,-71.6 131.1,-114.7 252.1,-129.5 102.1,-13.6 170.3,-29.6 204.6,-48.4 8.9,-47.2 13.5,-84.7 13.5,-112.7 0,-36.4 -9.2,-66.4 -27.8,-90.8 -18.3,-24.4 -45.8,-36.4 -82.2,-36.4 -38.2,0 -68.5,12 -90.7,36.4 -22.1,24 -37.4,58.4 -45.3,102.8zm203.9 314.3c-12.9,5.6 -30,10.8 -51.4,15.6 -107.5,20.4 -177.7,50.4 -210.5,90 -23.5,28.8 -35.2,67.2 -35.2,115.1 0,40 8.9,73.2 27,100.8 17.8,27.2 41.5,40.8 70.8,40.8 32.3,0 62.9,-12.4 91.4,-37.6 28.8,-24.8 50.2,-56.8 64.2,-96 14.2,-39.2 26.7,-100.3 37.6,-183.5l6.1 -45.2z"/>
   <polygon id="_13" class="fil1" points="18402.6,12237.5 18631.7,10519.8 18845.3,10519.8 18616.5,12237.5 "/>
   <path id="_14" class="fil1" d="M19130.9 11340.2l-209.2 -27.6c23.9,-110.3 65.7,-196.3 125.2,-258.3 59.6,-62 138.2,-93.2 236.5,-93.2 102.1,0 177.7,32.4 226.3,96.8 48.8,64.7 73.3,143.6 73.3,236.7 0,37.6 -2,77.6 -6.4,119.6 -4.3,42.4 -19.1,153.5 -44.5,333.5 -21.1,148.7 -31.6,253.1 -31.6,312.7 0,53.2 6.1,112 18.1,177.1l-209 0c-8.1,-45.2 -13.2,-92.3 -15.3,-140.7 -31.3,54.8 -67.5,97.1 -108.2,127.2 -40.7,30 -81.9,44.8 -123.2,44.8 -65.7,0 -119.9,-34 -162.7,-102 -42.8,-68 -64.2,-155.2 -64.2,-261.9 0,-119.2 23.4,-214.7 70.5,-285.9 47.1,-71.6 131.1,-114.7 252.1,-129.5 102.1,-13.6 170.3,-29.6 204.6,-48.4 8.9,-47.2 13.5,-84.7 13.5,-112.7 0,-36.4 -9.1,-66.4 -27.7,-90.8 -18.3,-24.4 -45.8,-36.4 -82.2,-36.4 -38.2,0 -68.5,12 -90.7,36.4 -22.1,24 -37.4,58.4 -45.3,102.8zm203.9 314.3c-13,5.6 -30,10.8 -51.4,15.6 -107.5,20.4 -177.7,50.4 -210.6,90 -23.4,28.8 -35.1,67.2 -35.1,115.1 0,40 8.9,73.2 27,100.8 17.8,27.2 41.5,40.8 70.8,40.8 32.3,0 62.9,-12.4 91.4,-37.6 28.8,-24.8 50.2,-56.8 64.2,-96 14.3,-39.2 26.8,-100.3 37.7,-183.5l6.1 -45.2z"/>
   <polygon id="_15" class="fil1" points="20579.7,12237.5 20355,12237.5 20545.7,10807.6 20224.7,10807.6 20261.3,10519.8 21122.8,10519.8 21086.1,10807.6 20770.5,10807.6 "/>
   <path id="_16" class="fil1" d="M21750.3 11719.3l-537.9 0c-0.5,13.2 -0.7,23.6 -0.7,30.8 0,83.6 15.3,150.8 45.6,201.9 30.3,51.2 67.5,76.8 111,76.8 71.8,0 127.8,-57.6 168.1,-172.7l190.9 50.4c-37.4,120.7 -87.3,211.1 -150,271.5 -62.6,60.3 -132.6,90.8 -210.5,90.8 -106.7,0 -193.5,-53.2 -260.2,-159.2 -67,-106.4 -100.3,-246.7 -100.3,-421.8 0,-170.7 30,-322.7 90.4,-456.2 82,-180.4 199.3,-270.3 351.6,-270.3 97,0 174.1,47.2 231.4,141.6 57.3,94.3 85.8,226.7 85.8,396.7 0,81.5 -5.1,154.7 -15,219.9zm-180.5 -204c0.5,-15.2 0.8,-26.4 0.8,-34.4 0,-93.1 -13.2,-163.1 -39.8,-209.9 -26.2,-46.8 -61.6,-70 -106.1,-70 -44.3,0 -84,26.4 -119.2,79.6 -35.1,52.7 -58.8,131.1 -71.3,234.7l335.5 0z"/>
   <path id="_17" class="fil1" d="M21982 10992.4l201.1 0 -30.3 234.3c73.8,-177.1 153.8,-265.5 240.1,-265.5 30.5,0 63.4,12 98.3,36.4l-82.5 275.1c-19.4,-10.8 -40.2,-16.4 -62.1,-16.4 -36.9,0 -74.4,22 -112.5,66 -38.2,44 -68,102.3 -89.4,175.9 -21.6,73.2 -42.8,189.5 -63.6,348.7l-51.2 390.6 -213.8 0 166 -1245.1z"/>
   <path id="_18" class="fil1" d="M22958.9 11769.7l207.8 52.8c-34.4,145.5 -84.8,256.3 -152,332.3 -67,76 -144.6,114 -232.9,114 -100.8,0 -180.7,-47.6 -239.9,-142.4 -59,-94.8 -88.5,-225.1 -88.5,-391.5 0,-135.5 17.8,-263.9 53.7,-384.7 35.7,-120.7 89.6,-215.5 161.7,-285 72.1,-69.2 151,-104 237,-104 93.4,0 168,38.4 223.5,115.6 55.8,76.8 87.1,177.9 94,303.5l-203.2 34.4c-5.1,-70 -18.6,-121.5 -40.7,-154.3 -22.2,-33.2 -51,-49.6 -86.8,-49.6 -41.3,0 -80,24.4 -115.6,72.7 -35.9,48.8 -63.4,121.6 -82.5,218.3 -19.1,96.8 -28.7,187.5 -28.7,272.3 0,74 11.5,130.8 34.1,170.7 22.9,40 51.4,60 85.8,60 34.1,0 67.2,-19.6 99.1,-58.8 31.6,-39.2 56.5,-98 74.3,-176.4z"/>
   <path id="_19" class="fil1" d="M24043.9 11719.3l-537.9 0c-0.5,13.2 -0.7,23.6 -0.7,30.8 0,83.6 15.3,150.8 45.6,201.9 30.3,51.2 67.5,76.8 111,76.8 71.8,0 127.8,-57.6 168.1,-172.7l190.9 50.4c-37.4,120.7 -87.3,211.1 -150,271.5 -62.6,60.3 -132.6,90.8 -210.5,90.8 -106.7,0 -193.5,-53.2 -260.2,-159.2 -67,-106.4 -100.3,-246.7 -100.3,-421.8 0,-170.7 30,-322.7 90.4,-456.2 82,-180.4 199.4,-270.3 351.6,-270.3 97,0 174.1,47.2 231.4,141.6 57.3,94.3 85.8,226.7 85.8,396.7 0,81.5 -5.1,154.7 -15,219.9zm-180.5 -204c0.5,-15.2 0.8,-26.4 0.8,-34.4 0,-93.1 -13.2,-163.1 -39.7,-209.9 -26.2,-46.8 -61.6,-70 -106.2,-70 -44.3,0 -84,26.4 -119.2,79.6 -35.1,52.7 -58.8,131.1 -71.3,234.7l335.5 0z"/>
   <path id="_20" class="fil1" d="M24275.6 10992.4l201.1 0 -30.3 234.3c73.8,-177.1 153.8,-265.5 240.1,-265.5 30.5,0 63.4,12 98.3,36.4l-82.5 275.1c-19.4,-10.8 -40.2,-16.4 -62.1,-16.4 -36.9,0 -74.3,22 -112.5,66 -38.2,44 -68,102.3 -89.4,175.9 -21.6,73.2 -42.7,189.5 -63.6,348.7l-51.2 390.6 -213.8 0 166 -1245.1z"/>
   <path id="_21" class="fil1" d="M25018.7 11340.2l-209.3 -27.6c24,-110.3 65.7,-196.3 125.2,-258.3 59.6,-62 138.3,-93.2 236.5,-93.2 102.1,0 177.7,32.4 226.3,96.8 48.9,64.7 73.3,143.6 73.3,236.7 0,37.6 -2,77.6 -6.4,119.6 -4.3,42.4 -19.1,153.5 -44.5,333.5 -21.1,148.7 -31.6,253.1 -31.6,312.7 0,53.2 6.2,112 18.1,177.1l-209 0c-8.1,-45.2 -13.2,-92.3 -15.3,-140.7 -31.3,54.8 -67.5,97.1 -108.2,127.2 -40.7,30 -82,44.8 -123.2,44.8 -65.7,0 -119.9,-34 -162.7,-102 -42.8,-68 -64.2,-155.2 -64.2,-261.9 0,-119.2 23.4,-214.7 70.5,-285.9 47.1,-71.6 131.1,-114.7 252.1,-129.5 102,-13.6 170.3,-29.6 204.6,-48.4 8.9,-47.2 13.5,-84.7 13.5,-112.7 0,-36.4 -9.1,-66.4 -27.7,-90.8 -18.4,-24.4 -45.9,-36.4 -82.2,-36.4 -38.2,0 -68.5,12 -90.7,36.4 -22.1,24 -37.4,58.4 -45.3,102.8zm203.9 314.3c-12.9,5.6 -30,10.8 -51.4,15.6 -107.4,20.4 -177.7,50.4 -210.5,90 -23.4,28.8 -35.1,67.2 -35.1,115.1 0,40 8.9,73.2 27,100.8 17.8,27.2 41.5,40.8 70.8,40.8 32.3,0 62.9,-12.4 91.4,-37.6 28.7,-24.8 50.2,-56.8 64.2,-96 14.3,-39.2 26.7,-100.3 37.7,-183.5l6.1 -45.2z"/>
   <polygon id="_22" class="fil1" points="25991.7,12237.5 26220.8,10519.8 27030.4,10519.8 26992.2,10807.6 26406.9,10807.6 26353.2,11196.3 26920.4,11196.3 26882.2,11484.2 26313.3,11484.2 26248.6,11949.6 26883.8,11949.6 26845.6,12237.5 "/>
   <path id="_23" class="fil1" d="M27740.4 12237.5l-202.9 0 17.8 -133.1c-38.7,58.8 -76.9,100.7 -114.6,126.3 -37.4,25.2 -79.7,38 -127,38 -82,0 -148.4,-44 -199.3,-132.3 -50.9,-88 -76.4,-218.3 -76.4,-391.1 0,-199.9 36.4,-380.3 109,-541.8 72.5,-161.5 168.5,-242.3 287.9,-242.3 108,0 188.9,66.8 242.9,200.7l88.8 -642.1 213.6 0 -239.8 1717.7zm-494.6 -505.4c0,89.1 14.5,159.1 43.3,209.5 29,50 64.6,75.2 106.9,75.2 39.2,0 75.9,-20.8 109.7,-62.8 34.1,-42 61.1,-106.3 81.5,-192.7 20.3,-86 30.5,-168.7 30.5,-248.3 0,-90 -15.5,-163.2 -46.6,-218.7 -31.3,-55.6 -67.2,-83.6 -108,-83.6 -63.4,0 -115.6,54.8 -156.3,164.7 -40.7,109.9 -61.1,228.7 -61.1,356.7z"/>
   <path id="_24" class="fil1" d="M28244.5 11340.2l-209.2 -27.6c23.9,-110.3 65.7,-196.3 125.2,-258.3 59.6,-62 138.2,-93.2 236.5,-93.2 102.1,0 177.7,32.4 226.3,96.8 48.8,64.7 73.3,143.6 73.3,236.7 0,37.6 -2.1,77.6 -6.4,119.6 -4.3,42.4 -19.1,153.5 -44.5,333.5 -21.1,148.7 -31.6,253.1 -31.6,312.7 0,53.2 6.1,112 18.1,177.1l-209 0c-8.1,-45.2 -13.2,-92.3 -15.3,-140.7 -31.4,54.8 -67.5,97.1 -108.2,127.2 -40.7,30 -82,44.8 -123.3,44.8 -65.7,0 -119.9,-34 -162.7,-102 -42.8,-68 -64.2,-155.2 -64.2,-261.9 0,-119.2 23.5,-214.7 70.5,-285.9 47.1,-71.6 131.1,-114.7 252.1,-129.5 102.1,-13.6 170.3,-29.6 204.6,-48.4 8.9,-47.2 13.5,-84.7 13.5,-112.7 0,-36.4 -9.2,-66.4 -27.8,-90.8 -18.3,-24.4 -45.8,-36.4 -82.2,-36.4 -38.2,0 -68.5,12 -90.7,36.4 -22.1,24 -37.4,58.4 -45.3,102.8zm203.9 314.3c-12.9,5.6 -30,10.8 -51.4,15.6 -107.5,20.4 -177.7,50.4 -210.5,90 -23.5,28.8 -35.2,67.2 -35.2,115.1 0,40 8.9,73.2 27,100.8 17.8,27.2 41.5,40.8 70.8,40.8 32.3,0 62.9,-12.4 91.4,-37.6 28.8,-24.8 50.2,-56.8 64.2,-96 14.2,-39.2 26.7,-100.3 37.6,-183.5l6.1 -45.2z"/>
   <path id="_25" class="fil1" d="M29523 12237.5l-202.9 0 17.8 -133.1c-38.7,58.8 -76.9,100.7 -114.6,126.3 -37.4,25.2 -79.7,38 -127.1,38 -82,0 -148.4,-44 -199.3,-132.3 -50.9,-88 -76.4,-218.3 -76.4,-391.1 0,-199.9 36.4,-380.3 109,-541.8 72.5,-161.5 168.5,-242.3 287.9,-242.3 108,0 188.9,66.8 242.9,200.7l88.8 -642.1 213.6 0 -239.8 1717.7zm-494.6 -505.4c0,89.1 14.5,159.1 43.3,209.5 29,50 64.6,75.2 106.9,75.2 39.2,0 75.9,-20.8 109.7,-62.8 34.1,-42 61.1,-106.3 81.5,-192.7 20.3,-86 30.5,-168.7 30.5,-248.3 0,-90 -15.5,-163.2 -46.6,-218.7 -31.3,-55.6 -67.2,-83.6 -107.9,-83.6 -63.4,0 -115.6,54.8 -156.4,164.7 -40.7,109.9 -61.1,228.7 -61.1,356.7z"/>
  </g>
 </g>
</svg>
