<?xml version="1.0" encoding="UTF-8"?>
<!DOCTYPE svg PUBLIC "-//W3C//DTD SVG 1.1//EN" "http://www.w3.org/Graphics/SVG/1.1/DTD/svg11.dtd">
<!-- Creator: CorelDRAW -->
<svg xmlns="http://www.w3.org/2000/svg" xml:space="preserve" width="63.2981mm" height="28.5466mm" version="1.1" style="shape-rendering:geometricPrecision; text-rendering:geometricPrecision; image-rendering:optimizeQuality; fill-rule:evenodd; clip-rule:evenodd"
viewBox="0 0 53222.9 24002.8"
 xmlns:xlink="http://www.w3.org/1999/xlink"
 xmlns:xodm="http://www.corel.com/coreldraw/odm/2003">
 <defs>
  <style type="text/css">
   <![CDATA[
    .str0 {stroke:#FAF2D3;stroke-width:1186.5;stroke-miterlimit:22.9256}
    .str1 {stroke:#FAF2D3;stroke-width:1186.5;stroke-miterlimit:22.9256}
    .str2 {stroke:#008DCE;stroke-width:64.1;stroke-miterlimit:22.9256}
    .fil2 {fill:none;fill-rule:nonzero}
    .fil1 {fill:#373535;fill-rule:nonzero}
    .fil0 {fill:#008DCE;fill-rule:nonzero}
   ]]>
  </style>
 </defs>
 <g id="Capa_x0020_1">
  <metadata id="CorelCorpID_0Corel-Layer"/>
  <g id="_1516965653136">
   <path class="fil0 str0" d="M52629.6 8619.1c0,760.3 -101.3,1487.8 -307.1,2179.4 -62.6,208.7 -152,313 -262.3,313 -83.5,0 -262.3,-116.3 -542.6,-348.9 -140.2,-116.3 -175.9,-283.2 -104.3,-497.9 166.9,-530.7 250.4,-957 250.4,-1276 0,-110.3 -23.9,-167 -71.6,-167 -68.5,0 -181.9,104.3 -339.9,316.1 -1213.4,1577.1 -2122.8,3351 -2725,5312.8 -190.8,623.1 -354.7,936.1 -488.9,936.1 -53.6,0 -283.2,-101.3 -691.7,-307.1 -199.8,-98.4 -265.4,-292.2 -202.7,-578.4 459.1,-2018.3 951.1,-3720.7 1478.8,-5110 -432.4,456.1 -706.6,766.2 -822.8,936.1 -44.7,68.6 -110.3,104.3 -190.9,104.3 -98.4,0 -149.1,-44.6 -149.1,-131.2 0,-50.7 23.9,-110.3 68.6,-172.9 286.2,-342.9 667.8,-864.6 1144.9,-1568.2 146.1,-253.4 292.1,-381.6 438.2,-381.6 104.3,0 316,80.5 635,244.4 181.9,92.4 211.7,217.7 89.5,375.7 -128.2,169.9 -369.7,766.2 -724.5,1791.8 -339.9,995.7 -572.4,1773.9 -700.7,2340.3 796,-1764.9 1699.4,-3321.2 2710.1,-4671.7 193.8,-256.4 348.8,-384.6 465.1,-384.6 104.3,0 247.5,71.6 429.3,214.7 247.5,29.8 399.5,65.6 465.1,113.3 98.4,68.6 149.1,208.7 149.1,417.4z"/>
   <path class="fil0 str0" d="M46441.2 9582.1c-11.9,518.8 -137.1,1207.4 -375.6,2063.1 -378.6,1353.6 -915.3,2400 -1607,3148.3 -369.7,396.5 -775.2,593.3 -1225.3,593.3 -175.9,0 -399.5,-38.8 -673.8,-113.3 -545.6,-35.8 -992.8,-205.8 -1335.7,-515.8 -372.7,-336.9 -548.6,-769.2 -524.7,-1299.9 23.8,-617.1 235.5,-1475.7 637.9,-2581.8 441.3,-1204.4 903.4,-2072 1380.4,-2599.7 226.6,-256.5 414.4,-384.6 560.5,-384.6 196.8,0 518.8,199.7 960,602.2 122.3,-59.6 372.7,-166.9 751.4,-325 193.7,-65.6 339.9,-98.4 438.2,-98.4 226.5,0 479.9,211.7 760.2,638 181.9,262.3 265.4,554.5 253.4,873.5zm-1007.6 259.4c38.8,-390.6 59.6,-638 59.6,-742.4 0,-244.5 -74.6,-366.7 -226.6,-366.7 -56.7,0 -134.2,11.9 -226.6,35.7l-1350.5 548.6c-158,62.6 -247.5,95.4 -271.3,95.4 -44.7,0 -92.5,-56.7 -137.1,-167 -336.9,414.4 -653,1013.7 -942.1,1794.8 -226.6,611.1 -384.6,1159.7 -471,1642.6 -62.6,328 -95.4,623.1 -95.4,891.4 0,897.4 277.3,1335.7 828.8,1311.8 220.6,-6 459.2,-92.4 712.6,-262.3 488.9,-331 945.1,-995.8 1368.4,-1991.5 408.5,-939.1 655.9,-1869.3 751.4,-2790.5z"/>
   <path class="fil0 str0" d="M44457.7 1595.1c68.6,53.6 104.3,110.3 104.3,172.9 0,110.3 -68.5,167 -208.7,167 -53.6,0 -107.3,-14.9 -166.9,-41.7 -271.3,-128.2 -477,-190.9 -611.2,-190.9 -357.8,0 -757.3,354.8 -1192.5,1064.3 -1600.9,2614.6 -2766.7,6093.9 -3497.1,10443.7 149.1,-146.1 354.7,-375.7 611.2,-682.8 149,-181.9 262.3,-271.3 330.9,-271.3 158.1,0 173,89.4 44.7,271.3 -560.5,772.2 -930.1,1607 -1112,2501.4 -68.6,214.7 -158.1,322 -262.4,322 -50.6,0 -116.2,-26.8 -190.8,-77.5 -292.2,-199.7 -456.1,-316 -491.9,-348.8 -116.3,-110.3 -175.9,-259.4 -175.9,-444.2 0,-98.4 14.9,-214.7 44.7,-348.9 250.4,-1341.6 459.1,-2343.3 623.1,-2999.2 -572.4,819.9 -1219.4,1636.8 -1937.9,2453.7 -721.5,816.9 -1246.2,1332.6 -1574.1,1547.3 -250.5,169.9 -435.3,253.4 -560.5,253.4 -104.3,0 -265.4,-83.5 -480,-253.4 -378.6,-232.6 -569.4,-503.8 -569.4,-811 0,-53.6 6,-110.2 17.9,-175.9 122.2,-864.5 512.7,-1869.2 1168.7,-3014.1 655.8,-1141.8 1410.2,-2104.8 2253.8,-2882.9 277.3,-256.4 521.7,-381.6 736.4,-375.6 229.5,11.9 635.1,289.2 1219.4,834.8 50.7,47.7 77.5,98.4 77.5,152 0,92.4 -62.6,140.1 -184.8,140.1 -38.8,0 -83.5,-11.9 -131.2,-35.7 -408.5,-173 -739.4,-169.9 -995.8,17.9 -548.6,408.4 -1153.8,1115 -1812.7,2122.7 -763.2,1165.7 -1213.4,2212.1 -1347.6,3145.3 -29.8,220.6 29.8,331 175.9,331 193.8,0 429.3,-137.1 709.6,-411.4 650,-635 1347.6,-1431 2095.9,-2394 766.2,-995.8 1255.1,-1747.1 1472.7,-2253.9 122.3,-280.2 217.7,-548.6 286.2,-804.9 605.2,-2143.6 1279,-3974.1 2021.4,-5494.6 581.3,-1186.6 1091.2,-1985.5 1532.4,-2394 164,-158 319,-235.5 471,-235.5 161,0 369.7,95.4 626.1,286.2 289.2,238.5 584.4,477 879.5,715.5z"/>
   <path class="fil0 str0" d="M32791.8 12044.6c-348.9,527.7 -802,1296.9 -1359.5,2304.6 -104.3,262.3 -205.7,521.7 -307.1,784.1 -80.5,181.9 -187.8,271.3 -322,271.3 -104.3,0 -259.4,-44.6 -462.1,-131.2 -226.6,-92.4 -339.9,-184.8 -339.9,-280.2 0,-38.8 38.8,-128.1 113.3,-268.3 378.6,-769.2 718.5,-1726.2 1016.6,-2871 319,-1201.5 456.1,-2122.8 411.4,-2754.8 -11.9,-256.4 -71.6,-384.5 -175.9,-384.5 -74.5,0 -190.8,71.5 -339.9,217.6 -1469.9,1431 -2739.8,3345.1 -3810.1,5742 -134.2,295.2 -292.2,444.3 -471.1,444.3 -128.1,0 -342.8,-71.6 -637.9,-217.7 -119.3,-53.6 -178.9,-101.3 -184.9,-149.1 0,-23.8 32.8,-104.3 95.4,-244.4 336.8,-736.4 670.8,-1672.6 1001.7,-2805.4 354.8,-1228.4 557.6,-2185.4 602.3,-2871.1 11.9,-208.7 6,-313 -17.9,-313 -6,0 -86.4,77.5 -244.4,232.6 -158.1,155 -375.7,354.7 -655.9,602.2 -53.6,50.7 -110.3,77.5 -175.9,77.5 -80.5,0 -122.3,-32.8 -122.3,-95.3 0,-47.8 29.8,-98.4 86.5,-158.1 250.4,-319 578.3,-715.5 986.8,-1189.5 86.4,-98.4 175.9,-149.1 268.3,-149.1 140.1,0 262.3,101.4 366.7,304.1 471,140.1 691.7,354.7 661.9,646.9 -62.6,641 -390.6,1794.7 -980.9,3464.3 390.6,-751.3 957,-1592 1702.3,-2519.2 745.4,-930.2 1296.9,-1478.8 1657.7,-1648.7 181.8,-80.5 310,-122.3 384.6,-122.3 74.5,0 196.8,65.6 366.7,196.8 483,170 724.5,447.2 724.5,837.8 0,408.5 -98.4,1061.4 -295.1,1964.7 -158.1,745.4 -304.1,1323.7 -438.3,1735.1 169.9,-214.7 384.6,-494.9 644,-837.7 44.7,-56.7 92.4,-86.4 137.1,-86.4 86.4,0 131.2,56.6 131.2,166.9 0,32.8 -6,68.6 -17.8,104.3z"/>
   <path class="fil0 str0" d="M25478.5 12667.8c-1419.2,1812.7 -2414.9,2719 -2993.3,2719 -274.3,0 -620.1,-190.9 -1040.5,-569.5 -438.2,-205.7 -655.8,-479.9 -655.8,-822.8 0,-65.6 6,-131.2 17.8,-202.7 104.3,-799 319,-1684.4 644,-2653.4 -214.7,-110.3 -322,-217.6 -322,-316 0,-80.6 59.6,-122.3 181.9,-122.3 95.3,0 190.8,26.8 289.2,80.5 515.8,-1159.8 980.8,-1985.5 1392.3,-2474.5 268.3,-325 506.8,-486 721.4,-486 98.4,0 342.9,83.5 733.5,253.4 -29.8,-175.9 20.9,-277.2 149,-307.1 6,0 143.1,0 411.5,0 253.3,0 378.6,44.7 378.6,131.2 0,17.9 -9,65.6 -26.9,149.1 -17.8,80.5 -26.8,158 -26.8,226.6 0,208.7 3,468.1 9,778.1 6,307.1 8.9,515.8 8.9,620.1 0,721.5 -196.8,1225.3 -593.3,1511.6 -360.7,262.3 -769.2,393.5 -1222.3,393.5 -238.5,0 -632.1,-65.6 -1186.6,-193.7 -98.4,178.8 -208.7,530.6 -331,1055.4 -164,661.8 -238.5,1249.1 -226.6,1762 6,301.1 101.4,453.1 289.2,453.1 68.5,0 158,-17.9 271.3,-53.6 673.8,-235.5 1615.9,-963 2820.4,-2176.4 77.5,-74.5 152,-113.3 226.5,-113.3 110.3,0 167,53.6 167,158 0,62.6 -29.8,131.2 -86.4,199.8zm-1022.6 -3863.9c0,-226.6 -50.7,-339.9 -149.1,-339.9 -62.6,0 -158,47.7 -280.2,140.2 -572.4,459.1 -1073.2,1267 -1505.6,2417.8 116.3,17.9 319,35.8 611.2,53.7 471,17.8 822.8,-89.5 1055.4,-322 172.9,-175.9 268.3,-465.1 286.2,-864.5 -11.9,295.1 -17.9,-65.6 -17.9,-1085.3z"/>
   <path class="fil0 str1" d="M24503.6 1604c74.6,59.6 113.3,119.2 113.3,181.9 0,110.3 -65.6,167 -199.8,167 -59.6,0 -119.2,-17.9 -184.8,-50.7 -268.3,-134.2 -468.1,-199.8 -602.2,-199.8 -366.8,0 -769.2,354.8 -1207.5,1064.3 -1583,2578.9 -2710,5909.1 -3380.8,9993.5 -17.9,113.3 -47.7,259.4 -86.4,447.2 134.1,-140.1 330.9,-366.7 593.3,-679.7 152,-181.9 262.3,-271.3 333.9,-271.3 152,0 161,89.4 32.8,271.3 -557.6,796 -930.2,1627.8 -1109.1,2501.4 -65.6,214.7 -146.1,322 -244.5,322 -47.7,0 -110.3,-26.8 -184.8,-77.5 -298.2,-199.7 -468.1,-316 -506.9,-348.8 -116.3,-116.3 -175.9,-268.3 -175.9,-456.1 0,-92.4 15,-205.8 44.7,-339.9 673.8,-3705.9 1547.3,-6863.1 2611.7,-9468.7 804.9,-1967.7 1523.4,-3240.7 2158.5,-3822.1 175.9,-164 351.8,-241.5 524.7,-235.5 158,5.9 363.7,104.3 614.1,295.1 283.3,232.5 569.5,468.1 855.6,706.5z"/>
   <path class="fil0 str0" d="M16862.4 9769.8c-71.6,983.9 -330.9,2042.3 -778.1,3172.2 -420.3,1052.4 -834.8,1773.9 -1243.2,2158.5 -232.5,214.7 -468,322 -709.5,322 -268.4,0 -712.6,-217.6 -1335.7,-650 -122.3,-83.4 -184.9,-166.9 -184.9,-256.4 0,-110.3 77.5,-166.9 235.6,-166.9 65.6,0 158,20.9 280.2,62.6 122.3,41.8 223.7,62.6 298.2,62.6 426.4,0 808,-271.3 1144.9,-813.9 286.2,-465.1 557.5,-1091.1 813.9,-1878.2 310,-977.9 444.2,-1821.6 402.4,-2525.2 -14.9,-336.9 -131.2,-506.9 -339.9,-506.9 -184.8,0 -414.4,128.2 -682.8,384.6 -1887.2,1806.7 -3216.8,3965.2 -3986,6478.4 -438.2,1428.1 -727.4,2748.8 -873.5,3968.2 -6,41.7 -83.5,1052.4 -235.5,3032 -23.8,286.2 -95.3,429.3 -211.6,429.3 -122.3,0 -339.9,-143.1 -655.9,-429.3 -226.6,-208.7 -313,-465.1 -262.3,-769.2 256.4,-2900.9 957,-6129.6 2104.8,-9689.4 903.3,-2784.6 1618.8,-4588.2 2149.5,-5417.1 313,-483 593.3,-718.5 837.8,-706.5 244.4,6 712.5,223.6 1398.2,652.9 92.4,56.7 140.2,119.2 140.2,181.9 0,86.4 -68.6,131.2 -208.7,131.2 -35.8,0 -95.4,-6 -175.9,-17.9 -80.6,-11.9 -143.1,-17.8 -181.9,-17.8 -366.7,0 -748.3,310 -1144.9,933.2 -232.5,354.7 -527.7,948 -882.4,1785.8 -354.7,837.7 -611.2,1526.4 -769.2,2066 858.7,-1395.2 1854.4,-2593.7 2990.2,-3592.4 175.9,-152.1 334,-226.6 474.1,-226.6 62.6,0 223.6,86.4 480,262.3 793,280.2 1162.7,804.9 1112,1580.1z"/>
   <path class="fil0 str0" d="M8678.6 12500.8c0,1052.5 -533.6,1899.1 -1604,2537.1 -310,483 -706.5,724.5 -1195.5,724.5 -867.6,-11.9 -1830.6,-399.5 -2894.9,-1159.8 -915.2,-652.9 -1544.4,-1281.9 -1893.1,-1887.2 -331,-563.4 -497.9,-918.3 -497.9,-1064.3 0,-178.9 131.2,-384.6 390.5,-611.2 241.5,-214.7 435.3,-322 572.4,-322 134.2,0 199.8,86.4 199.8,262.3 0,74.5 -14.9,167 -44.7,277.2 310.1,834.8 960,1613 1955.8,2334.4 995.8,718.6 1896.2,1079.3 2704.1,1079.3 715.5,-6 1073.2,-494.9 1073.2,-1466.8 0,-533.7 -414.4,-1604 -1243.2,-3207.9 -828.8,-1600.9 -1243.2,-2748.8 -1243.2,-3443.4 0,-453.1 128.1,-858.7 381.6,-1213.4 214.7,-295.1 590.3,-646.9 1127,-1055.4 98.4,-74.5 196.8,-113.3 295.1,-113.3 158.1,0 235.6,65.6 235.6,199.7 0,92.5 -50.7,190.9 -155,289.2 -444.2,423.4 -667.9,942.1 -667.9,1553.3 0,679.7 417.4,1800.7 1252.2,3365.9 834.8,1562.3 1252.2,2537.1 1252.2,2921.7z"/>
   <path class="fil0 str0" d="M11299.2 4489.9c-226.6,799 -536.6,1490.6 -930.1,2077.9 -175.9,262.4 -342.9,393.6 -500.9,393.6 -152.1,0 -417.4,-125.2 -799,-375.7 -116.3,-77.5 -175.9,-155 -175.9,-235.5 0,-122.3 104.3,-211.6 310.1,-262.3 155,-47.8 327.9,-313 524.7,-796 181.9,-462.1 274.3,-822.8 274.3,-1085.3 0,-274.3 -107.3,-411.4 -324.9,-411.4 -77.5,0 -173,11.9 -289.2,35.8 -229.5,35.7 -721.4,193.7 -1478.8,474 -86.4,29.8 -166.9,44.7 -235.5,44.7 -175.9,0 -265.3,-59.6 -265.3,-175.9 0,-110.3 89.4,-211.6 271.3,-298.1 655.9,-328 1299.9,-602.3 1937.9,-825.9 205.8,-74.6 351.8,-113.3 438.3,-113.3 134.1,0 310,184.8 524.7,557.5 327.9,101.4 530.6,173 605.2,220.6 128.1,74.5 193.8,190.8 193.8,348.8 0,110.3 -26.9,253.4 -80.6,426.4z"/>
   <path class="fil1" d="M11885.5 20356l384.9 91.9c-75,327.4 -188.1,578 -338.5,750.9 -150,173.5 -326.4,260.1 -528.4,260.1 -227.1,0 -404.9,-107.6 -532.7,-323.4 -127.9,-215.8 -192,-529 -192,-939.5 0,-332.9 42.9,-637.2 128.7,-913.6 85.8,-276.4 204.6,-488.1 357.1,-634.5 152.2,-146.3 317.7,-219.9 496.8,-219.9 201.5,0 364.1,85.1 488.5,254.6 124.4,170.3 197.3,401 219.4,694.4l-366.8 55.8c-20.3,-170.9 -59.4,-294.1 -117,-371.1 -57.6,-76.9 -134.4,-115 -230.6,-115 -105.4,0 -203.7,50.4 -295.2,151.8 -91.4,101.5 -164.3,260.1 -218.9,475.9 -55.1,215.2 -82.3,430.3 -82.3,645.4 0,234.8 35.5,416.6 106.6,544.6 71.1,128 159.9,192 265.7,192 98.8,0 188.9,-50.4 270.9,-151.8 82.3,-100.8 143.4,-250.6 183.7,-448.7z"/>
   <path id="_1" class="fil1" d="M12928.8 19878.1l-356.3 -47c40.7,-187.8 111.8,-334.2 213.2,-439.8 101.4,-105.5 235.3,-158.7 402.7,-158.7 173.8,0 302.5,55.2 385.4,164.8 83.2,110.2 124.9,244.4 124.9,403 0,64 -3.5,132.1 -10.9,203.6 -7.3,72.1 -32.5,261.4 -75.8,567.8 -36,253.3 -53.7,430.9 -53.7,532.3 0,90.6 10.4,190.6 30.8,301.6l-355.8 0c-13.9,-76.9 -22.5,-157.2 -26.1,-239.6 -53.3,93.2 -114.9,165.4 -184.1,216.5 -69.4,51 -139.6,76.3 -209.9,76.3 -111.8,0 -204.1,-57.9 -277,-173.6 -72.8,-115.8 -109.2,-264.2 -109.2,-445.9 0,-202.9 39.9,-365.6 120.1,-486.8 80.2,-121.8 223.2,-195.3 429.2,-220.5 173.8,-23.1 289.9,-50.4 348.4,-82.4 15.2,-80.3 23,-144.3 23,-192 0,-62 -15.6,-113 -47.3,-154.5 -31.2,-41.5 -78,-62 -140,-62 -65.1,0 -116.6,20.4 -154.4,62 -37.7,40.9 -63.7,99.4 -77.1,175zm347.2 535.1c-22,9.5 -51.1,18.4 -87.5,26.6 -183,34.7 -302.6,85.8 -358.4,153.2 -39.9,49 -59.9,114.4 -59.9,196 0,68.1 15.2,124.6 46,171.6 30.4,46.2 70.6,69.5 120.5,69.5 55,0 107,-21.1 155.6,-64 49,-42.2 85.4,-96.7 109.3,-163.5 24.2,-66.7 45.5,-170.9 64.1,-312.5l10.4 -76.9z"/>
   <path id="_2" class="fil1" d="M13813.6 20816.2l353.7 -88.5c31.2,117.7 70.1,200.8 116.5,249.8 46.4,48.3 109.2,72.9 189.4,72.9 82.7,0 149.1,-29.3 198.5,-88.5 34.6,-40.2 52,-89.9 52,-147.1 0,-39.5 -8.7,-74.2 -26.5,-104.9 -18.6,-29.3 -68.9,-65.3 -150.8,-108.2 -219.4,-114.4 -355,-205.6 -407.5,-272.3 -81.9,-103.5 -122.7,-239.6 -122.7,-407.8 0,-168.2 39.9,-313.1 119.2,-435 110.5,-169.5 274.8,-253.9 492.4,-253.9 173.4,0 304.3,50.4 392.8,150.5 88.9,100.1 144.7,235.5 168.6,406.5l-335.5 92.6c-17.7,-77.6 -46.4,-136.2 -85.8,-175 -54.2,-52.5 -118.8,-78.3 -194.7,-78.3 -75.9,0 -130.5,19.8 -163.9,59.9 -33.4,40.2 -49.8,86.4 -49.8,138.2 0,53.7 16.8,97.4 50.6,132.1 20.9,21.8 88.9,59.2 203.3,112.3 177.3,81.6 295.6,161.3 355.4,240.3 84.5,110.9 126.6,244.3 126.6,400.2 0,201.5 -53.7,376.5 -161.3,524.9 -107,147.7 -258.4,222 -453.8,222 -194.7,0 -344.7,-56.5 -450.9,-168.8 -106.2,-112.3 -178.2,-270.3 -216.3,-473.9z"/>
   <path id="_3" class="fil1" d="M15821.8 19878.1l-356.3 -47c40.8,-187.8 111.9,-334.2 213.2,-439.8 101.5,-105.5 235.4,-158.7 402.8,-158.7 173.8,0 302.5,55.2 385.4,164.8 83.2,110.2 124.8,244.4 124.8,403 0,64 -3.4,132.1 -10.8,203.6 -7.3,72.1 -32.5,261.4 -75.8,567.8 -36,253.3 -53.7,430.9 -53.7,532.3 0,90.6 10.4,190.6 30.8,301.6l-355.8 0c-13.9,-76.9 -22.5,-157.2 -26.1,-239.6 -53.3,93.2 -114.9,165.4 -184.2,216.5 -69.3,51 -139.6,76.3 -209.8,76.3 -111.8,0 -204.2,-57.9 -277,-173.6 -72.8,-115.8 -109.2,-264.2 -109.2,-445.9 0,-202.9 39.9,-365.6 120.1,-486.8 80.2,-121.8 223.2,-195.3 429.2,-220.5 173.8,-23.1 289.9,-50.4 348.4,-82.4 15.2,-80.3 23,-144.3 23,-192 0,-62 -15.6,-113 -47.2,-154.5 -31.2,-41.5 -78.1,-62 -140,-62 -65.1,0 -116.6,20.4 -154.4,62 -37.7,40.9 -63.7,99.4 -77.1,175zm347.2 535.1c-22.1,9.5 -51.1,18.4 -87.5,26.6 -183,34.7 -302.6,85.8 -358.5,153.2 -39.9,49 -59.8,114.4 -59.8,196 0,68.1 15.1,124.6 45.9,171.6 30.4,46.2 70.7,69.5 120.6,69.5 55,0 107,-21.1 155.6,-64 48.9,-42.2 85.4,-96.7 109.2,-163.5 24.3,-66.7 45.6,-170.9 64.2,-312.5l10.4 -76.9z"/>
   <polygon id="_4" class="fil1" points="18760.7,20098.7 18038,20098.7 17863.8,21405.8 17481,21405.8 17871.1,18481.2 18253.5,18481.2 18103,19608.5 18826.1,19608.5 18976.5,18481.2 19358.7,18481.2 18969.1,21405.8 18586.4,21405.8 "/>
   <path id="_5" class="fil1" d="M19408.6 20526.2c0,-394.2 70.3,-708 211.1,-942.2 140.9,-234.2 326,-351.3 555.3,-351.3 198.5,0 353.7,86.5 465.5,259.4 111.4,173 167.3,405.1 167.3,697.8 0,343.8 -69.8,642.1 -209.4,892.5 -139.5,251.2 -326.3,376.5 -560.4,376.5 -127,0 -239.7,-40.2 -337.7,-119.8 -98,-80.4 -171.3,-194.1 -219.3,-340.5 -48.2,-147.1 -72.5,-304.3 -72.5,-472.5zm1037.8 -411.8c0,-136.9 -25.1,-246.4 -75.4,-328.8 -50.3,-82.4 -114.9,-123.9 -194.1,-123.9 -78.5,0 -148.2,38.8 -208.9,115.8 -60.7,76.9 -108,189.3 -141.8,335.6 -33.8,147.1 -50.7,282.6 -50.7,405.8 0,153.2 26,274.4 78.4,364.2 52.4,89.9 118.3,134.8 197.7,134.8 99.6,0 182.9,-68.1 250.5,-203.6 96.3,-191.3 144.4,-424.8 144.4,-699.8z"/>
   <path id="_6" class="fil1" d="M20924 21520.2l385.3 87.9c0,61.2 6.6,107.5 19.1,138.1 12.6,31.4 33,57.9 61.1,80.4 28.2,21.8 66.8,32.6 115.4,32.6 81.9,0 147.8,-23.8 197.2,-72.1 36.8,-37.4 67.2,-97.4 90.6,-180.4 14.3,-51.8 32.9,-165.5 55.4,-340.5l13 -99.4c-132.7,164.7 -270.1,247.1 -411.8,247.1 -132.2,0 -240.5,-73.5 -325.1,-219.9 -84.5,-146.4 -127,-361.5 -127,-644.1 0,-249.1 28.6,-477.8 86.3,-685.5 57.6,-207.6 138.7,-364.9 243.2,-471.8 104,-106.9 210.6,-160 319,-160 89.3,0 171.2,37.5 245.8,112.3 74.1,75.6 131.8,180.4 173.4,315.9l47.3 -375.1 342.8 0 -214.9 1772.1c-39,282.5 -72.1,484 -98.9,605.2 -26.9,120.5 -57.6,216.4 -92.3,287.9 -34.2,72.2 -78,132.1 -130.9,180.4 -52.9,48.3 -114.9,83.1 -186.8,104.2 -71.9,21.1 -149.5,32 -233.6,32 -190.4,0 -334.2,-51 -431.3,-153.1 -97.1,-102.8 -146.1,-273 -146.1,-510.6 0,-25.1 1.3,-53.1 4,-83.7zm429.5 -1028c0,162 23,285.3 68.9,369.7 45.9,85.1 103.6,127.3 173,127.3 65,0 127.8,-38.2 189,-114.4 61.1,-76.3 107.9,-183.8 140.4,-324.1 32.5,-140.3 48.9,-275.8 48.9,-407.1 0,-150.5 -26.8,-272.3 -79.8,-364.2 -53.3,-91.9 -114.8,-138.2 -184.6,-138.2 -65.4,0 -125.2,40.9 -179.9,121.9 -54.6,81.6 -99.6,206.9 -135.2,377.1 -27.3,130.7 -40.8,247.8 -40.8,352z"/>
   <path id="_7" class="fil1" d="M23046.2 19878.1l-356.3 -47c40.7,-187.8 111.8,-334.2 213.2,-439.8 101.4,-105.5 235.3,-158.7 402.7,-158.7 173.8,0 302.5,55.2 385.4,164.8 83.2,110.2 124.8,244.4 124.8,403 0,64 -3.4,132.1 -10.8,203.6 -7.3,72.1 -32.5,261.4 -75.8,567.8 -36,253.3 -53.7,430.9 -53.7,532.3 0,90.6 10.4,190.6 30.8,301.6l-355.8 0c-13.9,-76.9 -22.5,-157.2 -26.1,-239.6 -53.3,93.2 -114.9,165.4 -184.2,216.5 -69.3,51 -139.5,76.3 -209.8,76.3 -111.8,0 -204.1,-57.9 -277,-173.6 -72.8,-115.8 -109.2,-264.2 -109.2,-445.9 0,-202.9 39.9,-365.6 120.1,-486.8 80.2,-121.8 223.2,-195.3 429.2,-220.5 173.8,-23.1 289.9,-50.4 348.4,-82.4 15.2,-80.3 23,-144.3 23,-192 0,-62 -15.6,-113 -47.2,-154.5 -31.2,-41.5 -78.1,-62 -140,-62 -65.1,0 -116.6,20.4 -154.4,62 -37.7,40.9 -63.7,99.4 -77.1,175zm347.2 535.1c-22.1,9.5 -51.1,18.4 -87.5,26.6 -183,34.7 -302.6,85.8 -358.5,153.2 -39.9,49 -59.8,114.4 -59.8,196 0,68.1 15.1,124.6 46,171.6 30.4,46.2 70.6,69.5 120.5,69.5 55,0 107,-21.1 155.6,-64 49,-42.2 85.4,-96.7 109.2,-163.5 24.3,-66.7 45.6,-170.9 64.2,-312.5l10.4 -76.9z"/>
   <path id="_8" class="fil1" d="M24239.5 19285.8l342.5 0 -51.6 399c125.7,-301.6 261.8,-452.1 408.8,-452.1 52,0 107.9,20.4 167.2,62l-140.4 468.4c-33,-18.4 -68.5,-27.9 -105.8,-27.9 -62.8,0 -126.5,37.4 -191.6,112.3 -64.9,74.8 -115.7,174.2 -152.1,299.5 -36.8,124.6 -72.8,322.7 -108.4,593.7l-87.1 665.1 -364.1 0 282.6 -2120z"/>
   <path id="_9" class="fil1" d="M25980.3 19285.8l345.5 0 -27.3 215.8c73.7,-96 143,-165.5 207.6,-207 64.2,-41.5 133.5,-62 207.2,-62 141.8,0 255.8,76.9 342,230.1 86.3,153.9 129.2,382.6 129.2,687 0,382.6 -74.6,706.6 -223.7,970.7 -127.5,225.3 -278.7,338.4 -453.5,338.4 -179.9,0 -315.5,-113.1 -407.4,-339.1l-143.4 1094.8 -363.7 0 387.5 -2928.8zm218.4 1215.9c0,167.4 26,297.5 77.6,389.4 52,92.6 112.7,138.9 183,138.9 60.6,0 119.1,-34.7 175.5,-103.5 56.3,-69.5 103.2,-183.8 140,-344.5 37.2,-160 56,-309.1 56,-445.9 0,-159.3 -24.3,-281.8 -73.3,-366.9 -48.5,-85.1 -110.5,-128.1 -185.5,-128.1 -70.2,0 -133.9,38.8 -191.6,117.1 -57.7,78.3 -102.3,193.4 -133.9,345.2 -31.6,151.9 -47.7,284.5 -47.7,398.3z"/>
   <path id="_10" class="fil1" d="M27816 19878.1l-356.3 -47c40.7,-187.8 111.8,-334.2 213.2,-439.8 101.4,-105.5 235.3,-158.7 402.7,-158.7 173.8,0 302.5,55.2 385.4,164.8 83.2,110.2 124.8,244.4 124.8,403 0,64 -3.4,132.1 -10.8,203.6 -7.3,72.1 -32.5,261.4 -75.8,567.8 -36,253.3 -53.7,430.9 -53.7,532.3 0,90.6 10.4,190.6 30.8,301.6l-355.8 0c-13.9,-76.9 -22.5,-157.2 -26.1,-239.6 -53.3,93.2 -114.9,165.4 -184.2,216.5 -69.3,51 -139.5,76.3 -209.8,76.3 -111.8,0 -204.1,-57.9 -277,-173.6 -72.8,-115.8 -109.2,-264.2 -109.2,-445.9 0,-202.9 39.9,-365.6 120.1,-486.8 80.2,-121.8 223.2,-195.3 429.2,-220.5 173.8,-23.1 289.9,-50.4 348.4,-82.4 15.2,-80.3 23,-144.3 23,-192 0,-62 -15.6,-113 -47.2,-154.5 -31.2,-41.5 -78.1,-62 -140,-62 -65.1,0 -116.6,20.4 -154.4,62 -37.7,40.9 -63.7,99.4 -77.1,175zm347.2 535.1c-22.1,9.5 -51.1,18.4 -87.5,26.6 -183,34.7 -302.6,85.8 -358.5,153.2 -39.9,49 -59.8,114.4 -59.8,196 0,68.1 15.1,124.6 46,171.6 30.4,46.2 70.6,69.5 120.5,69.5 55,0 107,-21.1 155.6,-64 49,-42.2 85.4,-96.7 109.2,-163.5 24.3,-66.7 45.6,-170.9 64.2,-312.5l10.4 -76.9z"/>
   <path id="_11" class="fil1" d="M29009.3 19285.8l342.5 0 -51.6 399c125.7,-301.6 261.8,-452.1 408.8,-452.1 52,0 107.9,20.4 167.2,62l-140.4 468.4c-33,-18.4 -68.5,-27.9 -105.8,-27.9 -62.8,0 -126.5,37.4 -191.6,112.3 -65,74.8 -115.7,174.2 -152.1,299.5 -36.8,124.6 -72.8,322.7 -108.4,593.7l-87.1 665.1 -364.1 0 282.6 -2120z"/>
   <path id="_12" class="fil1" d="M30274.5 19878.1l-356.3 -47c40.7,-187.8 111.8,-334.2 213.2,-439.8 101.4,-105.5 235.3,-158.7 402.7,-158.7 173.8,0 302.5,55.2 385.4,164.8 83.2,110.2 124.9,244.4 124.9,403 0,64 -3.5,132.1 -10.9,203.6 -7.3,72.1 -32.5,261.4 -75.8,567.8 -36,253.3 -53.7,430.9 -53.7,532.3 0,90.6 10.4,190.6 30.8,301.6l-355.8 0c-13.9,-76.9 -22.5,-157.2 -26,-239.6 -53.4,93.2 -114.9,165.4 -184.2,216.5 -69.4,51 -139.6,76.3 -209.9,76.3 -111.8,0 -204.1,-57.9 -277,-173.6 -72.8,-115.8 -109.2,-264.2 -109.2,-445.9 0,-202.9 39.9,-365.6 120.1,-486.8 80.2,-121.8 223.2,-195.3 429.2,-220.5 173.8,-23.1 290,-50.4 348.4,-82.4 15.2,-80.3 23,-144.3 23,-192 0,-62 -15.6,-113 -47.3,-154.5 -31.2,-41.5 -78,-62 -140,-62 -65.1,0 -116.6,20.4 -154.4,62 -37.7,40.9 -63.7,99.4 -77.1,175zm347.2 535.1c-22,9.5 -51.1,18.4 -87.5,26.6 -183,34.7 -302.6,85.8 -358.4,153.2 -39.9,49 -59.9,114.4 -59.9,196 0,68.1 15.2,124.6 46,171.6 30.4,46.2 70.6,69.5 120.5,69.5 55,0 107,-21.1 155.6,-64 49,-42.2 85.4,-96.7 109.3,-163.5 24.2,-66.7 45.5,-170.9 64.1,-312.5l10.4 -76.9z"/>
   <polygon id="_13" class="fil1" points="31926,21405.8 32316.2,18481.2 32679.8,18481.2 32290.2,21405.8 "/>
   <path id="_14" class="fil1" d="M33166.2 19878.1l-356.3 -47c40.7,-187.8 111.8,-334.2 213.2,-439.8 101.4,-105.5 235.3,-158.7 402.7,-158.7 173.8,0 302.5,55.2 385.4,164.8 83.2,110.2 124.8,244.4 124.8,403 0,64 -3.4,132.1 -10.8,203.6 -7.3,72.1 -32.5,261.4 -75.8,567.8 -36,253.3 -53.7,430.9 -53.7,532.3 0,90.6 10.4,190.6 30.8,301.6l-355.8 0c-13.9,-76.9 -22.5,-157.2 -26.1,-239.6 -53.3,93.2 -114.9,165.4 -184.2,216.5 -69.3,51 -139.5,76.3 -209.8,76.3 -111.8,0 -204.1,-57.9 -277,-173.6 -72.8,-115.8 -109.2,-264.2 -109.2,-445.9 0,-202.9 39.9,-365.6 120.1,-486.8 80.2,-121.8 223.2,-195.3 429.2,-220.5 173.8,-23.1 289.9,-50.4 348.4,-82.4 15.2,-80.3 23,-144.3 23,-192 0,-62 -15.6,-113 -47.2,-154.5 -31.2,-41.5 -78,-62 -140,-62 -65.1,0 -116.6,20.4 -154.4,62 -37.7,40.9 -63.7,99.4 -77.1,175zm347.2 535.1c-22.1,9.5 -51.1,18.4 -87.5,26.6 -183,34.7 -302.6,85.8 -358.5,153.2 -39.9,49 -59.8,114.4 -59.8,196 0,68.1 15.1,124.6 46,171.6 30.4,46.2 70.6,69.5 120.5,69.5 55,0 107,-21.1 155.6,-64 49,-42.2 85.4,-96.7 109.2,-163.5 24.3,-66.7 45.6,-170.9 64.2,-312.5l10.4 -76.9z"/>
   <polygon id="_15" class="fil1" points="35632.9,21405.8 35250.2,21405.8 35574.9,18971.3 35028.3,18971.3 35090.7,18481.2 36557.6,18481.2 36495.1,18971.3 35957.6,18971.3 "/>
   <path id="_16" class="fil1" d="M37626 20523.5l-915.9 0c-0.8,22.5 -1.3,40.1 -1.3,52.4 0,142.3 26,256.7 77.6,343.8 51.5,87.1 114.9,130.7 188.9,130.7 122.3,0 217.6,-98 286.1,-294.1l325.1 85.8c-63.7,205.6 -148.7,359.5 -255.4,462.3 -106.5,102.7 -225.8,154.5 -358.4,154.5 -181.7,0 -329.5,-90.6 -443,-271 -114,-181.1 -170.8,-420.1 -170.8,-718.2 0,-290.7 51.1,-549.4 153.9,-776.8 139.6,-307.1 339.4,-460.3 598.6,-460.3 165.1,0 296.5,80.4 394,241.1 97.5,160.6 146.1,385.9 146.1,675.4 0,138.8 -8.7,263.4 -25.6,374.4zm-307.3 -347.3c0.9,-25.8 1.3,-44.9 1.3,-58.5 0,-158.6 -22.5,-277.7 -67.7,-357.4 -44.6,-79.6 -104.9,-119.1 -180.7,-119.1 -75.4,0 -143,45 -202.9,135.5 -59.8,89.8 -100.1,223.2 -121.3,399.6l571.3 0z"/>
   <path id="_17" class="fil1" d="M38020.5 19285.8l342.4 0 -51.6 399c125.7,-301.6 261.8,-452.1 408.8,-452.1 52,0 108,20.4 167.3,62l-140.4 468.4c-33,-18.4 -68.5,-27.9 -105.8,-27.9 -62.9,0 -126.6,37.4 -191.6,112.3 -65,74.8 -115.8,174.2 -152.2,299.5 -36.8,124.6 -72.8,322.7 -108.3,593.7l-87.1 665.1 -364.1 0 282.6 -2120z"/>
   <path id="_18" class="fil1" d="M39683.7 20609.3l353.7 89.9c-58.5,247.8 -144.5,436.4 -258.8,565.7 -114,129.3 -246.2,194.1 -396.6,194.1 -171.7,0 -307.7,-81.1 -408.4,-242.4 -100.5,-161.4 -150.8,-383.2 -150.8,-666.5 0,-230.7 30.4,-449.3 91.4,-654.9 60.7,-205.6 152.6,-366.9 275.3,-485.3 122.7,-117.8 257,-177.1 403.6,-177.1 159,0 286,65.4 380.5,196.8 95,130.7 148.3,303 160,516.8l-345.9 58.5c-8.7,-119.1 -31.6,-206.9 -69.3,-262.8 -37.8,-56.5 -86.8,-84.4 -147.8,-84.4 -70.3,0 -136.1,41.5 -196.8,123.9 -61.1,83.1 -107.9,207 -140.5,371.7 -32.5,164.8 -48.9,319.3 -48.9,463.6 0,126 19.5,222.7 58.1,290.7 39,68.1 87.5,102.2 146.1,102.2 58.1,0 114.4,-33.4 168.7,-100.1 53.7,-66.8 96.2,-166.8 126.5,-300.3z"/>
   <path id="_19" class="fil1" d="M41531.1 20523.5l-915.9 0c-0.8,22.5 -1.3,40.1 -1.3,52.4 0,142.3 26,256.7 77.6,343.8 51.5,87.1 114.9,130.7 188.9,130.7 122.3,0 217.6,-98 286.1,-294.1l325.1 85.8c-63.7,205.6 -148.7,359.5 -255.4,462.3 -106.5,102.7 -225.8,154.5 -358.4,154.5 -181.7,0 -329.4,-90.6 -443,-271 -114,-181.1 -170.8,-420.1 -170.8,-718.2 0,-290.7 51.1,-549.4 153.9,-776.8 139.6,-307.1 339.4,-460.3 598.6,-460.3 165.1,0 296.5,80.4 394,241.1 97.5,160.6 146.1,385.9 146.1,675.4 0,138.8 -8.7,263.4 -25.6,374.4zm-307.3 -347.3c0.9,-25.8 1.3,-44.9 1.3,-58.5 0,-158.6 -22.5,-277.7 -67.6,-357.4 -44.6,-79.6 -104.9,-119.1 -180.8,-119.1 -75.4,0 -143,45 -202.9,135.5 -59.8,89.8 -100.1,223.2 -121.3,399.6l571.3 0z"/>
   <path id="_20" class="fil1" d="M41925.6 19285.8l342.4 0 -51.6 399c125.7,-301.6 261.8,-452.1 408.8,-452.1 52,0 108,20.4 167.3,62l-140.4 468.4c-33,-18.4 -68.5,-27.9 -105.8,-27.9 -62.9,0 -126.5,37.4 -191.6,112.3 -65,74.8 -115.8,174.2 -152.2,299.5 -36.8,124.6 -72.7,322.7 -108.3,593.7l-87.1 665.1 -364.1 0 282.6 -2120z"/>
   <path id="_21" class="fil1" d="M43190.9 19878.1l-356.3 -47c40.8,-187.8 111.8,-334.2 213.2,-439.8 101.5,-105.5 235.4,-158.7 402.7,-158.7 173.9,0 302.5,55.2 385.4,164.8 83.2,110.2 124.9,244.4 124.9,403 0,64 -3.4,132.1 -10.8,203.6 -7.3,72.1 -32.5,261.4 -75.8,567.8 -36,253.3 -53.8,430.9 -53.8,532.3 0,90.6 10.5,190.6 30.9,301.6l-355.9 0c-13.8,-76.9 -22.5,-157.2 -26,-239.6 -53.3,93.2 -114.9,165.4 -184.2,216.5 -69.3,51 -139.6,76.3 -209.8,76.3 -111.8,0 -204.2,-57.9 -277,-173.6 -72.8,-115.8 -109.2,-264.2 -109.2,-445.9 0,-202.9 39.9,-365.6 120.1,-486.8 80.2,-121.8 223.2,-195.3 429.2,-220.5 173.7,-23.1 289.9,-50.4 348.4,-82.4 15.2,-80.3 23,-144.3 23,-192 0,-62 -15.6,-113 -47.2,-154.5 -31.3,-41.5 -78.1,-62 -140,-62 -65.1,0 -116.6,20.4 -154.4,62 -37.7,40.9 -63.7,99.4 -77.1,175zm347.1 535.1c-22,9.5 -51.1,18.4 -87.5,26.6 -182.9,34.7 -302.5,85.8 -358.4,153.2 -39.9,49 -59.8,114.4 -59.8,196 0,68.1 15.1,124.6 45.9,171.6 30.4,46.2 70.7,69.5 120.5,69.5 55.1,0 107.1,-21.1 155.6,-64 48.9,-42.2 85.4,-96.7 109.2,-163.5 24.3,-66.7 45.5,-170.9 64.2,-312.5l10.3 -76.9z"/>
   <polygon id="_22" class="fil1" points="44847.5,21405.8 45237.6,18481.2 46616,18481.2 46551,18971.3 45554.4,18971.3 45463,19633 46428.7,19633 46363.7,20123.2 45395,20123.2 45284.9,20915.6 46366.3,20915.6 46301.3,21405.8 "/>
   <path id="_23" class="fil1" d="M47824.9 21405.8l-345.4 0 30.4 -226.7c-65.9,100.1 -131,171.5 -195.2,215.1 -63.7,42.9 -135.6,64.7 -216.3,64.7 -139.6,0 -252.7,-74.9 -339.4,-225.3 -86.7,-149.8 -130.1,-371.7 -130.1,-665.9 0,-340.4 62,-647.4 185.6,-922.5 123.5,-275 286.9,-412.6 490.2,-412.6 183.8,0 321.6,113.8 413.5,341.8l151.3 -1093.3 363.7 0 -408.3 2924.7zm-842.2 -860.5c0,151.8 24.7,270.9 73.7,356.7 49.4,85.2 110.1,128.1 182,128.1 66.8,0 129.2,-35.4 186.8,-107 58.1,-71.5 104,-181 138.7,-328.1 34.6,-146.4 52,-287.3 52,-422.8 0,-153.2 -26.4,-277.8 -79.3,-372.4 -53.3,-94.6 -114.4,-142.3 -183.8,-142.3 -107.9,0 -196.8,93.2 -266.1,280.5 -69.4,187.2 -104,389.4 -104,607.2z"/>
   <path id="_24" class="fil1" d="M48683.1 19878.1l-356.3 -47c40.7,-187.8 111.8,-334.2 213.2,-439.8 101.4,-105.5 235.3,-158.7 402.7,-158.7 173.8,0 302.5,55.2 385.4,164.8 83.2,110.2 124.9,244.4 124.9,403 0,64 -3.5,132.1 -10.9,203.6 -7.3,72.1 -32.5,261.4 -75.8,567.8 -36,253.3 -53.7,430.9 -53.7,532.3 0,90.6 10.4,190.6 30.8,301.6l-355.8 0c-13.9,-76.9 -22.5,-157.2 -26,-239.6 -53.4,93.2 -114.9,165.4 -184.2,216.5 -69.4,51 -139.6,76.3 -209.9,76.3 -111.8,0 -204.1,-57.9 -277,-173.6 -72.8,-115.8 -109.2,-264.2 -109.2,-445.9 0,-202.9 39.9,-365.6 120.1,-486.8 80.2,-121.8 223.2,-195.3 429.2,-220.5 173.8,-23.1 290,-50.4 348.4,-82.4 15.2,-80.3 23,-144.3 23,-192 0,-62 -15.6,-113 -47.3,-154.5 -31.2,-41.5 -78,-62 -140,-62 -65.1,0 -116.6,20.4 -154.4,62 -37.7,40.9 -63.7,99.4 -77.1,175zm347.2 535.1c-22,9.5 -51.1,18.4 -87.5,26.6 -183,34.7 -302.6,85.8 -358.4,153.2 -39.9,49 -59.9,114.4 -59.9,196 0,68.1 15.2,124.6 46,171.6 30.4,46.2 70.6,69.5 120.5,69.5 55,0 107,-21.1 155.6,-64 49,-42.2 85.4,-96.7 109.3,-163.5 24.2,-66.7 45.5,-170.9 64.1,-312.5l10.4 -76.9z"/>
   <path id="_25" class="fil1" d="M50860 21405.8l-345.4 0 30.4 -226.7c-65.9,100.1 -131,171.5 -195.1,215.1 -63.7,42.9 -135.7,64.7 -216.3,64.7 -139.6,0 -252.7,-74.9 -339.4,-225.3 -86.7,-149.8 -130.1,-371.7 -130.1,-665.9 0,-340.4 62,-647.4 185.6,-922.5 123.5,-275 287,-412.6 490.2,-412.6 183.8,0 321.6,113.8 413.5,341.8l151.3 -1093.3 363.7 0 -408.3 2924.7zm-842.2 -860.5c0,151.8 24.7,270.9 73.7,356.7 49.4,85.2 110.1,128.1 182,128.1 66.8,0 129.2,-35.4 186.8,-107 58.1,-71.5 104,-181 138.7,-328.1 34.6,-146.4 52,-287.3 52,-422.8 0,-153.2 -26.4,-277.8 -79.3,-372.4 -53.3,-94.6 -114.4,-142.3 -183.7,-142.3 -108,0 -196.8,93.2 -266.2,280.5 -69.4,187.2 -104,389.4 -104,607.2z"/>
   <path id="_26" class="fil2 str0" d="M11885.5 20356l384.9 91.9c-75,327.4 -188.1,578 -338.5,750.9 -150,173.5 -326.4,260.1 -528.4,260.1 -227.1,0 -404.9,-107.6 -532.7,-323.4 -127.9,-215.8 -192,-529 -192,-939.5 0,-332.9 42.9,-637.2 128.7,-913.6 85.8,-276.4 204.6,-488.1 357.1,-634.5 152.2,-146.3 317.7,-219.9 496.8,-219.9 201.5,0 364.1,85.1 488.5,254.6 124.4,170.3 197.3,401 219.4,694.4l-366.8 55.8c-20.3,-170.9 -59.4,-294.1 -117,-371.1 -57.6,-76.9 -134.4,-115 -230.6,-115 -105.4,0 -203.7,50.4 -295.2,151.8 -91.4,101.5 -164.3,260.1 -218.9,475.9 -55.1,215.2 -82.3,430.3 -82.3,645.4 0,234.8 35.5,416.6 106.6,544.6 71.1,128 159.9,192 265.7,192 98.8,0 188.9,-50.4 270.9,-151.8 82.3,-100.8 143.4,-250.6 183.7,-448.7z"/>
   <path id="_27" class="fil2 str0" d="M12928.8 19878.1l-356.3 -47c40.7,-187.8 111.8,-334.2 213.2,-439.8 101.4,-105.5 235.3,-158.7 402.7,-158.7 173.8,0 302.5,55.2 385.4,164.8 83.2,110.2 124.9,244.4 124.9,403 0,64 -3.5,132.1 -10.9,203.6 -7.3,72.1 -32.5,261.4 -75.8,567.8 -36,253.3 -53.7,430.9 -53.7,532.3 0,90.6 10.4,190.6 30.8,301.6l-355.8 0c-13.9,-76.9 -22.5,-157.2 -26.1,-239.6 -53.3,93.2 -114.9,165.4 -184.1,216.5 -69.4,51 -139.6,76.3 -209.9,76.3 -111.8,0 -204.1,-57.9 -277,-173.6 -72.8,-115.8 -109.2,-264.2 -109.2,-445.9 0,-202.9 39.9,-365.6 120.1,-486.8 80.2,-121.8 223.2,-195.3 429.2,-220.5 173.8,-23.1 289.9,-50.4 348.4,-82.4 15.2,-80.3 23,-144.3 23,-192 0,-62 -15.6,-113 -47.3,-154.5 -31.2,-41.5 -78,-62 -140,-62 -65.1,0 -116.6,20.4 -154.4,62 -37.7,40.9 -63.7,99.4 -77.1,175zm347.2 535.1c-22,9.5 -51.1,18.4 -87.5,26.6 -183,34.7 -302.6,85.8 -358.4,153.2 -39.9,49 -59.9,114.4 -59.9,196 0,68.1 15.2,124.6 46,171.6 30.4,46.2 70.6,69.5 120.5,69.5 55,0 107,-21.1 155.6,-64 49,-42.2 85.4,-96.7 109.3,-163.5 24.2,-66.7 45.5,-170.9 64.1,-312.5l10.4 -76.9z"/>
   <path id="_28" class="fil2 str0" d="M13813.6 20816.2l353.7 -88.5c31.2,117.7 70.1,200.8 116.5,249.8 46.4,48.3 109.2,72.9 189.4,72.9 82.7,0 149.1,-29.3 198.5,-88.5 34.6,-40.2 52,-89.9 52,-147.1 0,-39.5 -8.7,-74.2 -26.5,-104.9 -18.6,-29.3 -68.9,-65.3 -150.8,-108.2 -219.4,-114.4 -355,-205.6 -407.5,-272.3 -81.9,-103.5 -122.7,-239.6 -122.7,-407.8 0,-168.2 39.9,-313.1 119.2,-435 110.5,-169.5 274.8,-253.9 492.4,-253.9 173.4,0 304.3,50.4 392.8,150.5 88.9,100.1 144.7,235.5 168.6,406.5l-335.5 92.6c-17.7,-77.6 -46.4,-136.2 -85.8,-175 -54.2,-52.5 -118.8,-78.3 -194.7,-78.3 -75.9,0 -130.5,19.8 -163.9,59.9 -33.4,40.2 -49.8,86.4 -49.8,138.2 0,53.7 16.8,97.4 50.6,132.1 20.9,21.8 88.9,59.2 203.3,112.3 177.3,81.6 295.6,161.3 355.4,240.3 84.5,110.9 126.6,244.3 126.6,400.2 0,201.5 -53.7,376.5 -161.3,524.9 -107,147.7 -258.4,222 -453.8,222 -194.7,0 -344.7,-56.5 -450.9,-168.8 -106.2,-112.3 -178.2,-270.3 -216.3,-473.9z"/>
   <path id="_29" class="fil2 str0" d="M15821.8 19878.1l-356.3 -47c40.8,-187.8 111.9,-334.2 213.2,-439.8 101.5,-105.5 235.4,-158.7 402.8,-158.7 173.8,0 302.5,55.2 385.4,164.8 83.2,110.2 124.8,244.4 124.8,403 0,64 -3.4,132.1 -10.8,203.6 -7.3,72.1 -32.5,261.4 -75.8,567.8 -36,253.3 -53.7,430.9 -53.7,532.3 0,90.6 10.4,190.6 30.8,301.6l-355.8 0c-13.9,-76.9 -22.5,-157.2 -26.1,-239.6 -53.3,93.2 -114.9,165.4 -184.2,216.5 -69.3,51 -139.6,76.3 -209.8,76.3 -111.8,0 -204.2,-57.9 -277,-173.6 -72.8,-115.8 -109.2,-264.2 -109.2,-445.9 0,-202.9 39.9,-365.6 120.1,-486.8 80.2,-121.8 223.2,-195.3 429.2,-220.5 173.8,-23.1 289.9,-50.4 348.4,-82.4 15.2,-80.3 23,-144.3 23,-192 0,-62 -15.6,-113 -47.2,-154.5 -31.2,-41.5 -78.1,-62 -140,-62 -65.1,0 -116.6,20.4 -154.4,62 -37.7,40.9 -63.7,99.4 -77.1,175zm347.2 535.1c-22.1,9.5 -51.1,18.4 -87.5,26.6 -183,34.7 -302.6,85.8 -358.5,153.2 -39.9,49 -59.8,114.4 -59.8,196 0,68.1 15.1,124.6 45.9,171.6 30.4,46.2 70.7,69.5 120.6,69.5 55,0 107,-21.1 155.6,-64 48.9,-42.2 85.4,-96.7 109.2,-163.5 24.3,-66.7 45.6,-170.9 64.2,-312.5l10.4 -76.9z"/>
   <polygon id="_30" class="fil2 str0" points="18760.7,20098.7 18038,20098.7 17863.8,21405.8 17481,21405.8 17871.1,18481.2 18253.5,18481.2 18103,19608.5 18826.1,19608.5 18976.5,18481.2 19358.7,18481.2 18969.1,21405.8 18586.4,21405.8 "/>
   <path id="_31" class="fil2 str0" d="M19408.6 20526.2c0,-394.2 70.3,-708 211.1,-942.2 140.9,-234.2 326,-351.3 555.3,-351.3 198.5,0 353.7,86.5 465.5,259.4 111.4,173 167.3,405.1 167.3,697.8 0,343.8 -69.8,642.1 -209.4,892.5 -139.5,251.2 -326.3,376.5 -560.4,376.5 -127,0 -239.7,-40.2 -337.7,-119.8 -98,-80.4 -171.3,-194.1 -219.3,-340.5 -48.2,-147.1 -72.5,-304.3 -72.5,-472.5zm1037.8 -411.8c0,-136.9 -25.1,-246.4 -75.4,-328.8 -50.3,-82.4 -114.9,-123.9 -194.1,-123.9 -78.5,0 -148.2,38.8 -208.9,115.8 -60.7,76.9 -108,189.3 -141.8,335.6 -33.8,147.1 -50.7,282.6 -50.7,405.8 0,153.2 26,274.4 78.4,364.2 52.4,89.9 118.3,134.8 197.7,134.8 99.6,0 182.9,-68.1 250.5,-203.6 96.3,-191.3 144.4,-424.8 144.4,-699.8z"/>
   <path id="_32" class="fil2 str0" d="M20924 21520.2l385.3 87.9c0,61.2 6.6,107.5 19.1,138.1 12.6,31.4 33,57.9 61.1,80.4 28.2,21.8 66.8,32.6 115.4,32.6 81.9,0 147.8,-23.8 197.2,-72.1 36.8,-37.4 67.2,-97.4 90.6,-180.4 14.3,-51.8 32.9,-165.5 55.4,-340.5l13 -99.4c-132.7,164.7 -270.1,247.1 -411.8,247.1 -132.2,0 -240.5,-73.5 -325.1,-219.9 -84.5,-146.4 -127,-361.5 -127,-644.1 0,-249.1 28.6,-477.8 86.3,-685.5 57.6,-207.6 138.7,-364.9 243.2,-471.8 104,-106.9 210.6,-160 319,-160 89.3,0 171.2,37.5 245.8,112.3 74.1,75.6 131.8,180.4 173.4,315.9l47.3 -375.1 342.8 0 -214.9 1772.1c-39,282.5 -72.1,484 -98.9,605.2 -26.9,120.5 -57.6,216.4 -92.3,287.9 -34.2,72.2 -78,132.1 -130.9,180.4 -52.9,48.3 -114.9,83.1 -186.8,104.2 -71.9,21.1 -149.5,32 -233.6,32 -190.4,0 -334.2,-51 -431.3,-153.1 -97.1,-102.8 -146.1,-273 -146.1,-510.6 0,-25.1 1.3,-53.1 4,-83.7zm429.5 -1028c0,162 23,285.3 68.9,369.7 45.9,85.1 103.6,127.3 173,127.3 65,0 127.8,-38.2 189,-114.4 61.1,-76.3 107.9,-183.8 140.4,-324.1 32.5,-140.3 48.9,-275.8 48.9,-407.1 0,-150.5 -26.8,-272.3 -79.8,-364.2 -53.3,-91.9 -114.8,-138.2 -184.6,-138.2 -65.4,0 -125.2,40.9 -179.9,121.9 -54.6,81.6 -99.6,206.9 -135.2,377.1 -27.3,130.7 -40.8,247.8 -40.8,352z"/>
   <path id="_33" class="fil2 str0" d="M23046.2 19878.1l-356.3 -47c40.7,-187.8 111.8,-334.2 213.2,-439.8 101.4,-105.5 235.3,-158.7 402.7,-158.7 173.8,0 302.5,55.2 385.4,164.8 83.2,110.2 124.8,244.4 124.8,403 0,64 -3.4,132.1 -10.8,203.6 -7.3,72.1 -32.5,261.4 -75.8,567.8 -36,253.3 -53.7,430.9 -53.7,532.3 0,90.6 10.4,190.6 30.8,301.6l-355.8 0c-13.9,-76.9 -22.5,-157.2 -26.1,-239.6 -53.3,93.2 -114.9,165.4 -184.2,216.5 -69.3,51 -139.5,76.3 -209.8,76.3 -111.8,0 -204.1,-57.9 -277,-173.6 -72.8,-115.8 -109.2,-264.2 -109.2,-445.9 0,-202.9 39.9,-365.6 120.1,-486.8 80.2,-121.8 223.2,-195.3 429.2,-220.5 173.8,-23.1 289.9,-50.4 348.4,-82.4 15.2,-80.3 23,-144.3 23,-192 0,-62 -15.6,-113 -47.2,-154.5 -31.2,-41.5 -78.1,-62 -140,-62 -65.1,0 -116.6,20.4 -154.4,62 -37.7,40.9 -63.7,99.4 -77.1,175zm347.2 535.1c-22.1,9.5 -51.1,18.4 -87.5,26.6 -183,34.7 -302.6,85.8 -358.5,153.2 -39.9,49 -59.8,114.4 -59.8,196 0,68.1 15.1,124.6 46,171.6 30.4,46.2 70.6,69.5 120.5,69.5 55,0 107,-21.1 155.6,-64 49,-42.2 85.4,-96.7 109.2,-163.5 24.3,-66.7 45.6,-170.9 64.2,-312.5l10.4 -76.9z"/>
   <path id="_34" class="fil2 str0" d="M24239.5 19285.8l342.5 0 -51.6 399c125.7,-301.6 261.8,-452.1 408.8,-452.1 52,0 107.9,20.4 167.2,62l-140.4 468.4c-33,-18.4 -68.5,-27.9 -105.8,-27.9 -62.8,0 -126.5,37.4 -191.6,112.3 -64.9,74.8 -115.7,174.2 -152.1,299.5 -36.8,124.6 -72.8,322.7 -108.4,593.7l-87.1 665.1 -364.1 0 282.6 -2120z"/>
   <path id="_35" class="fil2 str0" d="M25980.3 19285.8l345.5 0 -27.3 215.8c73.7,-96 143,-165.5 207.6,-207 64.2,-41.5 133.5,-62 207.2,-62 141.8,0 255.8,76.9 342,230.1 86.3,153.9 129.2,382.6 129.2,687 0,382.6 -74.6,706.6 -223.7,970.7 -127.5,225.3 -278.7,338.4 -453.5,338.4 -179.9,0 -315.5,-113.1 -407.4,-339.1l-143.4 1094.8 -363.7 0 387.5 -2928.8zm218.4 1215.9c0,167.4 26,297.5 77.6,389.4 52,92.6 112.7,138.9 183,138.9 60.6,0 119.1,-34.7 175.5,-103.5 56.3,-69.5 103.2,-183.8 140,-344.5 37.2,-160 56,-309.1 56,-445.9 0,-159.3 -24.3,-281.8 -73.3,-366.9 -48.5,-85.1 -110.5,-128.1 -185.5,-128.1 -70.2,0 -133.9,38.8 -191.6,117.1 -57.7,78.3 -102.3,193.4 -133.9,345.2 -31.6,151.9 -47.7,284.5 -47.7,398.3z"/>
   <path id="_36" class="fil2 str0" d="M27816 19878.1l-356.3 -47c40.7,-187.8 111.8,-334.2 213.2,-439.8 101.4,-105.5 235.3,-158.7 402.7,-158.7 173.8,0 302.5,55.2 385.4,164.8 83.2,110.2 124.8,244.4 124.8,403 0,64 -3.4,132.1 -10.8,203.6 -7.3,72.1 -32.5,261.4 -75.8,567.8 -36,253.3 -53.7,430.9 -53.7,532.3 0,90.6 10.4,190.6 30.8,301.6l-355.8 0c-13.9,-76.9 -22.5,-157.2 -26.1,-239.6 -53.3,93.2 -114.9,165.4 -184.2,216.5 -69.3,51 -139.5,76.3 -209.8,76.3 -111.8,0 -204.1,-57.9 -277,-173.6 -72.8,-115.8 -109.2,-264.2 -109.2,-445.9 0,-202.9 39.9,-365.6 120.1,-486.8 80.2,-121.8 223.2,-195.3 429.2,-220.5 173.8,-23.1 289.9,-50.4 348.4,-82.4 15.2,-80.3 23,-144.3 23,-192 0,-62 -15.6,-113 -47.2,-154.5 -31.2,-41.5 -78.1,-62 -140,-62 -65.1,0 -116.6,20.4 -154.4,62 -37.7,40.9 -63.7,99.4 -77.1,175zm347.2 535.1c-22.1,9.5 -51.1,18.4 -87.5,26.6 -183,34.7 -302.6,85.8 -358.5,153.2 -39.9,49 -59.8,114.4 -59.8,196 0,68.1 15.1,124.6 46,171.6 30.4,46.2 70.6,69.5 120.5,69.5 55,0 107,-21.1 155.6,-64 49,-42.2 85.4,-96.7 109.2,-163.5 24.3,-66.7 45.6,-170.9 64.2,-312.5l10.4 -76.9z"/>
   <path id="_37" class="fil2 str0" d="M29009.3 19285.8l342.5 0 -51.6 399c125.7,-301.6 261.8,-452.1 408.8,-452.1 52,0 107.9,20.4 167.2,62l-140.4 468.4c-33,-18.4 -68.5,-27.9 -105.8,-27.9 -62.8,0 -126.5,37.4 -191.6,112.3 -65,74.8 -115.7,174.2 -152.1,299.5 -36.8,124.6 -72.8,322.7 -108.4,593.7l-87.1 665.1 -364.1 0 282.6 -2120z"/>
   <path id="_38" class="fil2 str0" d="M30274.5 19878.1l-356.3 -47c40.7,-187.8 111.8,-334.2 213.2,-439.8 101.4,-105.5 235.3,-158.7 402.7,-158.7 173.8,0 302.5,55.2 385.4,164.8 83.2,110.2 124.9,244.4 124.9,403 0,64 -3.5,132.1 -10.9,203.6 -7.3,72.1 -32.5,261.4 -75.8,567.8 -36,253.3 -53.7,430.9 -53.7,532.3 0,90.6 10.4,190.6 30.8,301.6l-355.8 0c-13.9,-76.9 -22.5,-157.2 -26,-239.6 -53.4,93.2 -114.9,165.4 -184.2,216.5 -69.4,51 -139.6,76.3 -209.9,76.3 -111.8,0 -204.1,-57.9 -277,-173.6 -72.8,-115.8 -109.2,-264.2 -109.2,-445.9 0,-202.9 39.9,-365.6 120.1,-486.8 80.2,-121.8 223.2,-195.3 429.2,-220.5 173.8,-23.1 290,-50.4 348.4,-82.4 15.2,-80.3 23,-144.3 23,-192 0,-62 -15.6,-113 -47.3,-154.5 -31.2,-41.5 -78,-62 -140,-62 -65.1,0 -116.6,20.4 -154.4,62 -37.7,40.9 -63.7,99.4 -77.1,175zm347.2 535.1c-22,9.5 -51.1,18.4 -87.5,26.6 -183,34.7 -302.6,85.8 -358.4,153.2 -39.9,49 -59.9,114.4 -59.9,196 0,68.1 15.2,124.6 46,171.6 30.4,46.2 70.6,69.5 120.5,69.5 55,0 107,-21.1 155.6,-64 49,-42.2 85.4,-96.7 109.3,-163.5 24.2,-66.7 45.5,-170.9 64.1,-312.5l10.4 -76.9z"/>
   <polygon id="_39" class="fil2 str0" points="31926,21405.8 32316.2,18481.2 32679.8,18481.2 32290.2,21405.8 "/>
   <path id="_40" class="fil2 str0" d="M33166.2 19878.1l-356.3 -47c40.7,-187.8 111.8,-334.2 213.2,-439.8 101.4,-105.5 235.3,-158.7 402.7,-158.7 173.8,0 302.5,55.2 385.4,164.8 83.2,110.2 124.8,244.4 124.8,403 0,64 -3.4,132.1 -10.8,203.6 -7.3,72.1 -32.5,261.4 -75.8,567.8 -36,253.3 -53.7,430.9 -53.7,532.3 0,90.6 10.4,190.6 30.8,301.6l-355.8 0c-13.9,-76.9 -22.5,-157.2 -26.1,-239.6 -53.3,93.2 -114.9,165.4 -184.2,216.5 -69.3,51 -139.5,76.3 -209.8,76.3 -111.8,0 -204.1,-57.9 -277,-173.6 -72.8,-115.8 -109.2,-264.2 -109.2,-445.9 0,-202.9 39.9,-365.6 120.1,-486.8 80.2,-121.8 223.2,-195.3 429.2,-220.5 173.8,-23.1 289.9,-50.4 348.4,-82.4 15.2,-80.3 23,-144.3 23,-192 0,-62 -15.6,-113 -47.2,-154.5 -31.2,-41.5 -78,-62 -140,-62 -65.1,0 -116.6,20.4 -154.4,62 -37.7,40.9 -63.7,99.4 -77.1,175zm347.2 535.1c-22.1,9.5 -51.1,18.4 -87.5,26.6 -183,34.7 -302.6,85.8 -358.5,153.2 -39.9,49 -59.8,114.4 -59.8,196 0,68.1 15.1,124.6 46,171.6 30.4,46.2 70.6,69.5 120.5,69.5 55,0 107,-21.1 155.6,-64 49,-42.2 85.4,-96.7 109.2,-163.5 24.3,-66.7 45.6,-170.9 64.2,-312.5l10.4 -76.9z"/>
   <polygon id="_41" class="fil2 str0" points="35632.9,21405.8 35250.2,21405.8 35574.9,18971.3 35028.3,18971.3 35090.7,18481.2 36557.6,18481.2 36495.1,18971.3 35957.6,18971.3 "/>
   <path id="_42" class="fil2 str0" d="M37626 20523.5l-915.9 0c-0.8,22.5 -1.3,40.1 -1.3,52.4 0,142.3 26,256.7 77.6,343.8 51.5,87.1 114.9,130.7 188.9,130.7 122.3,0 217.6,-98 286.1,-294.1l325.1 85.8c-63.7,205.6 -148.7,359.5 -255.4,462.3 -106.5,102.7 -225.8,154.5 -358.4,154.5 -181.7,0 -329.5,-90.6 -443,-271 -114,-181.1 -170.8,-420.1 -170.8,-718.2 0,-290.7 51.1,-549.4 153.9,-776.8 139.6,-307.1 339.4,-460.3 598.6,-460.3 165.1,0 296.5,80.4 394,241.1 97.5,160.6 146.1,385.9 146.1,675.4 0,138.8 -8.7,263.4 -25.6,374.4zm-307.3 -347.3c0.9,-25.8 1.3,-44.9 1.3,-58.5 0,-158.6 -22.5,-277.7 -67.7,-357.4 -44.6,-79.6 -104.9,-119.1 -180.7,-119.1 -75.4,0 -143,45 -202.9,135.5 -59.8,89.8 -100.1,223.2 -121.3,399.6l571.3 0z"/>
   <path id="_43" class="fil2 str0" d="M38020.5 19285.8l342.4 0 -51.6 399c125.7,-301.6 261.8,-452.1 408.8,-452.1 52,0 108,20.4 167.3,62l-140.4 468.4c-33,-18.4 -68.5,-27.9 -105.8,-27.9 -62.9,0 -126.6,37.4 -191.6,112.3 -65,74.8 -115.8,174.2 -152.2,299.5 -36.8,124.6 -72.8,322.7 -108.3,593.7l-87.1 665.1 -364.1 0 282.6 -2120z"/>
   <path id="_44" class="fil2 str0" d="M39683.7 20609.3l353.7 89.9c-58.5,247.8 -144.5,436.4 -258.8,565.7 -114,129.3 -246.2,194.1 -396.6,194.1 -171.7,0 -307.7,-81.1 -408.4,-242.4 -100.5,-161.4 -150.8,-383.2 -150.8,-666.5 0,-230.7 30.4,-449.3 91.4,-654.9 60.7,-205.6 152.6,-366.9 275.3,-485.3 122.7,-117.8 257,-177.1 403.6,-177.1 159,0 286,65.4 380.5,196.8 95,130.7 148.3,303 160,516.8l-345.9 58.5c-8.7,-119.1 -31.6,-206.9 -69.3,-262.8 -37.8,-56.5 -86.8,-84.4 -147.8,-84.4 -70.3,0 -136.1,41.5 -196.8,123.9 -61.1,83.1 -107.9,207 -140.5,371.7 -32.5,164.8 -48.9,319.3 -48.9,463.6 0,126 19.5,222.7 58.1,290.7 39,68.1 87.5,102.2 146.1,102.2 58.1,0 114.4,-33.4 168.7,-100.1 53.7,-66.8 96.2,-166.8 126.5,-300.3z"/>
   <path id="_45" class="fil2 str0" d="M41531.1 20523.5l-915.9 0c-0.8,22.5 -1.3,40.1 -1.3,52.4 0,142.3 26,256.7 77.6,343.8 51.5,87.1 114.9,130.7 188.9,130.7 122.3,0 217.6,-98 286.1,-294.1l325.1 85.8c-63.7,205.6 -148.7,359.5 -255.4,462.3 -106.5,102.7 -225.8,154.5 -358.4,154.5 -181.7,0 -329.4,-90.6 -443,-271 -114,-181.1 -170.8,-420.1 -170.8,-718.2 0,-290.7 51.1,-549.4 153.9,-776.8 139.6,-307.1 339.4,-460.3 598.6,-460.3 165.1,0 296.5,80.4 394,241.1 97.5,160.6 146.1,385.9 146.1,675.4 0,138.8 -8.7,263.4 -25.6,374.4zm-307.3 -347.3c0.9,-25.8 1.3,-44.9 1.3,-58.5 0,-158.6 -22.5,-277.7 -67.6,-357.4 -44.6,-79.6 -104.9,-119.1 -180.8,-119.1 -75.4,0 -143,45 -202.9,135.5 -59.8,89.8 -100.1,223.2 -121.3,399.6l571.3 0z"/>
   <path id="_46" class="fil2 str0" d="M41925.6 19285.8l342.4 0 -51.6 399c125.7,-301.6 261.8,-452.1 408.8,-452.1 52,0 108,20.4 167.3,62l-140.4 468.4c-33,-18.4 -68.5,-27.9 -105.8,-27.9 -62.9,0 -126.5,37.4 -191.6,112.3 -65,74.8 -115.8,174.2 -152.2,299.5 -36.8,124.6 -72.7,322.7 -108.3,593.7l-87.1 665.1 -364.1 0 282.6 -2120z"/>
   <path id="_47" class="fil2 str0" d="M43190.9 19878.1l-356.3 -47c40.8,-187.8 111.8,-334.2 213.2,-439.8 101.5,-105.5 235.4,-158.7 402.7,-158.7 173.9,0 302.5,55.2 385.4,164.8 83.2,110.2 124.9,244.4 124.9,403 0,64 -3.4,132.1 -10.8,203.6 -7.3,72.1 -32.5,261.4 -75.8,567.8 -36,253.3 -53.8,430.9 -53.8,532.3 0,90.6 10.5,190.6 30.9,301.6l-355.9 0c-13.8,-76.9 -22.5,-157.2 -26,-239.6 -53.3,93.2 -114.9,165.4 -184.2,216.5 -69.3,51 -139.6,76.3 -209.8,76.3 -111.8,0 -204.2,-57.9 -277,-173.6 -72.8,-115.8 -109.2,-264.2 -109.2,-445.9 0,-202.9 39.9,-365.6 120.1,-486.8 80.2,-121.8 223.2,-195.3 429.2,-220.5 173.7,-23.1 289.9,-50.4 348.4,-82.4 15.2,-80.3 23,-144.3 23,-192 0,-62 -15.6,-113 -47.2,-154.5 -31.3,-41.5 -78.1,-62 -140,-62 -65.1,0 -116.6,20.4 -154.4,62 -37.7,40.9 -63.7,99.4 -77.1,175zm347.1 535.1c-22,9.5 -51.1,18.4 -87.5,26.6 -182.9,34.7 -302.5,85.8 -358.4,153.2 -39.9,49 -59.8,114.4 -59.8,196 0,68.1 15.1,124.6 45.9,171.6 30.4,46.2 70.7,69.5 120.5,69.5 55.1,0 107.1,-21.1 155.6,-64 48.9,-42.2 85.4,-96.7 109.2,-163.5 24.3,-66.7 45.5,-170.9 64.2,-312.5l10.3 -76.9z"/>
   <polygon id="_48" class="fil2 str0" points="44847.5,21405.8 45237.6,18481.2 46616,18481.2 46551,18971.3 45554.4,18971.3 45463,19633 46428.7,19633 46363.7,20123.2 45395,20123.2 45284.9,20915.6 46366.3,20915.6 46301.3,21405.8 "/>
   <path id="_49" class="fil2 str0" d="M47824.9 21405.8l-345.4 0 30.4 -226.7c-65.9,100.1 -131,171.5 -195.2,215.1 -63.7,42.9 -135.6,64.7 -216.3,64.7 -139.6,0 -252.7,-74.9 -339.4,-225.3 -86.7,-149.8 -130.1,-371.7 -130.1,-665.9 0,-340.4 62,-647.4 185.6,-922.5 123.5,-275 286.9,-412.6 490.2,-412.6 183.8,0 321.6,113.8 413.5,341.8l151.3 -1093.3 363.7 0 -408.3 2924.7zm-842.2 -860.5c0,151.8 24.7,270.9 73.7,356.7 49.4,85.2 110.1,128.1 182,128.1 66.8,0 129.2,-35.4 186.8,-107 58.1,-71.5 104,-181 138.7,-328.1 34.6,-146.4 52,-287.3 52,-422.8 0,-153.2 -26.4,-277.8 -79.3,-372.4 -53.3,-94.6 -114.4,-142.3 -183.8,-142.3 -107.9,0 -196.8,93.2 -266.1,280.5 -69.4,187.2 -104,389.4 -104,607.2z"/>
   <path id="_50" class="fil2 str0" d="M48683.1 19878.1l-356.3 -47c40.7,-187.8 111.8,-334.2 213.2,-439.8 101.4,-105.5 235.3,-158.7 402.7,-158.7 173.8,0 302.5,55.2 385.4,164.8 83.2,110.2 124.9,244.4 124.9,403 0,64 -3.5,132.1 -10.9,203.6 -7.3,72.1 -32.5,261.4 -75.8,567.8 -36,253.3 -53.7,430.9 -53.7,532.3 0,90.6 10.4,190.6 30.8,301.6l-355.8 0c-13.9,-76.9 -22.5,-157.2 -26,-239.6 -53.4,93.2 -114.9,165.4 -184.2,216.5 -69.4,51 -139.6,76.3 -209.9,76.3 -111.8,0 -204.1,-57.9 -277,-173.6 -72.8,-115.8 -109.2,-264.2 -109.2,-445.9 0,-202.9 39.9,-365.6 120.1,-486.8 80.2,-121.8 223.2,-195.3 429.2,-220.5 173.8,-23.1 290,-50.4 348.4,-82.4 15.2,-80.3 23,-144.3 23,-192 0,-62 -15.6,-113 -47.3,-154.5 -31.2,-41.5 -78,-62 -140,-62 -65.1,0 -116.6,20.4 -154.4,62 -37.7,40.9 -63.7,99.4 -77.1,175zm347.2 535.1c-22,9.5 -51.1,18.4 -87.5,26.6 -183,34.7 -302.6,85.8 -358.4,153.2 -39.9,49 -59.9,114.4 -59.9,196 0,68.1 15.2,124.6 46,171.6 30.4,46.2 70.6,69.5 120.5,69.5 55,0 107,-21.1 155.6,-64 49,-42.2 85.4,-96.7 109.3,-163.5 24.2,-66.7 45.5,-170.9 64.1,-312.5l10.4 -76.9z"/>
   <path id="_51" class="fil2 str0" d="M50860 21405.8l-345.4 0 30.4 -226.7c-65.9,100.1 -131,171.5 -195.1,215.1 -63.7,42.9 -135.7,64.7 -216.3,64.7 -139.6,0 -252.7,-74.9 -339.4,-225.3 -86.7,-149.8 -130.1,-371.7 -130.1,-665.9 0,-340.4 62,-647.4 185.6,-922.5 123.5,-275 287,-412.6 490.2,-412.6 183.8,0 321.6,113.8 413.5,341.8l151.3 -1093.3 363.7 0 -408.3 2924.7zm-842.2 -860.5c0,151.8 24.7,270.9 73.7,356.7 49.4,85.2 110.1,128.1 182,128.1 66.8,0 129.2,-35.4 186.8,-107 58.1,-71.5 104,-181 138.7,-328.1 34.6,-146.4 52,-287.3 52,-422.8 0,-153.2 -26.4,-277.8 -79.3,-372.4 -53.3,-94.6 -114.4,-142.3 -183.7,-142.3 -108,0 -196.8,93.2 -266.2,280.5 -69.4,187.2 -104,389.4 -104,607.2z"/>
  </g>
  <g id="_1516965590208">
   <path class="fil0" d="M52629.6 8619.1c0,760.3 -101.3,1487.8 -307.1,2179.4 -62.6,208.7 -152,313 -262.3,313 -83.5,0 -262.3,-116.3 -542.6,-348.9 -140.2,-116.3 -175.9,-283.2 -104.3,-497.9 166.9,-530.7 250.4,-957 250.4,-1276 0,-110.3 -23.9,-167 -71.6,-167 -68.5,0 -181.9,104.3 -339.9,316.1 -1213.4,1577.1 -2122.8,3351 -2725,5312.8 -190.8,623.1 -354.7,936.1 -488.9,936.1 -53.6,0 -283.2,-101.3 -691.7,-307.1 -199.8,-98.4 -265.4,-292.2 -202.7,-578.4 459.1,-2018.3 951.1,-3720.7 1478.8,-5110 -432.4,456.1 -706.6,766.2 -822.8,936.1 -44.7,68.6 -110.3,104.3 -190.9,104.3 -98.4,0 -149.1,-44.6 -149.1,-131.2 0,-50.7 23.9,-110.3 68.6,-172.9 286.2,-342.9 667.8,-864.6 1144.9,-1568.2 146.1,-253.4 292.1,-381.6 438.2,-381.6 104.3,0 316,80.5 635,244.4 181.9,92.4 211.7,217.7 89.5,375.7 -128.2,169.9 -369.7,766.2 -724.5,1791.8 -339.9,995.7 -572.4,1773.9 -700.7,2340.3 796,-1764.9 1699.4,-3321.2 2710.1,-4671.7 193.8,-256.4 348.8,-384.6 465.1,-384.6 104.3,0 247.5,71.6 429.3,214.7 247.5,29.8 399.5,65.6 465.1,113.3 98.4,68.6 149.1,208.7 149.1,417.4z"/>
   <path class="fil0" d="M46441.2 9582.1c-11.9,518.8 -137.1,1207.4 -375.6,2063.1 -378.6,1353.6 -915.3,2400 -1607,3148.3 -369.7,396.5 -775.2,593.3 -1225.3,593.3 -175.9,0 -399.5,-38.8 -673.8,-113.3 -545.6,-35.8 -992.8,-205.8 -1335.7,-515.8 -372.7,-336.9 -548.6,-769.2 -524.7,-1299.9 23.8,-617.1 235.5,-1475.7 637.9,-2581.8 441.3,-1204.4 903.4,-2072 1380.4,-2599.7 226.6,-256.5 414.4,-384.6 560.5,-384.6 196.8,0 518.8,199.7 960,602.2 122.3,-59.6 372.7,-166.9 751.4,-325 193.7,-65.6 339.9,-98.4 438.2,-98.4 226.5,0 479.9,211.7 760.2,638 181.9,262.3 265.4,554.5 253.4,873.5zm-1007.6 259.4c38.8,-390.6 59.6,-638 59.6,-742.4 0,-244.5 -74.6,-366.7 -226.6,-366.7 -56.7,0 -134.2,11.9 -226.6,35.7l-1350.5 548.6c-158,62.6 -247.5,95.4 -271.3,95.4 -44.7,0 -92.5,-56.7 -137.1,-167 -336.9,414.4 -653,1013.7 -942.1,1794.8 -226.6,611.1 -384.6,1159.7 -471,1642.6 -62.6,328 -95.4,623.1 -95.4,891.4 0,897.4 277.3,1335.7 828.8,1311.8 220.6,-6 459.2,-92.4 712.6,-262.3 488.9,-331 945.1,-995.8 1368.4,-1991.5 408.5,-939.1 655.9,-1869.3 751.4,-2790.5z"/>
   <path class="fil0" d="M44457.7 1595.1c68.6,53.6 104.3,110.3 104.3,172.9 0,110.3 -68.5,167 -208.7,167 -53.6,0 -107.3,-14.9 -166.9,-41.7 -271.3,-128.2 -477,-190.9 -611.2,-190.9 -357.8,0 -757.3,354.8 -1192.5,1064.3 -1600.9,2614.6 -2766.7,6093.9 -3497.1,10443.7 149.1,-146.1 354.7,-375.7 611.2,-682.8 149,-181.9 262.3,-271.3 330.9,-271.3 158.1,0 173,89.4 44.7,271.3 -560.5,772.2 -930.1,1607 -1112,2501.4 -68.6,214.7 -158.1,322 -262.4,322 -50.6,0 -116.2,-26.8 -190.8,-77.5 -292.2,-199.7 -456.1,-316 -491.9,-348.8 -116.3,-110.3 -175.9,-259.4 -175.9,-444.2 0,-98.4 14.9,-214.7 44.7,-348.9 250.4,-1341.6 459.1,-2343.3 623.1,-2999.2 -572.4,819.9 -1219.4,1636.8 -1937.9,2453.7 -721.5,816.9 -1246.2,1332.6 -1574.1,1547.3 -250.5,169.9 -435.3,253.4 -560.5,253.4 -104.3,0 -265.4,-83.5 -480,-253.4 -378.6,-232.6 -569.4,-503.8 -569.4,-811 0,-53.6 6,-110.2 17.9,-175.9 122.2,-864.5 512.7,-1869.2 1168.7,-3014.1 655.8,-1141.8 1410.2,-2104.8 2253.8,-2882.9 277.3,-256.4 521.7,-381.6 736.4,-375.6 229.5,11.9 635.1,289.2 1219.4,834.8 50.7,47.7 77.5,98.4 77.5,152 0,92.4 -62.6,140.1 -184.8,140.1 -38.8,0 -83.5,-11.9 -131.2,-35.7 -408.5,-173 -739.4,-169.9 -995.8,17.9 -548.6,408.4 -1153.8,1115 -1812.7,2122.7 -763.2,1165.7 -1213.4,2212.1 -1347.6,3145.3 -29.8,220.6 29.8,331 175.9,331 193.8,0 429.3,-137.1 709.6,-411.4 650,-635 1347.6,-1431 2095.9,-2394 766.2,-995.8 1255.1,-1747.1 1472.7,-2253.9 122.3,-280.2 217.7,-548.6 286.2,-804.9 605.2,-2143.6 1279,-3974.1 2021.4,-5494.6 581.3,-1186.6 1091.2,-1985.5 1532.4,-2394 164,-158 319,-235.5 471,-235.5 161,0 369.7,95.4 626.1,286.2 289.2,238.5 584.4,477 879.5,715.5z"/>
   <path class="fil0" d="M32791.8 12044.6c-348.9,527.7 -802,1296.9 -1359.5,2304.6 -104.3,262.3 -205.7,521.7 -307.1,784.1 -80.5,181.9 -187.8,271.3 -322,271.3 -104.3,0 -259.4,-44.6 -462.1,-131.2 -226.6,-92.4 -339.9,-184.8 -339.9,-280.2 0,-38.8 38.8,-128.1 113.3,-268.3 378.6,-769.2 718.5,-1726.2 1016.6,-2871 319,-1201.5 456.1,-2122.8 411.4,-2754.8 -11.9,-256.4 -71.6,-384.5 -175.9,-384.5 -74.5,0 -190.8,71.5 -339.9,217.6 -1469.9,1431 -2739.8,3345.1 -3810.1,5742 -134.2,295.2 -292.2,444.3 -471.1,444.3 -128.1,0 -342.8,-71.6 -637.9,-217.7 -119.3,-53.6 -178.9,-101.3 -184.9,-149.1 0,-23.8 32.8,-104.3 95.4,-244.4 336.8,-736.4 670.8,-1672.6 1001.7,-2805.4 354.8,-1228.4 557.6,-2185.4 602.3,-2871.1 11.9,-208.7 6,-313 -17.9,-313 -6,0 -86.4,77.5 -244.4,232.6 -158.1,155 -375.7,354.7 -655.9,602.2 -53.6,50.7 -110.3,77.5 -175.9,77.5 -80.5,0 -122.3,-32.8 -122.3,-95.3 0,-47.8 29.8,-98.4 86.5,-158.1 250.4,-319 578.3,-715.5 986.8,-1189.5 86.4,-98.4 175.9,-149.1 268.3,-149.1 140.1,0 262.3,101.4 366.7,304.1 471,140.1 691.7,354.7 661.9,646.9 -62.6,641 -390.6,1794.7 -980.9,3464.3 390.6,-751.3 957,-1592 1702.3,-2519.2 745.4,-930.2 1296.9,-1478.8 1657.7,-1648.7 181.8,-80.5 310,-122.3 384.6,-122.3 74.5,0 196.8,65.6 366.7,196.8 483,170 724.5,447.2 724.5,837.8 0,408.5 -98.4,1061.4 -295.1,1964.7 -158.1,745.4 -304.1,1323.7 -438.3,1735.1 169.9,-214.7 384.6,-494.9 644,-837.7 44.7,-56.7 92.4,-86.4 137.1,-86.4 86.4,0 131.2,56.6 131.2,166.9 0,32.8 -6,68.6 -17.8,104.3z"/>
   <path class="fil0" d="M25478.5 12667.8c-1419.2,1812.7 -2414.9,2719 -2993.3,2719 -274.3,0 -620.1,-190.9 -1040.5,-569.5 -438.2,-205.7 -655.8,-479.9 -655.8,-822.8 0,-65.6 6,-131.2 17.8,-202.7 104.3,-799 319,-1684.4 644,-2653.4 -214.7,-110.3 -322,-217.6 -322,-316 0,-80.6 59.6,-122.3 181.9,-122.3 95.3,0 190.8,26.8 289.2,80.5 515.8,-1159.8 980.8,-1985.5 1392.3,-2474.5 268.3,-325 506.8,-486 721.4,-486 98.4,0 342.9,83.5 733.5,253.4 -29.8,-175.9 20.9,-277.2 149,-307.1 6,0 143.1,0 411.5,0 253.3,0 378.6,44.7 378.6,131.2 0,17.9 -9,65.6 -26.9,149.1 -17.8,80.5 -26.8,158 -26.8,226.6 0,208.7 3,468.1 9,778.1 6,307.1 8.9,515.8 8.9,620.1 0,721.5 -196.8,1225.3 -593.3,1511.6 -360.7,262.3 -769.2,393.5 -1222.3,393.5 -238.5,0 -632.1,-65.6 -1186.6,-193.7 -98.4,178.8 -208.7,530.6 -331,1055.4 -164,661.8 -238.5,1249.1 -226.6,1762 6,301.1 101.4,453.1 289.2,453.1 68.5,0 158,-17.9 271.3,-53.6 673.8,-235.5 1615.9,-963 2820.4,-2176.4 77.5,-74.5 152,-113.3 226.5,-113.3 110.3,0 167,53.6 167,158 0,62.6 -29.8,131.2 -86.4,199.8zm-1022.6 -3863.9c0,-226.6 -50.7,-339.9 -149.1,-339.9 -62.6,0 -158,47.7 -280.2,140.2 -572.4,459.1 -1073.2,1267 -1505.6,2417.8 116.3,17.9 319,35.8 611.2,53.7 471,17.8 822.8,-89.5 1055.4,-322 172.9,-175.9 268.3,-465.1 286.2,-864.5 -11.9,295.1 -17.9,-65.6 -17.9,-1085.3z"/>
   <path class="fil0 str2" d="M24503.6 1604c74.6,59.6 113.3,119.2 113.3,181.9 0,110.3 -65.6,167 -199.8,167 -59.6,0 -119.2,-17.9 -184.8,-50.7 -268.3,-134.2 -468.1,-199.8 -602.2,-199.8 -366.8,0 -769.2,354.8 -1207.5,1064.3 -1583,2578.9 -2710,5909.1 -3380.8,9993.5 -17.9,113.3 -47.7,259.4 -86.4,447.2 134.1,-140.1 330.9,-366.7 593.3,-679.7 152,-181.9 262.3,-271.3 333.9,-271.3 152,0 161,89.4 32.8,271.3 -557.6,796 -930.2,1627.8 -1109.1,2501.4 -65.6,214.7 -146.1,322 -244.5,322 -47.7,0 -110.3,-26.8 -184.8,-77.5 -298.2,-199.7 -468.1,-316 -506.9,-348.8 -116.3,-116.3 -175.9,-268.3 -175.9,-456.1 0,-92.4 15,-205.8 44.7,-339.9 673.8,-3705.9 1547.3,-6863.1 2611.7,-9468.7 804.9,-1967.7 1523.4,-3240.7 2158.5,-3822.1 175.9,-164 351.8,-241.5 524.7,-235.5 158,5.9 363.7,104.3 614.1,295.1 283.3,232.5 569.5,468.1 855.6,706.5z"/>
   <path class="fil0" d="M16862.4 9769.8c-71.6,983.9 -330.9,2042.3 -778.1,3172.2 -420.3,1052.4 -834.8,1773.9 -1243.2,2158.5 -232.5,214.7 -468,322 -709.5,322 -268.4,0 -712.6,-217.6 -1335.7,-650 -122.3,-83.4 -184.9,-166.9 -184.9,-256.4 0,-110.3 77.5,-166.9 235.6,-166.9 65.6,0 158,20.9 280.2,62.6 122.3,41.8 223.7,62.6 298.2,62.6 426.4,0 808,-271.3 1144.9,-813.9 286.2,-465.1 557.5,-1091.1 813.9,-1878.2 310,-977.9 444.2,-1821.6 402.4,-2525.2 -14.9,-336.9 -131.2,-506.9 -339.9,-506.9 -184.8,0 -414.4,128.2 -682.8,384.6 -1887.2,1806.7 -3216.8,3965.2 -3986,6478.4 -438.2,1428.1 -727.4,2748.8 -873.5,3968.2 -6,41.7 -83.5,1052.4 -235.5,3032 -23.8,286.2 -95.3,429.3 -211.6,429.3 -122.3,0 -339.9,-143.1 -655.9,-429.3 -226.6,-208.7 -313,-465.1 -262.3,-769.2 256.4,-2900.9 957,-6129.6 2104.8,-9689.4 903.3,-2784.6 1618.8,-4588.2 2149.5,-5417.1 313,-483 593.3,-718.5 837.8,-706.5 244.4,6 712.5,223.6 1398.2,652.9 92.4,56.7 140.2,119.2 140.2,181.9 0,86.4 -68.6,131.2 -208.7,131.2 -35.8,0 -95.4,-6 -175.9,-17.9 -80.6,-11.9 -143.1,-17.8 -181.9,-17.8 -366.7,0 -748.3,310 -1144.9,933.2 -232.5,354.7 -527.7,948 -882.4,1785.8 -354.7,837.7 -611.2,1526.4 -769.2,2066 858.7,-1395.2 1854.4,-2593.7 2990.2,-3592.4 175.9,-152.1 334,-226.6 474.1,-226.6 62.6,0 223.6,86.4 480,262.3 793,280.2 1162.7,804.9 1112,1580.1z"/>
   <path class="fil0" d="M8678.6 12500.8c0,1052.5 -533.6,1899.1 -1604,2537.1 -310,483 -706.5,724.5 -1195.5,724.5 -867.6,-11.9 -1830.6,-399.5 -2894.9,-1159.8 -915.2,-652.9 -1544.4,-1281.9 -1893.1,-1887.2 -331,-563.4 -497.9,-918.3 -497.9,-1064.3 0,-178.9 131.2,-384.6 390.5,-611.2 241.5,-214.7 435.3,-322 572.4,-322 134.2,0 199.8,86.4 199.8,262.3 0,74.5 -14.9,167 -44.7,277.2 310.1,834.8 960,1613 1955.8,2334.4 995.8,718.6 1896.2,1079.3 2704.1,1079.3 715.5,-6 1073.2,-494.9 1073.2,-1466.8 0,-533.7 -414.4,-1604 -1243.2,-3207.9 -828.8,-1600.9 -1243.2,-2748.8 -1243.2,-3443.4 0,-453.1 128.1,-858.7 381.6,-1213.4 214.7,-295.1 590.3,-646.9 1127,-1055.4 98.4,-74.5 196.8,-113.3 295.1,-113.3 158.1,0 235.6,65.6 235.6,199.7 0,92.5 -50.7,190.9 -155,289.2 -444.2,423.4 -667.9,942.1 -667.9,1553.3 0,679.7 417.4,1800.7 1252.2,3365.9 834.8,1562.3 1252.2,2537.1 1252.2,2921.7z"/>
   <path class="fil0" d="M11299.2 4489.9c-226.6,799 -536.6,1490.6 -930.1,2077.9 -175.9,262.4 -342.9,393.6 -500.9,393.6 -152.1,0 -417.4,-125.2 -799,-375.7 -116.3,-77.5 -175.9,-155 -175.9,-235.5 0,-122.3 104.3,-211.6 310.1,-262.3 155,-47.8 327.9,-313 524.7,-796 181.9,-462.1 274.3,-822.8 274.3,-1085.3 0,-274.3 -107.3,-411.4 -324.9,-411.4 -77.5,0 -173,11.9 -289.2,35.8 -229.5,35.7 -721.4,193.7 -1478.8,474 -86.4,29.8 -166.9,44.7 -235.5,44.7 -175.9,0 -265.3,-59.6 -265.3,-175.9 0,-110.3 89.4,-211.6 271.3,-298.1 655.9,-328 1299.9,-602.3 1937.9,-825.9 205.8,-74.6 351.8,-113.3 438.3,-113.3 134.1,0 310,184.8 524.7,557.5 327.9,101.4 530.6,173 605.2,220.6 128.1,74.5 193.8,190.8 193.8,348.8 0,110.3 -26.9,253.4 -80.6,426.4z"/>
   <path class="fil1" d="M11885.5 20356l384.9 91.9c-75,327.4 -188.1,578 -338.5,750.9 -150,173.5 -326.4,260.1 -528.4,260.1 -227.1,0 -404.9,-107.6 -532.7,-323.4 -127.9,-215.8 -192,-529 -192,-939.5 0,-332.9 42.9,-637.2 128.7,-913.6 85.8,-276.4 204.6,-488.1 357.1,-634.5 152.2,-146.3 317.7,-219.9 496.8,-219.9 201.5,0 364.1,85.1 488.5,254.6 124.4,170.3 197.3,401 219.4,694.4l-366.8 55.8c-20.3,-170.9 -59.4,-294.1 -117,-371.1 -57.6,-76.9 -134.4,-115 -230.6,-115 -105.4,0 -203.7,50.4 -295.2,151.8 -91.4,101.5 -164.3,260.1 -218.9,475.9 -55.1,215.2 -82.3,430.3 -82.3,645.4 0,234.8 35.5,416.6 106.6,544.6 71.1,128 159.9,192 265.7,192 98.8,0 188.9,-50.4 270.9,-151.8 82.3,-100.8 143.4,-250.6 183.7,-448.7z"/>
   <path id="_1_0" class="fil1" d="M12928.8 19878.1l-356.3 -47c40.7,-187.8 111.8,-334.2 213.2,-439.8 101.4,-105.5 235.3,-158.7 402.7,-158.7 173.8,0 302.5,55.2 385.4,164.8 83.2,110.2 124.9,244.4 124.9,403 0,64 -3.5,132.1 -10.9,203.6 -7.3,72.1 -32.5,261.4 -75.8,567.8 -36,253.3 -53.7,430.9 -53.7,532.3 0,90.6 10.4,190.6 30.8,301.6l-355.8 0c-13.9,-76.9 -22.5,-157.2 -26.1,-239.6 -53.3,93.2 -114.9,165.4 -184.1,216.5 -69.4,51 -139.6,76.3 -209.9,76.3 -111.8,0 -204.1,-57.9 -277,-173.6 -72.8,-115.8 -109.2,-264.2 -109.2,-445.9 0,-202.9 39.9,-365.6 120.1,-486.8 80.2,-121.8 223.2,-195.3 429.2,-220.5 173.8,-23.1 289.9,-50.4 348.4,-82.4 15.2,-80.3 23,-144.3 23,-192 0,-62 -15.6,-113 -47.3,-154.5 -31.2,-41.5 -78,-62 -140,-62 -65.1,0 -116.6,20.4 -154.4,62 -37.7,40.9 -63.7,99.4 -77.1,175zm347.2 535.1c-22,9.5 -51.1,18.4 -87.5,26.6 -183,34.7 -302.6,85.8 -358.4,153.2 -39.9,49 -59.9,114.4 -59.9,196 0,68.1 15.2,124.6 46,171.6 30.4,46.2 70.6,69.5 120.5,69.5 55,0 107,-21.1 155.6,-64 49,-42.2 85.4,-96.7 109.3,-163.5 24.2,-66.7 45.5,-170.9 64.1,-312.5l10.4 -76.9z"/>
   <path id="_2_1" class="fil1" d="M13813.6 20816.2l353.7 -88.5c31.2,117.7 70.1,200.8 116.5,249.8 46.4,48.3 109.2,72.9 189.4,72.9 82.7,0 149.1,-29.3 198.5,-88.5 34.6,-40.2 52,-89.9 52,-147.1 0,-39.5 -8.7,-74.2 -26.5,-104.9 -18.6,-29.3 -68.9,-65.3 -150.8,-108.2 -219.4,-114.4 -355,-205.6 -407.5,-272.3 -81.9,-103.5 -122.7,-239.6 -122.7,-407.8 0,-168.2 39.9,-313.1 119.2,-435 110.5,-169.5 274.8,-253.9 492.4,-253.9 173.4,0 304.3,50.4 392.8,150.5 88.9,100.1 144.7,235.5 168.6,406.5l-335.5 92.6c-17.7,-77.6 -46.4,-136.2 -85.8,-175 -54.2,-52.5 -118.8,-78.3 -194.7,-78.3 -75.9,0 -130.5,19.8 -163.9,59.9 -33.4,40.2 -49.8,86.4 -49.8,138.2 0,53.7 16.8,97.4 50.6,132.1 20.9,21.8 88.9,59.2 203.3,112.3 177.3,81.6 295.6,161.3 355.4,240.3 84.5,110.9 126.6,244.3 126.6,400.2 0,201.5 -53.7,376.5 -161.3,524.9 -107,147.7 -258.4,222 -453.8,222 -194.7,0 -344.7,-56.5 -450.9,-168.8 -106.2,-112.3 -178.2,-270.3 -216.3,-473.9z"/>
   <path id="_3_2" class="fil1" d="M15821.8 19878.1l-356.3 -47c40.8,-187.8 111.9,-334.2 213.2,-439.8 101.5,-105.5 235.4,-158.7 402.8,-158.7 173.8,0 302.5,55.2 385.4,164.8 83.2,110.2 124.8,244.4 124.8,403 0,64 -3.4,132.1 -10.8,203.6 -7.3,72.1 -32.5,261.4 -75.8,567.8 -36,253.3 -53.7,430.9 -53.7,532.3 0,90.6 10.4,190.6 30.8,301.6l-355.8 0c-13.9,-76.9 -22.5,-157.2 -26.1,-239.6 -53.3,93.2 -114.9,165.4 -184.2,216.5 -69.3,51 -139.6,76.3 -209.8,76.3 -111.8,0 -204.2,-57.9 -277,-173.6 -72.8,-115.8 -109.2,-264.2 -109.2,-445.9 0,-202.9 39.9,-365.6 120.1,-486.8 80.2,-121.8 223.2,-195.3 429.2,-220.5 173.8,-23.1 289.9,-50.4 348.4,-82.4 15.2,-80.3 23,-144.3 23,-192 0,-62 -15.6,-113 -47.2,-154.5 -31.2,-41.5 -78.1,-62 -140,-62 -65.1,0 -116.6,20.4 -154.4,62 -37.7,40.9 -63.7,99.4 -77.1,175zm347.2 535.1c-22.1,9.5 -51.1,18.4 -87.5,26.6 -183,34.7 -302.6,85.8 -358.5,153.2 -39.9,49 -59.8,114.4 -59.8,196 0,68.1 15.1,124.6 45.9,171.6 30.4,46.2 70.7,69.5 120.6,69.5 55,0 107,-21.1 155.6,-64 48.9,-42.2 85.4,-96.7 109.2,-163.5 24.3,-66.7 45.6,-170.9 64.2,-312.5l10.4 -76.9z"/>
   <polygon id="_4_3" class="fil1" points="18760.7,20098.7 18038,20098.7 17863.8,21405.8 17481,21405.8 17871.1,18481.2 18253.5,18481.2 18103,19608.5 18826.1,19608.5 18976.5,18481.2 19358.7,18481.2 18969.1,21405.8 18586.4,21405.8 "/>
   <path id="_5_4" class="fil1" d="M19408.6 20526.2c0,-394.2 70.3,-708 211.1,-942.2 140.9,-234.2 326,-351.3 555.3,-351.3 198.5,0 353.7,86.5 465.5,259.4 111.4,173 167.3,405.1 167.3,697.8 0,343.8 -69.8,642.1 -209.4,892.5 -139.5,251.2 -326.3,376.5 -560.4,376.5 -127,0 -239.7,-40.2 -337.7,-119.8 -98,-80.4 -171.3,-194.1 -219.3,-340.5 -48.2,-147.1 -72.5,-304.3 -72.5,-472.5zm1037.8 -411.8c0,-136.9 -25.1,-246.4 -75.4,-328.8 -50.3,-82.4 -114.9,-123.9 -194.1,-123.9 -78.5,0 -148.2,38.8 -208.9,115.8 -60.7,76.9 -108,189.3 -141.8,335.6 -33.8,147.1 -50.7,282.6 -50.7,405.8 0,153.2 26,274.4 78.4,364.2 52.4,89.9 118.3,134.8 197.7,134.8 99.6,0 182.9,-68.1 250.5,-203.6 96.3,-191.3 144.4,-424.8 144.4,-699.8z"/>
   <path id="_6_5" class="fil1" d="M20924 21520.2l385.3 87.9c0,61.2 6.6,107.5 19.1,138.1 12.6,31.4 33,57.9 61.1,80.4 28.2,21.8 66.8,32.6 115.4,32.6 81.9,0 147.8,-23.8 197.2,-72.1 36.8,-37.4 67.2,-97.4 90.6,-180.4 14.3,-51.8 32.9,-165.5 55.4,-340.5l13 -99.4c-132.7,164.7 -270.1,247.1 -411.8,247.1 -132.2,0 -240.5,-73.5 -325.1,-219.9 -84.5,-146.4 -127,-361.5 -127,-644.1 0,-249.1 28.6,-477.8 86.3,-685.5 57.6,-207.6 138.7,-364.9 243.2,-471.8 104,-106.9 210.6,-160 319,-160 89.3,0 171.2,37.5 245.8,112.3 74.1,75.6 131.8,180.4 173.4,315.9l47.3 -375.1 342.8 0 -214.9 1772.1c-39,282.5 -72.1,484 -98.9,605.2 -26.9,120.5 -57.6,216.4 -92.3,287.9 -34.2,72.2 -78,132.1 -130.9,180.4 -52.9,48.3 -114.9,83.1 -186.8,104.2 -71.9,21.1 -149.5,32 -233.6,32 -190.4,0 -334.2,-51 -431.3,-153.1 -97.1,-102.8 -146.1,-273 -146.1,-510.6 0,-25.1 1.3,-53.1 4,-83.7zm429.5 -1028c0,162 23,285.3 68.9,369.7 45.9,85.1 103.6,127.3 173,127.3 65,0 127.8,-38.2 189,-114.4 61.1,-76.3 107.9,-183.8 140.4,-324.1 32.5,-140.3 48.9,-275.8 48.9,-407.1 0,-150.5 -26.8,-272.3 -79.8,-364.2 -53.3,-91.9 -114.8,-138.2 -184.6,-138.2 -65.4,0 -125.2,40.9 -179.9,121.9 -54.6,81.6 -99.6,206.9 -135.2,377.1 -27.3,130.7 -40.8,247.8 -40.8,352z"/>
   <path id="_7_6" class="fil1" d="M23046.2 19878.1l-356.3 -47c40.7,-187.8 111.8,-334.2 213.2,-439.8 101.4,-105.5 235.3,-158.7 402.7,-158.7 173.8,0 302.5,55.2 385.4,164.8 83.2,110.2 124.8,244.4 124.8,403 0,64 -3.4,132.1 -10.8,203.6 -7.3,72.1 -32.5,261.4 -75.8,567.8 -36,253.3 -53.7,430.9 -53.7,532.3 0,90.6 10.4,190.6 30.8,301.6l-355.8 0c-13.9,-76.9 -22.5,-157.2 -26.1,-239.6 -53.3,93.2 -114.9,165.4 -184.2,216.5 -69.3,51 -139.5,76.3 -209.8,76.3 -111.8,0 -204.1,-57.9 -277,-173.6 -72.8,-115.8 -109.2,-264.2 -109.2,-445.9 0,-202.9 39.9,-365.6 120.1,-486.8 80.2,-121.8 223.2,-195.3 429.2,-220.5 173.8,-23.1 289.9,-50.4 348.4,-82.4 15.2,-80.3 23,-144.3 23,-192 0,-62 -15.6,-113 -47.2,-154.5 -31.2,-41.5 -78.1,-62 -140,-62 -65.1,0 -116.6,20.4 -154.4,62 -37.7,40.9 -63.7,99.4 -77.1,175zm347.2 535.1c-22.1,9.5 -51.1,18.4 -87.5,26.6 -183,34.7 -302.6,85.8 -358.5,153.2 -39.9,49 -59.8,114.4 -59.8,196 0,68.1 15.1,124.6 46,171.6 30.4,46.2 70.6,69.5 120.5,69.5 55,0 107,-21.1 155.6,-64 49,-42.2 85.4,-96.7 109.2,-163.5 24.3,-66.7 45.6,-170.9 64.2,-312.5l10.4 -76.9z"/>
   <path id="_8_7" class="fil1" d="M24239.5 19285.8l342.5 0 -51.6 399c125.7,-301.6 261.8,-452.1 408.8,-452.1 52,0 107.9,20.4 167.2,62l-140.4 468.4c-33,-18.4 -68.5,-27.9 -105.8,-27.9 -62.8,0 -126.5,37.4 -191.6,112.3 -64.9,74.8 -115.7,174.2 -152.1,299.5 -36.8,124.6 -72.8,322.7 -108.4,593.7l-87.1 665.1 -364.1 0 282.6 -2120z"/>
   <path id="_9_8" class="fil1" d="M25980.3 19285.8l345.5 0 -27.3 215.8c73.7,-96 143,-165.5 207.6,-207 64.2,-41.5 133.5,-62 207.2,-62 141.8,0 255.8,76.9 342,230.1 86.3,153.9 129.2,382.6 129.2,687 0,382.6 -74.6,706.6 -223.7,970.7 -127.5,225.3 -278.7,338.4 -453.5,338.4 -179.9,0 -315.5,-113.1 -407.4,-339.1l-143.4 1094.8 -363.7 0 387.5 -2928.8zm218.4 1215.9c0,167.4 26,297.5 77.6,389.4 52,92.6 112.7,138.9 183,138.9 60.6,0 119.1,-34.7 175.5,-103.5 56.3,-69.5 103.2,-183.8 140,-344.5 37.2,-160 56,-309.1 56,-445.9 0,-159.3 -24.3,-281.8 -73.3,-366.9 -48.5,-85.1 -110.5,-128.1 -185.5,-128.1 -70.2,0 -133.9,38.8 -191.6,117.1 -57.7,78.3 -102.3,193.4 -133.9,345.2 -31.6,151.9 -47.7,284.5 -47.7,398.3z"/>
   <path id="_10_9" class="fil1" d="M27816 19878.1l-356.3 -47c40.7,-187.8 111.8,-334.2 213.2,-439.8 101.4,-105.5 235.3,-158.7 402.7,-158.7 173.8,0 302.5,55.2 385.4,164.8 83.2,110.2 124.8,244.4 124.8,403 0,64 -3.4,132.1 -10.8,203.6 -7.3,72.1 -32.5,261.4 -75.8,567.8 -36,253.3 -53.7,430.9 -53.7,532.3 0,90.6 10.4,190.6 30.8,301.6l-355.8 0c-13.9,-76.9 -22.5,-157.2 -26.1,-239.6 -53.3,93.2 -114.9,165.4 -184.2,216.5 -69.3,51 -139.5,76.3 -209.8,76.3 -111.8,0 -204.1,-57.9 -277,-173.6 -72.8,-115.8 -109.2,-264.2 -109.2,-445.9 0,-202.9 39.9,-365.6 120.1,-486.8 80.2,-121.8 223.2,-195.3 429.2,-220.5 173.8,-23.1 289.9,-50.4 348.4,-82.4 15.2,-80.3 23,-144.3 23,-192 0,-62 -15.6,-113 -47.2,-154.5 -31.2,-41.5 -78.1,-62 -140,-62 -65.1,0 -116.6,20.4 -154.4,62 -37.7,40.9 -63.7,99.4 -77.1,175zm347.2 535.1c-22.1,9.5 -51.1,18.4 -87.5,26.6 -183,34.7 -302.6,85.8 -358.5,153.2 -39.9,49 -59.8,114.4 -59.8,196 0,68.1 15.1,124.6 46,171.6 30.4,46.2 70.6,69.5 120.5,69.5 55,0 107,-21.1 155.6,-64 49,-42.2 85.4,-96.7 109.2,-163.5 24.3,-66.7 45.6,-170.9 64.2,-312.5l10.4 -76.9z"/>
   <path id="_11_10" class="fil1" d="M29009.3 19285.8l342.5 0 -51.6 399c125.7,-301.6 261.8,-452.1 408.8,-452.1 52,0 107.9,20.4 167.2,62l-140.4 468.4c-33,-18.4 -68.5,-27.9 -105.8,-27.9 -62.8,0 -126.5,37.4 -191.6,112.3 -65,74.8 -115.7,174.2 -152.1,299.5 -36.8,124.6 -72.8,322.7 -108.4,593.7l-87.1 665.1 -364.1 0 282.6 -2120z"/>
   <path id="_12_11" class="fil1" d="M30274.5 19878.1l-356.3 -47c40.7,-187.8 111.8,-334.2 213.2,-439.8 101.4,-105.5 235.3,-158.7 402.7,-158.7 173.8,0 302.5,55.2 385.4,164.8 83.2,110.2 124.9,244.4 124.9,403 0,64 -3.5,132.1 -10.9,203.6 -7.3,72.1 -32.5,261.4 -75.8,567.8 -36,253.3 -53.7,430.9 -53.7,532.3 0,90.6 10.4,190.6 30.8,301.6l-355.8 0c-13.9,-76.9 -22.5,-157.2 -26,-239.6 -53.4,93.2 -114.9,165.4 -184.2,216.5 -69.4,51 -139.6,76.3 -209.9,76.3 -111.8,0 -204.1,-57.9 -277,-173.6 -72.8,-115.8 -109.2,-264.2 -109.2,-445.9 0,-202.9 39.9,-365.6 120.1,-486.8 80.2,-121.8 223.2,-195.3 429.2,-220.5 173.8,-23.1 290,-50.4 348.4,-82.4 15.2,-80.3 23,-144.3 23,-192 0,-62 -15.6,-113 -47.3,-154.5 -31.2,-41.5 -78,-62 -140,-62 -65.1,0 -116.6,20.4 -154.4,62 -37.7,40.9 -63.7,99.4 -77.1,175zm347.2 535.1c-22,9.5 -51.1,18.4 -87.5,26.6 -183,34.7 -302.6,85.8 -358.4,153.2 -39.9,49 -59.9,114.4 -59.9,196 0,68.1 15.2,124.6 46,171.6 30.4,46.2 70.6,69.5 120.5,69.5 55,0 107,-21.1 155.6,-64 49,-42.2 85.4,-96.7 109.3,-163.5 24.2,-66.7 45.5,-170.9 64.1,-312.5l10.4 -76.9z"/>
   <polygon id="_13_12" class="fil1" points="31926,21405.8 32316.2,18481.2 32679.8,18481.2 32290.2,21405.8 "/>
   <path id="_14_13" class="fil1" d="M33166.2 19878.1l-356.3 -47c40.7,-187.8 111.8,-334.2 213.2,-439.8 101.4,-105.5 235.3,-158.7 402.7,-158.7 173.8,0 302.5,55.2 385.4,164.8 83.2,110.2 124.8,244.4 124.8,403 0,64 -3.4,132.1 -10.8,203.6 -7.3,72.1 -32.5,261.4 -75.8,567.8 -36,253.3 -53.7,430.9 -53.7,532.3 0,90.6 10.4,190.6 30.8,301.6l-355.8 0c-13.9,-76.9 -22.5,-157.2 -26.1,-239.6 -53.3,93.2 -114.9,165.4 -184.2,216.5 -69.3,51 -139.5,76.3 -209.8,76.3 -111.8,0 -204.1,-57.9 -277,-173.6 -72.8,-115.8 -109.2,-264.2 -109.2,-445.9 0,-202.9 39.9,-365.6 120.1,-486.8 80.2,-121.8 223.2,-195.3 429.2,-220.5 173.8,-23.1 289.9,-50.4 348.4,-82.4 15.2,-80.3 23,-144.3 23,-192 0,-62 -15.6,-113 -47.2,-154.5 -31.2,-41.5 -78,-62 -140,-62 -65.1,0 -116.6,20.4 -154.4,62 -37.7,40.9 -63.7,99.4 -77.1,175zm347.2 535.1c-22.1,9.5 -51.1,18.4 -87.5,26.6 -183,34.7 -302.6,85.8 -358.5,153.2 -39.9,49 -59.8,114.4 -59.8,196 0,68.1 15.1,124.6 46,171.6 30.4,46.2 70.6,69.5 120.5,69.5 55,0 107,-21.1 155.6,-64 49,-42.2 85.4,-96.7 109.2,-163.5 24.3,-66.7 45.6,-170.9 64.2,-312.5l10.4 -76.9z"/>
   <polygon id="_15_14" class="fil1" points="35632.9,21405.8 35250.2,21405.8 35574.9,18971.3 35028.3,18971.3 35090.7,18481.2 36557.6,18481.2 36495.1,18971.3 35957.6,18971.3 "/>
   <path id="_16_15" class="fil1" d="M37626 20523.5l-915.9 0c-0.8,22.5 -1.3,40.1 -1.3,52.4 0,142.3 26,256.7 77.6,343.8 51.5,87.1 114.9,130.7 188.9,130.7 122.3,0 217.6,-98 286.1,-294.1l325.1 85.8c-63.7,205.6 -148.7,359.5 -255.4,462.3 -106.5,102.7 -225.8,154.5 -358.4,154.5 -181.7,0 -329.5,-90.6 -443,-271 -114,-181.1 -170.8,-420.1 -170.8,-718.2 0,-290.7 51.1,-549.4 153.9,-776.8 139.6,-307.1 339.4,-460.3 598.6,-460.3 165.1,0 296.5,80.4 394,241.1 97.5,160.6 146.1,385.9 146.1,675.4 0,138.8 -8.7,263.4 -25.6,374.4zm-307.3 -347.3c0.9,-25.8 1.3,-44.9 1.3,-58.5 0,-158.6 -22.5,-277.7 -67.7,-357.4 -44.6,-79.6 -104.9,-119.1 -180.7,-119.1 -75.4,0 -143,45 -202.9,135.5 -59.8,89.8 -100.1,223.2 -121.3,399.6l571.3 0z"/>
   <path id="_17_16" class="fil1" d="M38020.5 19285.8l342.4 0 -51.6 399c125.7,-301.6 261.8,-452.1 408.8,-452.1 52,0 108,20.4 167.3,62l-140.4 468.4c-33,-18.4 -68.5,-27.9 -105.8,-27.9 -62.9,0 -126.6,37.4 -191.6,112.3 -65,74.8 -115.8,174.2 -152.2,299.5 -36.8,124.6 -72.8,322.7 -108.3,593.7l-87.1 665.1 -364.1 0 282.6 -2120z"/>
   <path id="_18_17" class="fil1" d="M39683.7 20609.3l353.7 89.9c-58.5,247.8 -144.5,436.4 -258.8,565.7 -114,129.3 -246.2,194.1 -396.6,194.1 -171.7,0 -307.7,-81.1 -408.4,-242.4 -100.5,-161.4 -150.8,-383.2 -150.8,-666.5 0,-230.7 30.4,-449.3 91.4,-654.9 60.7,-205.6 152.6,-366.9 275.3,-485.3 122.7,-117.8 257,-177.1 403.6,-177.1 159,0 286,65.4 380.5,196.8 95,130.7 148.3,303 160,516.8l-345.9 58.5c-8.7,-119.1 -31.6,-206.9 -69.3,-262.8 -37.8,-56.5 -86.8,-84.4 -147.8,-84.4 -70.3,0 -136.1,41.5 -196.8,123.9 -61.1,83.1 -107.9,207 -140.5,371.7 -32.5,164.8 -48.9,319.3 -48.9,463.6 0,126 19.5,222.7 58.1,290.7 39,68.1 87.5,102.2 146.1,102.2 58.1,0 114.4,-33.4 168.7,-100.1 53.7,-66.8 96.2,-166.8 126.5,-300.3z"/>
   <path id="_19_18" class="fil1" d="M41531.1 20523.5l-915.9 0c-0.8,22.5 -1.3,40.1 -1.3,52.4 0,142.3 26,256.7 77.6,343.8 51.5,87.1 114.9,130.7 188.9,130.7 122.3,0 217.6,-98 286.1,-294.1l325.1 85.8c-63.7,205.6 -148.7,359.5 -255.4,462.3 -106.5,102.7 -225.8,154.5 -358.4,154.5 -181.7,0 -329.4,-90.6 -443,-271 -114,-181.1 -170.8,-420.1 -170.8,-718.2 0,-290.7 51.1,-549.4 153.9,-776.8 139.6,-307.1 339.4,-460.3 598.6,-460.3 165.1,0 296.5,80.4 394,241.1 97.5,160.6 146.1,385.9 146.1,675.4 0,138.8 -8.7,263.4 -25.6,374.4zm-307.3 -347.3c0.9,-25.8 1.3,-44.9 1.3,-58.5 0,-158.6 -22.5,-277.7 -67.6,-357.4 -44.6,-79.6 -104.9,-119.1 -180.8,-119.1 -75.4,0 -143,45 -202.9,135.5 -59.8,89.8 -100.1,223.2 -121.3,399.6l571.3 0z"/>
   <path id="_20_19" class="fil1" d="M41925.6 19285.8l342.4 0 -51.6 399c125.7,-301.6 261.8,-452.1 408.8,-452.1 52,0 108,20.4 167.3,62l-140.4 468.4c-33,-18.4 -68.5,-27.9 -105.8,-27.9 -62.9,0 -126.5,37.4 -191.6,112.3 -65,74.8 -115.8,174.2 -152.2,299.5 -36.8,124.6 -72.7,322.7 -108.3,593.7l-87.1 665.1 -364.1 0 282.6 -2120z"/>
   <path id="_21_20" class="fil1" d="M43190.9 19878.1l-356.3 -47c40.8,-187.8 111.8,-334.2 213.2,-439.8 101.5,-105.5 235.4,-158.7 402.7,-158.7 173.9,0 302.5,55.2 385.4,164.8 83.2,110.2 124.9,244.4 124.9,403 0,64 -3.4,132.1 -10.8,203.6 -7.3,72.1 -32.5,261.4 -75.8,567.8 -36,253.3 -53.8,430.9 -53.8,532.3 0,90.6 10.5,190.6 30.9,301.6l-355.9 0c-13.8,-76.9 -22.5,-157.2 -26,-239.6 -53.3,93.2 -114.9,165.4 -184.2,216.5 -69.3,51 -139.6,76.3 -209.8,76.3 -111.8,0 -204.2,-57.9 -277,-173.6 -72.8,-115.8 -109.2,-264.2 -109.2,-445.9 0,-202.9 39.9,-365.6 120.1,-486.8 80.2,-121.8 223.2,-195.3 429.2,-220.5 173.7,-23.1 289.9,-50.4 348.4,-82.4 15.2,-80.3 23,-144.3 23,-192 0,-62 -15.6,-113 -47.2,-154.5 -31.3,-41.5 -78.1,-62 -140,-62 -65.1,0 -116.6,20.4 -154.4,62 -37.7,40.9 -63.7,99.4 -77.1,175zm347.1 535.1c-22,9.5 -51.1,18.4 -87.5,26.6 -182.9,34.7 -302.5,85.8 -358.4,153.2 -39.9,49 -59.8,114.4 -59.8,196 0,68.1 15.1,124.6 45.9,171.6 30.4,46.2 70.7,69.5 120.5,69.5 55.1,0 107.1,-21.1 155.6,-64 48.9,-42.2 85.4,-96.7 109.2,-163.5 24.3,-66.7 45.5,-170.9 64.2,-312.5l10.3 -76.9z"/>
   <polygon id="_22_21" class="fil1" points="44847.5,21405.8 45237.6,18481.2 46616,18481.2 46551,18971.3 45554.4,18971.3 45463,19633 46428.7,19633 46363.7,20123.2 45395,20123.2 45284.9,20915.6 46366.3,20915.6 46301.3,21405.8 "/>
   <path id="_23_22" class="fil1" d="M47824.9 21405.8l-345.4 0 30.4 -226.7c-65.9,100.1 -131,171.5 -195.2,215.1 -63.7,42.9 -135.6,64.7 -216.3,64.7 -139.6,0 -252.7,-74.9 -339.4,-225.3 -86.7,-149.8 -130.1,-371.7 -130.1,-665.9 0,-340.4 62,-647.4 185.6,-922.5 123.5,-275 286.9,-412.6 490.2,-412.6 183.8,0 321.6,113.8 413.5,341.8l151.3 -1093.3 363.7 0 -408.3 2924.7zm-842.2 -860.5c0,151.8 24.7,270.9 73.7,356.7 49.4,85.2 110.1,128.1 182,128.1 66.8,0 129.2,-35.4 186.8,-107 58.1,-71.5 104,-181 138.7,-328.1 34.6,-146.4 52,-287.3 52,-422.8 0,-153.2 -26.4,-277.8 -79.3,-372.4 -53.3,-94.6 -114.4,-142.3 -183.8,-142.3 -107.9,0 -196.8,93.2 -266.1,280.5 -69.4,187.2 -104,389.4 -104,607.2z"/>
   <path id="_24_23" class="fil1" d="M48683.1 19878.1l-356.3 -47c40.7,-187.8 111.8,-334.2 213.2,-439.8 101.4,-105.5 235.3,-158.7 402.7,-158.7 173.8,0 302.5,55.2 385.4,164.8 83.2,110.2 124.9,244.4 124.9,403 0,64 -3.5,132.1 -10.9,203.6 -7.3,72.1 -32.5,261.4 -75.8,567.8 -36,253.3 -53.7,430.9 -53.7,532.3 0,90.6 10.4,190.6 30.8,301.6l-355.8 0c-13.9,-76.9 -22.5,-157.2 -26,-239.6 -53.4,93.2 -114.9,165.4 -184.2,216.5 -69.4,51 -139.6,76.3 -209.9,76.3 -111.8,0 -204.1,-57.9 -277,-173.6 -72.8,-115.8 -109.2,-264.2 -109.2,-445.9 0,-202.9 39.9,-365.6 120.1,-486.8 80.2,-121.8 223.2,-195.3 429.2,-220.5 173.8,-23.1 290,-50.4 348.4,-82.4 15.2,-80.3 23,-144.3 23,-192 0,-62 -15.6,-113 -47.3,-154.5 -31.2,-41.5 -78,-62 -140,-62 -65.1,0 -116.6,20.4 -154.4,62 -37.7,40.9 -63.7,99.4 -77.1,175zm347.2 535.1c-22,9.5 -51.1,18.4 -87.5,26.6 -183,34.7 -302.6,85.8 -358.4,153.2 -39.9,49 -59.9,114.4 -59.9,196 0,68.1 15.2,124.6 46,171.6 30.4,46.2 70.6,69.5 120.5,69.5 55,0 107,-21.1 155.6,-64 49,-42.2 85.4,-96.7 109.3,-163.5 24.2,-66.7 45.5,-170.9 64.1,-312.5l10.4 -76.9z"/>
   <path id="_25_24" class="fil1" d="M50860 21405.8l-345.4 0 30.4 -226.7c-65.9,100.1 -131,171.5 -195.1,215.1 -63.7,42.9 -135.7,64.7 -216.3,64.7 -139.6,0 -252.7,-74.9 -339.4,-225.3 -86.7,-149.8 -130.1,-371.7 -130.1,-665.9 0,-340.4 62,-647.4 185.6,-922.5 123.5,-275 287,-412.6 490.2,-412.6 183.8,0 321.6,113.8 413.5,341.8l151.3 -1093.3 363.7 0 -408.3 2924.7zm-842.2 -860.5c0,151.8 24.7,270.9 73.7,356.7 49.4,85.2 110.1,128.1 182,128.1 66.8,0 129.2,-35.4 186.8,-107 58.1,-71.5 104,-181 138.7,-328.1 34.6,-146.4 52,-287.3 52,-422.8 0,-153.2 -26.4,-277.8 -79.3,-372.4 -53.3,-94.6 -114.4,-142.3 -183.7,-142.3 -108,0 -196.8,93.2 -266.2,280.5 -69.4,187.2 -104,389.4 -104,607.2z"/>
  </g>
 </g>
</svg>
